<?xml version="1.0" encoding="utf-8"?>
<!-- Generator: Adobe Illustrator 24.1.2, SVG Export Plug-In . SVG Version: 6.00 Build 0)  -->
<svg version="1.1" id="Layer_1" xmlns="http://www.w3.org/2000/svg" xmlns:xlink="http://www.w3.org/1999/xlink" x="0px" y="0px"
	 viewBox="0 0 947.4 671.4" style="enable-background:new 0 0 947.4 671.4;" xml:space="preserve">
<style type="text/css">
	.st0{display:none;}
	.st1{display:inline;}
</style>
<g id="AUSTRALIA" class="st0">
	<path class="st1" d="M781.6,779.3l0.6-1l-2.5-0.3l-3.3-6.3l0.3,1.2l-0.3-0.4l-0.1,0.4l0.1-1.3l-0.4-0.3l-1.3,1l-0.7-0.4l0.3,0.9
		l-0.7,1.3l-2,0.9l0.9,1.3l1.4-0.1l0.3,2.2l-1.2,0.7l1.7,0.7v1.6l0.3-0.6l0.6,0.6l0.4,2.7l-0.3,0.9l1,1.2h1.3l1.3-1.2l1.4,0.6
		l1.2-0.4l-0.3-0.3l-0.6,0.4l0.3-0.7l-0.7-0.9h0.7l0.6,1.2l-0.4-3.3l-0.3,1.2h-1.4l1.7-1.2L781.6,779.3L781.6,779.3z"/>
	<path class="st1" d="M772.3,840.4l-1.2-0.6l-0.1-0.7l1.3-0.2l0.6,1.4L772.3,840.4L772.3,840.4z"/>
	<path class="st1" d="M764.8,850l1.3-1.9l-1.2-0.3l1.6-2.3l0.9,0.6l0.7,1.7l-0.4,0.4l-1.3-0.3v1.6L764.8,850L764.8,850z"/>
	<path class="st1" d="M747.8,868.5l2.2-3.7l-0.1-0.4l-0.9,0.1l0.1-1.4l1-1l1-0.4l0.3,0.4l0.1-0.4l-0.9-4.7l-1,1.3l0.3,0.4l0.7-0.3
		l-0.1,0.6l-0.7,0.3l-0.6-0.4l-0.6,0.6l2,0.7l-0.1,0.9h-0.7v1.2l-1,0.7l-0.1-1.4l-1.7,2.5l0.1,0.6l-0.6,0.4l-0.4-0.7l-0.6,2.9
		l-0.9-1.6l-0.4,0.3l0.7,2h0.6l0.9-1.9l0.6-0.2l-0.7,0.6l0.7,0.1l-0.1,1.4L747.8,868.5L747.8,868.5z"/>
	<path class="st1" d="M721.7,795.9l1.3-0.6l0.6,1.7l3.5,1.2l-0.1,1l1.7,1.6l2.7,1l3.7,2.7l1.6,0.3v0.6l0.1-0.7l1.9,0.4l0.1,0.9
		l0.1-0.6h1.9l1.6-1l0.4,2l-0.4,1.3l0.6-0.9l0.3,1.4l0.1-1.3l-0.4-0.4l0.6-1l-0.7,0.1v-0.4l1.2-0.3l0.9-1l0.6,0.2l0.7-0.7l1.4,1
		l0.3,1.2l-1,0.6l1-0.3l0.1,1.3h0.4l-0.3-0.9l0.4,0.3l0.4-0.6l0.9,0.7l-0.6,1.2l0.6-0.9h0.6l-1.3-1.4h-1l-0.6-2.2l2-0.7l1.4,0.3
		l1.4-1l2,0.6l0.7,0.6l-0.4,0.6l3.2-2.2l0.3,0.4l0.9-0.3l0.9,2l0.9-0.1l1.7-1.1l1.9-2.6l1.6-0.6l0.6,1.3l1-0.2l0.3,0.7l1.3,0.3
		l1-0.6l-0.3,0.6h0.6l-0.4-0.3l2-2.5l-0.4-0.9l1.4,0.3l0.4,0.9h0.9l0.7,1.6l0.9,0.3l-0.4,0.2l0.6-0.4l0.7,0.7l1.3,3.7l0.7,0.4
		l-1.4,1.4l0.1-0.7l-0.9,0.6l0.7,0.3l-1.6,3.4l0.6,0.6l-0.1,1.2l1,0.1l-0.7,1l-0.4-0.6l-0.3,0.9l-1.2,0.1l1,0.4l1.4-1.3l0.4,0.1
		l-1.9,2.2l-0.6,2.2l-0.6-0.1l0.6,0.3l-0.1,0.9l-0.3-0.4l0.9,2.5l-1,2.6v2l-1.2,2l0.9,2.3l-1.6,3l1.3,1.9l-1.2,1.6l1,0.4l-0.3,1
		l-1.4,1.4l-0.6-1.3l1-1l-0.6-0.9l1-0.7l-1-0.4l-0.3-1.3l-1.3-0.3l2-1.6l-0.7-0.9l0.1-0.4l-0.4,0.6l0.3,0.9l-0.4,0.4l-0.6-0.7
		l-0.6,1.3l0.1-0.4l0.3,0.4l-1.3,0.7l2.4,0.7l-3-0.1l-0.1,1.6l-1.6,1.7l-0.6,1.7l-1.6,0.7l0.6,0.4l0.7-1.2l0.6,0.1v1l-1,1.3
		l-0.1,0.9l0.4,0.4l-0.3,1.6l-1.4,0.9l-0.4-1.2l-0.1,0.9l-0.7,0.3l1.2,1.4l-0.4,0.6l0.4,0.7l-0.6-0.3l0.4,0.9l-0.4,1.3l-1.6,1.2
		l-0.1,1.7l-0.3-0.7l-1.3,1.7l1.7,0.6v-0.6l-0.7-0.3l0.7-0.7h0.6l0.1,0.9l0.7-0.1l0.1,2.6l-1.7,1.4l0.7,2.3l-0.6,0.9h1l-1.2,1.3
		l0.7,0.9l-2-1l-0.3-2.3l-0.4,1.2h0.4l-0.1,1.3l-1-0.3l-0.6,1.3l-1.7-2.2l-0.1-0.9l1.3-1l-1.7-0.3l-0.3-2.2l1.3-0.4l0.3-1.4l0.9,0.4
		l-0.6,1.4l0.3,0.6l0.3-0.3v0.7l1.6,0.7l0.3-0.7l0.1,0.7l0.4-0.9l1-0.1l-1.6-0.4l0.4-0.6l-0.7-0.6h0.7l0.3-0.6l-0.9-0.1v-1.2
		l-0.7,0.3l-0.9-0.6l-0.9,0.3l-0.6-0.3l0.7-0.7h-1.4l0.1-2.3l-0.9,0.3l-0.1-0.7l-0.1,0.9l-0.3-0.6l-0.7,0.4l-0.6-1.3l0.1,0.6
		l-0.4,0.1l0.7,1.2l0.7-0.3v0.4l1.7,0.6l-0.9-0.3l-1.3,0.6l-0.4,1.3l0.6,1.3l-0.4,0.1l0.3,0.4l0.3-0.6l0.1,0.7l-0.7,0.9l-2.2,0.4
		l-0.1-1.9l0.3-0.3l0.1,1.6l0.9,0.1l0.3-1.2l-0.6-0.6l0.6-1l0.4,0.2l-0.1-0.4l-0.9-0.2l-0.6,0.7l0.1-1.3l-1-0.4l0.3-0.7l-1.3-1.3
		v-1.3l-1.3-0.9l-0.7,0.6l0.9-0.3l0.7,0.9l0.4,0.6l-0.4,0.7l1,0.4l0.4,2.7l-0.9,1.3l-0.1,2h-0.6l-0.3-1.4l-0.4,0.4l-0.3,1.2l0.7,0.4
		l-1,0.9l-0.3,2.9l-1.2,1.3l-2.3-1.4l0.7-0.9l-0.3-1l-0.7,1.4l-1.4-1l0.4-1.9l-0.7,0.9v1.3l1.6,1.3l0.4,1.3l-0.7,0.9l-0.4-0.6
		l-1.3,0.3l1.4,0.7l-0.9,1.3v1h-1.6l0.1-0.7l-0.3,0.9l1.2,0.3l0.3,0.7l-1.2-0.1v0.9l0.7-0.6l-0.6,1.2l-0.9,0.3l-0.1-0.9l-0.4,1v0.7
		l0.6-0.3v0.7l-2.2,1l0.3-0.6l-0.6-0.6l-2,0.7l-0.1-1l-0.6,0.1v-0.6l-1-0.7l-0.3-2.5l-0.4,1l0.6,0.9l-1.3-0.7l-0.6,0.4l-1.4-0.1
		l-1.2-0.7l-1,0.6l-0.3-1.2l-0.7-0.3l-0.7,1.2l-0.9-1.2l-0.9,1.3l-0.6-0.4l-1,0.9l0.3-2.9l-0.9-2.2l-0.9-0.1l1.2-0.6l0.1,1v-1.7
		l1.7,1.3l-0.3-0.7l1.3,0.3l0.1,1.3v-0.6l0.3,0.4l0.4-0.9l0.7,0.3v0.6l0.4-1.6h-1v-0.9l-1.3,1.3l-0.6-0.4l-0.1-1l-0.3,0.9h-1
		l-0.7-1.3l0.3-1.4l-0.9-0.7l0.4-0.6l-0.4,0.1l0.1,1.4l-1.3,0.6l0.3,0.4l0.9-0.6v1l-1.2,0.4l-0.6-0.3l0.3-0.6l-0.6-0.4l-0.1-1.9
		l-0.7-0.3l-0.3-2.3l-0.6,0.2l-0.6-0.7l0.4-1l-0.7-0.4l-0.7-1.9l-1.9,0.3l0.1-1.2l-0.6-1.1l-1-3.6l0.4-1.3l-0.4-1.7l-0.6-0.2
		l-0.4-1.1l-0.9-0.1l1-1l-0.9-1.4l0.4-2.3l-0.6-2.7l0.4-1.3l-0.7-2.2l1,0.4l0.4,2h1.3l-0.1,1l2.2,1.9l0.1,3.7l0.3-2.2l-0.4-0.1
		l0.9-0.4l0.6,0.9l-0.3-0.6l1.2-1.7l-0.9,0.3l0.3-0.3l-0.6-1l-0.3,1l-0.3-1.2l-1.6-2l-0.4-2.7l-0.4-0.1l0.1,0.7l-1,0.6l0.3,0.7
		l-1.2-0.3l1.2-3l-0.4-2.6l-4.2-7.8l-0.9-0.3v-0.9l1-0.9l-1,0.1l-0.7-3.3l-1.7-3l0.9-1.2l-1.4-3.6l0.3-5.2H705l-0.4-1.2l0.7-1
		l-0.4-0.9l1-0.9l0.6,0.3l0.7-1.4l0.3-2.3l-0.6-1.3l0.3-1.1l0.9-0.7l0.6,2.6l0.4-0.7l1,0.4l0.1,1l0.1-0.6l1.4,0.9l1.2-0.4l0.6,1.3
		l0.6-0.1l0.7,1.2l0.3-0.3l0.1,0.7l1-0.4l-0.7-0.9l1.4,0.6l1.3-0.4l-0.9,0.6h0.9l0.3-2.5l0.9,1.4l-1,0.9l0.1,0.9l0.1-1.2l0.3,1.6
		L721.7,795.9L721.7,795.9z"/>
	<path class="st1" d="M693.4,770.1l-0.7-2.2l0.9-2l-0.1-3.3l1.7-1.2l0.1-1.9l0.7-0.3l2.9,2.6l-0.6,3.9l0.6,0.4l-0.7,1.4l0.6,1.2
		l-0.1,1.2l-0.7,1.7l-3.5,1.6l-0.6,1.2l-0.9-1.2l-0.3-1.4l0.7-0.1L693.4,770.1L693.4,770.1z"/>
	<path class="st1" d="M567.5,659.7l-1.9-2l-3.2-0.7l-1.9,1.4l-2.9-0.4l-1.9,0.6l-1.6-0.7l-2.9,1.2l-0.6-2.2l-1.9-0.9l-1-1.7l0.7-1
		l0.1-2.2l4.6-1.6l6.2-0.6l1.6-1.2l3.6-1.2l3,0.6l0.9-0.4l0.6,0.4l2.3-0.9v0.9l-0.7,0.1l-0.6,0.9l1.6,0.6l-1.4,1.9l2,0.4l2.3-0.3
		l0.4,0.9l-1.2,1.1l0.1,1l1.2-0.4l-1.2-0.4l0.4-0.6l1.7,0.2l1.2-1.9h0.6l2.3,0.7l0.7,1.4l1,0.2l0.1,1.2l-2.2,1.6l-2.7-1.3l-3.5-0.3
		l-2.9,1.4l-0.3,2.6L567.5,659.7L567.5,659.7z"/>
	<path class="st1" d="M297.1,92.3l-0.6-0.7l-0.3,0.7l0.1-0.9l-0.6,0.7l-0.4-0.3v0.7l-0.6-0.3l0.4-0.9l0.4,0.1l-0.1-0.9l-1.2,0.1
		l-0.3-0.4l0.4-0.9h-0.7l1-0.4l-0.1-1.1l-1.1,1.1l0.6-1.3l-1,0.1l1.9-1.3l-0.6-0.6l-1.6,0.4l2.2-0.9l-1-0.4L292,87l1.1-1.4l-0.9-0.3
		l1-1.1l-2,0.7l0.6-0.7h-0.6l0.1-0.7l-0.7,1.3l-0.7-0.6l-0.7,0.3l2,1.4l0.6-0.3l-0.6,1.1l0.4,0.7l-0.7-0.1l-0.1-1.3l-0.7-0.1
		l-0.4,0.4l0.9,0.7l-0.6,0.3l-0.1-0.6l-0.4,1.4V87l-0.7-0.9l-0.3,0.3l1,2.2l0.4,0.3l1.9-0.6l1.7,1.7l-0.6,0.3l0.4,0.6l-0.7,1.4
		l-1.9,0.7l0.9,2.4l-2,1.3H289l0.3,0.6l0.7-0.1l0.9,3l-1.1-0.1v1.3l-1-1.3l-1.1,0.6l-0.3,1l0.9,1.7l-0.3,0.4l-0.3-0.4l0.1,0.9
		l-0.6-0.4l-0.1,0.4l0.6-0.6l-0.3-0.6l-1.9-1.1l0.4-0.6l-0.6-0.4l0.6-0.3l-0.9-0.9l1.2-0.6l-0.3-0.6l-1.1,0.7l0.3-0.7l-0.4-0.3
		l-0.6,1l-0.9,0.1l0.3-0.9l-0.4-0.6l0.4-0.3l-0.7-0.1l-0.1,1.3l-1.9,5.3l1.2-4.2l-0.9-1.4l0.1-0.7l-0.4,0.4l0.4-0.7l-0.4-0.6
		l0.7-0.7l-0.3-0.6l1.6,0.1l-0.1-0.6l-0.6,0.1l0.7-1.2l-0.7,0.6l-1.4-1.6l-0.1,0.7l-0.3-1l-0.9,0.1l0.3,0.7l-0.4-0.4l-0.4,0.4
		l0.6,0.3l-0.4,1.1l0.6,0.7l-0.3,0.7l0.9,0.4l-0.7,3.2l0.6,0.3l-1,0.9l0.7,0.3l-1.7,0.1l0.7-1.3h-1.7l0.1,1.1l-0.7-0.6l0.3,0.9
		l-0.7,0.4l0.3,0.7l-0.7-0.3l0.3,1.4l-0.4-1.3l-0.4,0.7l0.3-1l-0.4-1.1l-1.6,2l0.6-1.3l-0.1-1.6l-0.6,0.4l0.1,1.1l-0.4-0.1l-0.1,0.6
		l-0.6-0.6v0.4l-1.1,0.7l0.3,1l0.6-0.3l1,0.7L271,105v0.9l-0.7-0.7l-0.6,0.1v1.4l-0.3-0.6l-0.6,0.3l0.3,1l-0.7-0.4l-0.4,0.4l0.7,1.1
		h0.9l-0.4,1.3l0.7,0.6l0.9-0.9l-0.1,0.9l1.2-0.4l0.4,0.6l0.1-0.4l0.1,0.6h0.4l-0.9,0.6l0.1,0.9l-1-0.9L271,112l-0.3-0.3l-1.4,1.4
		l0.6-0.3l0.4,0.4l0.9-0.7v1l1.3-0.7l-0.7,0.6l0.3,0.6l1.2-0.4l0.4,0.6l0.3-0.4l0.9,0.9l0.1-1.7l0.4,1.4l1.4-0.6l-2.6,1.4l-0.1,0.6
		l0.7-0.1l0.3,0.4l-1.3,0.7l2.7,0.4l1.3,0.9l-0.4-0.4l-2.2,0.4l-0.9-0.6l-1.1,0.3l0.3,0.7l-0.6-0.7l0.1,0.6l-1.1-0.6v-1.1l-0.3,0.4
		l-1-0.3l-1.7,1.6l-1-1.6l0.1-1.3l-0.6-0.3l-0.1,0.9l-0.7,0.1l0.3-0.7l-0.7-0.1l0.9-1.3l-1.4,0.3l-0.4-0.3v1.4l0.9,1l-0.4,1
		l-0.4-0.6l-0.9,1.1l-1.7-0.6l-2,1.6l0.1,0.6l1.6-0.4l-0.9,0.7l0.4,0.3l-0.3,1l0.6-0.4l-0.3,0.9l1.6-1.4l-0.1-0.6l0.9,0.4l-0.1-0.4
		l0.6-0.7l0.1,0.9l0.4-1.3l0.4,0.4l0.4-0.4l0.4,0.6l-1.4,1.7l-0.9-0.7l-1.1,0.7l-0.1,0.3h0.7l-0.7,0.3l0.4,0.7l-0.6-0.4l-0.9,1h0.6
		l-0.1,0.7l0.6-0.3l-0.4,0.4l1.1,0.3l2.2-2l0.3,0.6l1.1,0.3l-0.1-1.3l0.4,0.4l0.1-0.4l-0.3,1.9l1.6-0.4l-1.6,0.7l-0.4,2.4l4.8,3.3
		l-4.2-2.7l-1,0.3l0.1,1l-0.3-0.3l-0.1,0.7h-0.6l0.1-1.4l-0.6,0.7V127h-1l1.2-0.9l-0.7-1l-0.4,0.6l-0.1-1l-0.7,0.1l0.1-0.6l-1.4-0.6
		l-0.1,0.6l-1-0.1l0.3-1.6l-0.6,0.7l-1-0.7l-0.7,1.6l-0.6-0.1l1-1.1l-0.6-0.6l-0.4,0.4l0.3-0.4l-0.7,0.1v-0.7l-0.4,0.7l-0.6-0.7
		l-0.3,1.3l0.7-0.1l0.3,0.6l-1.1,0.1l0.1,0.9l1.1-0.4v0.4h1l-1.9,1.1v1.4l0.6,0.3l-0.3,0.6l-0.7-0.3l-0.3-1.3l-0.3,2.6l-0.3-0.6
		l-0.9,0.6v-0.6l-0.7,0.1l-1-0.9l-1.7,1l1.2-0.4l0.4,0.9l-0.9-0.4l-0.3,0.9l-1.2,0.4l0.4,0.7l-0.6,1.3l0.4-0.9l0.1,0.4l0.6-0.3
		l-0.4,0.7l0.6,0.7l-0.7,0.6l-0.4-1l-0.1,1.3l-0.7-0.7l-0.3,0.6h0.6l0.3,1.3l0.6-0.1h-1l1,4.2l0.3-0.7l0.4,0.4l0.3-1.7l0.1,1.3
		l0.7,0.7l-0.1,1.6l0.3-0.6l0.6,0.1l-0.3,1.9l2.4-5l2-1.7l-0.7,1l1-0.3l0.1-0.9l-0.1,0.9l1.6,0.4l-1.3,0.3l-0.7,1.2l0.3,0.6
		l-0.9-0.7l-1.1,1.1l0.4,0.7l-0.4,1.3l0.9,0.3l-1.2-0.1l-0.3,0.7l0.6,0.7l-1-0.2l0.4,2.3l0.6-0.1v-0.9l0.3,0.6h0.6l-1.3,0.9
		l-0.9-0.1l-0.9,1.4l0.6,0.7l0.9-0.1l-1.4,0.6l0.4-0.6l-0.6-0.4l-0.1,0.4v-0.9l-1.3-1.3l0.4-0.7l-1-0.3v3h0.3l-1.3-0.1l-0.4,1.1
		l0.9,0.4l-0.6,1.2l0.6,0.6l-0.3,1.1l1,0.4l4.2-1.4l-0.3,0.4h2.7l3,1.7l2.3-0.1l1.1-1.9l0.7,0.7l-0.6-0.1l-1.1,1.3l-2.2,0.9l0.3-0.4
		l-2.3-0.9l-7.3,1.1l-1.7-1.6l-1.1,2l1.3-0.3l0.9,1.9l1.6,0.1l-0.4,0.1l0.6,0.7l-1-0.9l-0.6,0.1v1l0.6,0.1l-0.6-0.1l0.1,0.6
		l-0.3-0.4l-0.4,0.7l0.3-1.6l-0.7-1.6l-1.6,0.7l-2-0.1h1.6l0.6-0.7l-0.1-0.6l-2.6,0.3l-0.9-1.6l-0.4,0.3l0.4-0.6l-0.4-0.9l-1.4-0.6
		h-2l-0.4-0.4l-0.6,0.3l-2.3-1.3l0.1,0.6l1.1,0.4l-0.3,0.3l1.7,0.7l-0.4,0.4l-0.6-0.7l-1.1,0.6l1.4,1.9l0.9,0.3l-1.4-0.3l0.6,1
		l-0.4-0.3l-0.9-0.9h0.7l-2-1.6l0.9,1.3l-0.9-0.1l0.6,0.3l-0.6-0.1l0.4,1.9l-0.9-0.3l0.3,1l-1-2.3l1.1,0.3l-0.4-1.2l-0.7-0.3
		l-0.4,0.6l-2.4-1.9h1l-0.1-0.4l0.9,0.6l-1.2-1.9l0.9,0.9v-0.4l0.7,0.1l-0.7-0.4l0.4-0.4l-2.7-1.3l0.7,0.7h-0.4l0.3,0.3l-0.4-0.4v1
		l-0.4-1l-1,0.7l-0.7-0.3l0.4,0.7l-0.6-0.6l-0.7,0.1l1.2,1.6L230,148l-0.4,0.3l0.2,0.9h1l-0.9,0.1l0.7,0.3l-0.3,0.3l1.2,0.4
		l-1.3-0.3l0.4,0.3l-0.6,0.6l-0.4-0.4l-0.1,0.4l1.4,1l0.7-0.1l-0.4-0.9l1.7,1.1l0.4-0.3l0.3,1.3h0.4h-1.4v0.3l-0.1-0.6l-0.7,0.1
		l1.3,1.3h1l-2.3,0.3l-0.1,0.4l-0.6-0.9h-1.7l1.3,0.7l-2.2-0.3l4,1.3l0.1,0.6l-1.9,0.3l1.9,0.4L231,157l-3.2-1.1l-0.3,0.1l0.9,1
		l-1.7-0.1l1.2,0.3l1.2,2l0.1-0.9l0.7,0.1l-0.4-0.7l1.6-0.3l1.2,0.7H231l0.6,0.9l-0.3-0.6l-0.9,0.3l-0.3,0.6l0.6,0.6l-1.7,0.4v0.6h3
		l1.6,1.7l0.7-0.6v0.6l0.7,0.9l-0.2,0.7l0.9,0.7l0.1-0.7v0.7l0.4,0.3l-0.7-0.3v0.9l1.1,0.9l2-1.4l1.4-0.3l-0.6-1.6l0.7,0.7l0.3-0.9
		l-0.3,0.6l0.6,0.3l-0.6,0.3v0.9l-3,2.7l1.3,0.1l-0.6,0.4l0.7,1h0.4l-0.6,0.3l-1.2-0.9l-0.9,0.3l0.7,1.6h0.7l-0.7,0.1l0.4,1.6
		l1.4,1.6l0.9-0.1l0.4,1.7l-0.6-1.4l-1,0.3l-1.4-0.9l-2.9-3.3l-0.6,1l-0.3-0.9l-0.4,0.1l-0.3-1.3l0.6,0.1l-0.9-0.4l-0.7,0.6l0.6,0.4
		H232l-0.1-1.2l-0.9,1.7l0.6,1.6l2.7,2.9l-1.3-0.7l0.4,1l-0.9-0.9l-0.3,3.7l-0.7,0.9l-0.1,1.1l0.9,0.4l-0.9-0.1v0.6l1,1.7l-0.1,2.2
		l-0.6,0.3l0.1,0.6v-2.7l-0.9,0.1l0.7-0.4l-0.7-0.6l-1,0.3l0.4-1.4l-2.2-2.3l-0.4-0.6l-1.3,0.1l0.4-0.3l-0.3-1.9l-1.3-2.3l-1.1-1
		l-0.3,0.3l-0.3-2.3l-1.2-1.6l-1.9-0.9l-0.6,0.1l1-1.9l-0.7-1.4l-0.9-0.3l0.3,0.6l-0.6-0.4l-0.3-1.1l0.7-0.4l0.1-1.3l-0.7,0.7
		l-0.7-0.3v-0.9l-0.1,0.9l-0.6-0.1l-0.4-1.7l-0.4-0.4l-0.7,1v-0.9l-1-0.6l1.3-1.7h-1l0.6-0.9l-0.3-0.6l0.7-0.4l0.7,0.6l0.9-1.1
		l-0.6,0.3l-1-0.9l0.4-0.3l-0.4-0.6l0.4-0.6l-1.7,1.3l-1.2-0.1l-0.6,1.4l0.2,1.3l-1.2,0.7l0.7,0.4l-0.6-0.3l-1.6,1.6l0.4-0.9
		l-1.2,1.6l-0.4,2.3l0.6,0.7l0.4-0.4l-0.1,1l1.4,1l-1.2-0.7l0.2,0.6l-0.3-0.4l-0.6,0.4l0.2-0.6l-0.6,0.9l-2.6,0.9l-0.6-0.9h-0.9
		l-0.6,1.3l0.6,0.4l-0.6-0.1l-0.3,0.9l1.9,2.9l-2.3-0.3l-0.9-1.3v2.2l-0.9,0.3l0.6-1.3l-1,0.7l-1.4,1.1l0.9,0.4l-0.7-0.1l-2.6,2.7
		l0.3,0.9l0.9-0.7l-0.3,0.4h0.7l-0.9,0.3l0.9,0.3l-1-0.1l-0.7,0.4l-0.9,2.2l-0.9,0.7l-0.4,2.4l0.2,5.5l1.6,2.9l0.1,2h1l-1,0.4
		l0.6,4.3l-0.9,1l1,0.9l0.9-2l0.1,0.6l2.4,0.1l0.6,0.4l0.1,2.9l-1.3,2l-2.4,1l-0.4,1.6l-0.1-0.7l-1.4,2.2l-1.6,0.6l-1,1.9l-1.6,1.3
		l-2,1.2l-0.7-0.7l-0.6,0.3l-0.6,1l0.3,0.6l0.4-0.4l-0.4,1l-0.3-0.7l-1,1.9h0.6l-1,0.1l1.6,0.9l0.3,1.2l-1,0.6l-0.3,0.9h-1l-0.4,0.6
		l-1.1-0.3l-0.1,0.4l-0.3-0.4l0.1,1l0.9,0.6v1.7l-0.2-0.4l-1,1.6l-0.4,2l0.6-0.3l-1.1,0.3l0.3,0.7l-1,1.9l-0.2,1.6l-4,7.1l-2.6,3.3
		l-6.2,5.2l-17.9,9.4l-5.8,1.1l-3.5,1.4l-1.6-0.3l0.1,0.6l-0.3-0.3l-0.6,0.4l0.4,0.1l-0.4,1.3l-0.9,0.3l0.4-1.3l-0.9,0.4h0.4l-0.6,1
		l-2.6,1.6l0.3-0.4l-2.6-1.6l-0.4,0.4l-1-0.4l-1.1,0.7l0.1-0.7l-4.7-0.4l-0.3,1.6l1.3,0.4l-1.3-0.3l-0.6-0.9l-1.2-0.4l-0.6,1.6
		l-2,0.9l-0.3,2.3l-2.2,2.9l0.6,0.9l-0.7-0.6l-0.7,1l1,0.3l-2.3,0.1L117,269l0.6,0.4l-0.4,0.1l-0.1-0.7l-0.6,1l-0.3,0.1l0.3-0.6
		l-1.2,1h-0.7l0.4-0.3l-0.4,0.1l0.3-0.3l-0.4-0.4l-1.6,0.4l1,0.1l-0.7,0.4l0.9-0.1l-0.9,0.3l0.9,0.1l-0.6,0.4l-0.4-0.6l0.2,0.7
		l-1-1.3l-0.4,0.9l0.1-0.9l-0.7,0.6l0.1,0.6l-0.6-0.6l-0.2,0.9l-1.3-0.3l-0.4,0.7l-1-0.3l-0.2,0.7l-0.4-0.3v-0.9l-1.4,0.7l0.6,0.1
		l-1.3,0.1v0.6l-1-0.1l-0.4,0.7l-0.6-1.4l-3.9,4l-1.6,0.7v1.1l0.7,0.3l0.2-0.4l0.1,0.4l-1.3,0.1l-0.2,1l-0.9-0.6l-0.2,0.4l0.4,0.1
		l-2.6,2.6l0.6,0.4l-0.7-0.3l-1.7,1l-0.3-0.7l-0.1,0.9l-0.3-0.6l-0.4,1l-0.1-0.9l-0.6,0.3l0.4-0.7l-1.3,0.6l0.3,0.7l-0.9,0.1v0.6
		l-0.1-0.6l-2.5,0.9l-0.3,1l-0.1-0.7l-0.9,0.1l-0.1,1.3l-0.4-1.1l-0.4,1.1l-0.6-0.3l0.6-0.1v-0.6l-3.5-0.3l-0.6-0.7l-0.1,0.6
		l0.3-0.9l-0.6-0.1l0.4-0.7l-0.6-1l-1.2,1.7l-0.9-0.7l-1.1,1.4l-0.2-0.6l-1.2,0.4l-1.3,2h-2.3l-1.3-1l1.4-4l-1.3,0.3l-0.6,1.4
		l0.4-0.1l-1.2,1.4l0.4,0.1l-2.7,2.5l0.7,0.3l-0.2,0.4L66,288l0.3,0.4l-2,0.3l0.6,0.4l-0.6-0.3l0.2,0.7l-0.7,0.9l-1.2,0.4l0.4,0.4
		l-1.6-0.3l-2.6,2h-1l0.3-0.6l-1.3-0.4l-0.3,1.4l0.7-0.1l-0.7,0.6v2l-4.5,2.5l-1.3,1.6l-0.3-0.3l-1.6,3.6l-0.3,1.1H49l-1.2,0.1v0.6
		l-0.6-0.4v0.4l-0.3-0.4l-0.3,1l-0.9-0.1l-0.3,1.1l-0.6-0.3v0.9l-1,0.3l0.4,0.7l-0.7-0.1l-0.3,0.6l0.4,0.1l-0.4,0.4l-0.1-0.6
		l-0.7,1.1l0.3,0.3l-1.2,0.7v2.2l-0.2-0.6l-0.4-0.1l0.4,0.7l-0.6-0.4v0.9l-0.3-1l-0.4,1.2l-0.2-0.4l-0.9,0.1l-0.3,0.4l0.6,0.1
		l-1.7,0.9l0.3,0.4l-0.4-0.3l-1.9,0.7l-0.1-0.4v0.7l-1.2,0.3l0.4,0.4l-0.7-0.4l-0.9,1.1l0.4,0.4l-0.6,0.1l-0.6-0.9l-1.6,1.7h-1.7
		l-0.9,1.4l-0.3-0.9l-0.6,1.1l0.2-0.6l-0.9,0.9l0.3,0.1l-3.4,2l-0.7,1l0.1,0.9V324l-0.9,0.4v1.7h0.4l-0.9,0.6l-0.1,2l-0.3-0.3
		l-0.3,0.7v-0.4l-0.7,1.6l-0.6-0.7l0.3-0.4l-0.7-0.1l-0.3,0.4l1.3,1.1l-0.7,0.3l0.2,0.4l0.4-0.3l-0.4,0.9l0.4,0.7h-0.7l0.4,0.7
		l-1.4,0.3l1.3,1.4l-0.4-0.4l-0.7,0.1l0.7,1h-0.9l0.6,0.6l-0.7,0.1l0.9,0.4l-0.1,0.4l0.6,0.6l-1-0.7l-0.7,0.9l1.2,0.6l-1.3,0.4
		l0.6,0.7h-0.6l0.6,0.9l-0.7,0.4l0.7,0.6h-0.6l-0.4,1.4l-0.4-0.6v1l-0.7-2.2h-1l-1.2,0.9l-0.3,1.4l-1,0.6l-0.6-0.6l-0.6,0.7l0.4-0.7
		l-0.6-2.2l0.6-0.4h-0.6l1.2-1.4l-0.2-1.3l-0.9,0.3l-0.7,1.3l0.3-2.5l-1.6-2.5l0.6-7.9l0.9-1.4l-0.7-0.7l-1.7,1l-2,2l-1.2,2.7
		l-1.6,9.8l-1.3,2.3L1.9,346l-1.3,1.7l1.2,2l-0.2,1.6l1.9,0.3l2.7,5l0.4,2.3l-0.3,1.3l-1.2,1.1l1.4,4.3l0.3,4.9l-0.4,1.4l-2.9,3.2
		l-0.7,3.5l-0.8,1l-0.2,1.7l-0.7,1.4l0.3,2.9l-0.9,1.1l1,3.6l-1,1.3l1.4,6.6l5.9,5.8l0.6,1.6l0.9,0.1l-0.7,0.6l-0.1-0.6l-0.2,1
		l0.9,0.4l0.1,1l0.3-0.4l0.7,0.9l-0.4,0.9l0.4,1.9l1.9,2.2l2.4,1.1l0.4,1.9l0.6,0.1l-0.3-0.4l0.9,1l1.9,3.7l2.6,2.5l0.9,2.2l3.3,2
		l-0.6,0.6l0.6,1l2.7,0.6l-0.3,3.2l1.2,1l-2.2-0.1l1.7,2.2l-0.1,0.4l-0.7-0.7l1,2.2l-0.4,0.3l-0.3-1l-0.6,1.9l1.7,3.5l-0.7,1.7
		l-0.7,0.2v0.7l-1.7,1.7l-2.9-2.7l-0.4-1.3h-0.4v-1l-0.7,0.1v-0.9l0.6,0.6l-0.6-1.2l0.2-1.6l-0.9-0.3l-0.9-4.2h-0.6l0.3,0.7
		l-0.6-0.7l0.9,2.7l-1.3,3.5l-0.6,1l-0.6-0.4l-0.7,0.3l-1.3-4l0.7-0.9l0.1-3.5l-1-0.4l-0.3-1.9l-2.9-1.4l-1-2l-1.2-0.1l-1.2-2.7
		L6.9,428v2.7l1.6,1.3l-0.9-1.4l0.1-1.2l0.3,0.1l0.3,3.2l1.4,0.9l0.3,1.9l1.2,0.4l1,3.8h1.3l-0.3,0.1l1.7,1.6l0.3,1l3.3,0.7l1.7,1.6
		l0.7,3.7l-1,2.2l0.4,0.9l-0.7-0.3l-0.1,1l-1-0.6l-0.6,1l0.3,0.9v-0.7l-0.9-0.4l0.3,0.9l-0.3-0.3l-0.3,0.6h0.4l-0.1,0.7l-0.2-0.4
		l-0.9,0.4l-0.1-1.9l-0.6,0.4l-0.7-3.7l0.1,1.9l-0.4-1.2l-0.3,1.9l1,1.4l-0.7,0.9v-1.2l-0.1,0.7l-0.4-1.3l-0.2,0.7l-0.3-0.3l0.3-2.5
		l-0.7-0.7l-0.3-3l-0.9-1.7h-0.7l-0.3,0.9l1.2,1.3l-0.3,2.5l0.3,0.7h-0.7l-0.1-3.8L9.4,442H9.1l-0.3-0.9l0.2,1.3H8.5l-0.2-1.7
		l-1.2-2.2l1.3,5.2l-0.6-0.1L7.5,446l1.7,2.5H8.8l-0.6-1.7l-0.7,0.4l0.3-0.9l-0.9-1.7l-1-5.6l-0.4,0.4l0.6,5.5l-0.7-1.4L3,443.1
		l3.3,3.2l0.9,2.6l7.5,5.6l5.8,5.9l6.9,8.8l3.3,5l2,4.9l0.2-1.7l0.3,1.2l-1.2,4.6l2.7,6.5l1.9,1.7l2,0.9l3.3,3.8l2.6,2.2l2.6,4
		l0.4,2.7l-0.7,0.6l0.9,0.1l0.9,2l6.3,5.3l1.7,3.3l2.7,5.9v5l1.3,4.3l0.3,4l-0.2,1.3l1.6,2.5l0.1,2l0.9,0.1l0.4,0.9l-0.4,1.2
		l0.7,0.4l1.1,3.4l-0.2,0.9l1,1v0.7l3.2,5l0.1,1l1,0.4l2.5,2.9l4.3,7.6l1.4,1.4l0.7-0.2l-0.6,0.4l6.5,8.8l1.6,4.6l0.1,3.7l0.9-1
		l-0.3-0.7h1l0.6-1.1h0.9l-0.9,0.3l0.6,1.6l0.7-0.4l-0.7,0.7l-0.4-1l-0.6,0.7l-0.7-0.3l-0.9,1.3l1.3,3.3l-0.3,2l-1.3,0.3l1.6,1.4
		l-0.4,1.2l0.9,0.9l0.3,1.7l-0.3,2l-0.6-0.7l-1.2,2.3l-0.3,1.9l3.6,10.1l0.7,6.2l0.3-2.9l0.4,2.7l-0.7,0.7l-0.7-0.3l-1.4,5.8
		l-2.9,3.8l-3.5,0.9l-1.7-0.4l-1.3-1.4l-1.7-0.6l0.9,2.6l-0.9,1.9l1,2.5l-0.2,1.9l1.4,6l1.4,2.2v1.6l3,2.7l0.6-1.2l-0.9-1.1l1.7-1
		l-1.2,1.3L85,646l1.9-0.7H89l7.5,3l0.9-0.4l-0.7,0.6l7.1,5.2l1.6,2.9l3.6-0.3l4.8,1.4l1.3-0.7l-1-0.6l0.4-0.6l2.7,1.7l-3.3,0.3
		l2.7,1.6l0.9-0.4l2.4,1.2l1.2-0.9l1.2-0.1l-1-0.6l0.6-0.6h0.6l-0.3,0.9l1-0.4l1.7,0.9l1.3-0.1l0.6-1.2h3.3l1.2,0.6l0.6-1.3l3.2,0.3
		L135,657h0.7l3,1.4l1.4-0.4l1.4,1.2l0.6-0.2l-0.2-1.7l0.7-0.7l2.2,0.2l2.7,1.3h1.1l0.4-0.9l1,0.1l-0.6-0.6l-1.3,0.3l-0.6-1.2v1.2
		l-1.4-0.7l0.1-0.6h1.3l0.3-1.2l-0.6-1.3h1l-0.1-0.9l0.3,1.7l-0.6,0.6l0.7,0.3h1.4l1.3-1.2h1.1l0.7,0.9l0.3-1.2l-1-0.6v-0.6l3.2-1.7
		l1.6,0.4l0.3-0.7l-0.6-0.3l-0.1-0.9l0.9-2.6l5.5-3.2l1-1.4l-1-0.7l0.4-1.2l1.4-1.2l1.6-0.2l-1.4-1.3l1,0.4l3.6-0.7l3.5,0.6l0.1,0.9
		h0.7l0.6-0.7l-0.1-1.6l1.1-0.3l0.7,0.9l0.9-0.7l-0.7-0.9l0.4-1.3l1.4-0.1v0.7l0.4,0.1l1.6-0.9l-1.6-0.6l-0.4-1.7l-0.9,0.2l0.9-0.2
		l1.3-3.7l1-1.7l2.6-1.7l0.7-1.6l2-0.6v-0.9l0.3,0.1l-0.3,0.6l0.9,0.1l1.1-1.3l0.7-0.3l1.9,0.6l2.6-0.9l4.2,0.7l2.6-1.6l-0.1-0.6
		l0.7-0.4l4.9-0.6l1.2-1.2h3l2.2-0.9l1.6,0.7l0.4-1h1.4l0.7-0.9l1.6-0.3h3.9l2.3,1.6l1-1.2l2.2,1l2.3-1l0.1-1l1.9-0.4l1.9,1.4
		l1.3,3.3l2.2-0.4l0.1-0.7l1.3,0.3l-0.3-1.3l1.7-1.4l2,0.1l1.1,0.7l0.9-0.6l0.6,0.7l0.4-0.7l-0.3-0.6l0.6-0.6l2.9-0.3l0.7-0.6
		l1.2,0.9l2.6-1.3l0.6,0.3l0.7-0.9l2.4,0.9l0.9,1.2l-0.3,0.7l0.7,0.4l-0.1,0.7l2.6-1.2l1.6-2.5h2.3l1.4,0.7l0.7-1.4l1.3-0.3l0.4-0.9
		l2.2-1.6l-0.4-0.9l0.4-1.6l2-1.9l-0.1-0.9l2.2-1.4l0.6-5.3l1.7-6.2l2.2-3l3.6-2.2l6.1-1.4l2.9-1.3l4.2-3.9l1.6-0.6l4.3-3l4.9-2
		l6-5.6l3-2l2.6-0.4l2.9-1.4l4.5,1l6.3,0.3l11.8-1.6l6.5-2l4-2.2l7.6-2.3l5-2.3l7.9-3.9l6.9-4.6l23.2-3.6l6.2-0.6l11.7,0.6l4.6-1.9
		l3.3-2.2l13.1,5.9l7.8,5.6l3,2.9h3l1.9-0.9l1.1,0.7l-0.9-0.9l0.3-0.6l1.4-1l3.3,0.6l1.9-0.3l5,3.2l0.3,0.9l0.6-0.6l1.2,0.6l1.9,1.9
		l-0.3,0.9l0.6-1l2.2,1l0.9-0.7l2.6,0.4l0.9-0.6l1,0.7l-0.4-1.1H481l1-0.1l-1.3,0.1l0.3-0.6h-0.4h1.1l0.1-1l1,0.7l-0.1,0.6l0.6-0.3
		l0.6,0.9l0.9-0.9l0.1-1.3l1.6,0.3l0.1,0.9l-0.6,0.3l1,0.3l-0.3,1.2l1.9,0.1l0.1,1.6l1.2-0.9l2.9,3.9l-0.4,1.1l-1.4-0.7l-0.3,3.9
		l1-0.1l0.6-1.2l1.6,0.3l1-1.3l1,0.3l0.7-0.4l1.4,0.7l1.9,2.6l0.6,3l-1.7,2.6H498l0.1-1.2l-0.7-0.4h1.2l-3.6-0.3l1.7,3l-1.7,1.9
		l0.4,0.6l0.9-0.4l0.6,0.9l0.9-0.4l0.4,0.9l-0.3,1.3h-1l0.6,1.1l0.6-0.6l0.7,0.1l0.7,2.9l1.6,1.3l0.6-1.3l-2-1.7l0.3-1.6l0.3,1.3
		l1.4,1.4l0.3,1.2l1.9-0.7l3,1.6l0.9,1l0.7-0.4l-0.7-0.3l0.3-0.9l-1,0.3l-0.9-0.9l0.9-0.6l2.3,1l0.4,1.3l-1.4,0.1l3.2,2.6l1.3,4.8
		l-0.7,3l1,0.3l6.8,6.5l1.9,3.6l0.1,2.7l-0.9,0.7l1.4,1l0.7,2l0.3,4l0.6,0.6l0.1,1.4l-0.4,0.6l0.3,2l0.7,0.3l-0.4-0.3l0.4-1.2
		l-0.6-0.4l0.1-0.7l0.3,1l0.7-0.1l-0.3,1.9l0.9,0.3l-0.6-0.6l0.3-0.3l1.2,0.7l-3.2,0.7l0.7-0.4l-0.9-0.1l-0.1-1.2l-1.2-0.7l0.4-0.7
		h0.7l-2.9-0.7l-0.3-1.7l-1.4,1.9l-0.7,2.3l0.7,0.2l0.7-1l1.6-0.1l2,2l0.1,1l-0.6,0.6h1.2l2.2,1.6l3.2,4.3l-0.1,1h1.4l0.6-2l1.6-0.1
		l1.4,0.6v1.2l1.7,0.7l0.4,1.4l1.2-0.6l-0.9-3.6l1.2-1.4l-0.1-1.4l-0.6-0.1l-0.1,1.4l-0.4-0.9l-1.3,1.3l-2.4,0.1l1.3-1.4l0.4,0.4
		l0.7-0.6l-0.9-1l0.1-1.3l0.4-1.1l1.3,0.7l-0.1-0.9l-1-0.6h0.4l0.6-1.6l1-0.6l1,0.3l0.2-0.9l0.7-0.2l0.7,1.6l0.6-1.9l-0.4-1.3
		l0.7-0.3l-0.4-1.2l2.7-1.6l2.2-3.2l0.7-2.7l4.8-3.3l0.4-1.2l8.1-3.6l0.3-0.4l-0.9-0.3l-0.4,1l-0.7-0.1l-0.1-0.7l1.2-0.7l0.3-0.9
		l1,0.1l-0.3,0.4l0.7,0.2l-0.1,0.7l3.7-0.9l1.2-0.7l2.3-4.8l1-0.9l2.3-7.9l2-1.2l2.3-3.6l3,1.3l-0.6-2l1-0.7l0.4-3.9l-1.3-1.2
		l0.4-6.5l0.3,2.7h1l-0.4,1.3l1,0.9l-0.3,1.4l2,1.7l-0.9,0.4l0.9,5.8l1.7,1.1l0.6,1.4l-0.9,2l-0.1-1l-1.3,0.6l-0.6,0.9l-0.4-0.6
		l-1,0.6l-0.3,0.9l-0.1-0.6l-0.4,1.2l0.6,0.4H578l0.9,1.7h0.7l-0.3,1.9l1.4,2.9l-0.1,1.2l0.9,0.2l-0.4,0.4l-0.6-0.4l-0.4,1.9
		l-0.4-0.1l0.7-0.9l-1.1,0.3l-6.3,7.1l0.6,1.2l-2.3,2.2l0.9,1l-1,2.3l-1.7,0.1l1.2,2.3v1.9l-0.7,2.5l-0.7,0.1l-0.7,1.4l0.4,0.6
		l0.4-1.2l0.7,0.3l-0.3,2l0.7,2.2l-1.6,8.1l-1.6,1.2l-2.2-1.6l-3.6,0.6l-2-0.7l-1.2,2.7l-0.9,0.7l0.7,1.4l-0.6,1.3l-1.2,1.3
		l-0.9,0.1l-0.6,1.4l1.3,1.4l1.3-0.3l1.4-1.6l3.6,0.4l1.4-1.9l2,0.1l0.6-1l1.6-0.7l2.6,0.6l1.7,1.4h0.9l1.9-1.4l-0.6-1.4h-0.4
		l1.1-0.4l1.2-4.6l1.3-2.2l1.1-4.3l-0.7-0.6l0.3-2.2l0.9-2.2l2-2l0.1-3l1.9-2.6l1.4,2.6l-0.4,1l0.8,0.2l0.9,1.2l0.7,4.3l1.4,1.2
		l0.6,1.7l0.9,0.4l0.9,2.6l1.7,1.1l0.6,2.3l-0.4-0.4l-0.4,0.4l-0.1-0.4l-0.4,0.9l0.4-2l-0.7,0.3l-0.3,2.2l0.7,4.6l-1.2,2.2l-0.9,6
		l-2.2,1l-2.3,2.7l-1.6,0.4l-1.7,2.2l0.1,0.7l2,1l1.9-0.6l5.2,0.3l1.9-1.1l0.6-1.3l1.7-0.9l3.6,1.4l-1.4-1l1.4,0.7l0.1-0.4l0.6,0.9
		l0.9-0.2l5.2,4.3l3.5,3.3l0.6,1.4l0.4-0.1l-0.3,0.7l0.7,0.6l-0.3-1l0.6,0.6l2,2.7l0.7,2.5l0.9,0.7l-0.3,0.1l1.4,3.9l-3.2-6.5
		l-3.8-5.2l-7.5-7.3l-2.2-0.7l3.5,2.5l5,4.9l3.6,4.8l3.3,6l2.5,6.6l1.3,6.2l-0.7,3.5l-1.3,1.4l-2.6,1.6l1.4,1.9v1.3l1,1.4l-0.3,0.9
		l-0.9-0.3l-0.1,0.7l4.9,8.3l1-0.3l1.4,1.4l-0.1,1.3l2.7,3l2,4.9l0.4-0.7l-0.7-0.7l-0.9-2.7v-0.9h0.6l1.2,3.2l0.1,1.7l-0.9,0.2
		l0.7,1.4l5.2,3.9l3.6-0.3l3.5,0.6l3.5,2.5l3,3l1.2,2.2l-0.7,1.3l0.7,0.6l0.7-0.9l1.7,0.9l0.3,1.2l0.9-1.2l1,0.6l0.6-0.4l-0.9-1.9
		l1.7-1.3l1.6-0.3l3.7,1l3.9,3.2l2,0.3l0.7-0.9l2.2-0.1l1.9,1.6l0.9-0.1l6.6,6l0.6-0.2l-0.3-0.7l0.3,1l2.6,0.6l1.7,1.2l2.5,2.9
		l2.6-0.1l1.3,0.9l1.4,2.2h1l2.5-1.7l0.4-1.1l3.9-1.4l4.3-4.8h1.3l0.7-0.9l2.4-0.9l1.9-1.7l2.2-0.9l1.4,0.3v-0.7v0.6l0.9-0.3
		l1.4,0.7l1-0.3l0.6-0.6l-1.2-0.1l1.3-1.3l0.3,0.6l0.6-1.2l-0.4-1.6l-1.2-0.3l-1.7,1l-1.6,0.1l-1-1.1l-0.3,0.9l-1-0.4v-1l1.3-1.2
		l-0.1,0.7l1.3-0.1l0.6,0.4l0.3-1.2l6.2-2.6l0.6-1.3l1.2-0.3l0.6,0.4v-0.7l0.4-0.2l1,0.6l0.9,3.7l0.6-0.1l0.6,0.9l0.3,3.2l-2.2,1.7
		l-1,2.5l-1.6,0.9l-2.2,0.4l-3.3-2.2l3.5,3.8l0.9,1.9h3l0.4-1.3l1.7-1l2.2,0.7l-0.9-1h0.7l-0.3-2l0.6,0.1l1-2.2h1.4l-0.6,0.3
		l0.4,0.3l0.4-0.4l2,0.1l0.9,0.6l0.6,1.7l-0.3,1l0.7,0.4l-0.3,1l-0.7,0.7l-2-0.6l0.1,2.5l-1.6,0.4l0.1,0.4l2.2,0.7l2.2,3.7l2.9-1
		l1.7,0.4l0.3,1.3l-0.7-1l-1.4-0.6l2.3,3.7l0.7,3.6l1.6-0.6l0.1-1l0.9-0.7l2.7,1.6l-0.9-1.4v-0.6l0.7,0.3l1.6,4.9l-0.4,0.4l1.4,1.3
		l0.3,0.7l-0.6,0.7l0.9,1.3l1.2-0.1l0.3-1.6h1v-1l-0.9-0.3l1.6-2.6l0.1-3l-0.7-0.6l-0.7,1.9l-2.6,1.2l-0.1-2.7h-0.9l-0.7-1.7l1-1.2
		l1-0.2v0.6l1.7-0.7l0.9,1.3l1.9-0.7l1.3,0.6v0h0.6v0.6l0.1-0.6l1.3-0.2l0.1-0.6l0.3,0.4l-0.4,0.3l1,0.1l0.4-0.6l1.3,0.4v-0.9l1-0.4
		l1.6,0.3l0.6-0.4l-1,1l17-13.2l4.5-2.5l3.7-1l-2.9-0.1l-0.6,0.7l-0.9,0.1v0.4l3-0.9L779,725l-1.3,1l0.6-1.2L775,727l-2.5,0.3
		l0.4-1.3l1.3-0.4l-0.6,0.6l1.2,0.2l2.3-1.7l0.7,0.1l-0.3-0.4l0.9-0.3l-0.7-0.1l1,0.1v-0.9L778,723l1.3-0.7l-1.4,0.6l-0.3-1l0.3,0.6
		l1-0.6l1.4,0.4l1.2,1.4l0.4-0.6l1.7,0.4l2.9-0.3l-0.3-1.1l0.6,0.7l0.6-0.9l0.4,0.4l-1.2,0.9l5.3-0.7l7.9,1.3l1.7-0.6l6.3,0.6
		l2.5,0.3l0.9,0.9l1.7-0.6l2.7,0.4l0.7-0.7l-0.1-0.7l0.1,0.7l3.6-1.2l2.5-2.6l-0.1-0.9l-0.4-0.7l-0.7,0.1l0.7-0.3l-0.9-0.7l1.3,0.3
		l-0.1,0.9l0.6-0.2l0.1-0.7h0.9l-0.7,0.9l0.3,0.3l-0.9,0.7l4.3-0.6l0.6-1.9l-0.3-1.9l0.7-1.3l-0.4-1.3l1.2-0.9l1.2,0.7l-0.6-1.3
		l0.1-2l-1.3-1.3l-1.3,0.4l0.7-0.1l-0.6-0.9h0.9l0.3-0.7l0.3,0.3l0.4-1l-0.4-0.3l0.6-1.4h-1l0.4-0.2l0.3-1.4l-0.7,0.6l-0.1-0.7
		l1.3,0.4l0.9-2.9l-0.7-0.3l1,0.3l0.6-2.2l2.5-3.6l0.7-4l2.2-3.2v-1.4l-1.3,0.2l1.3-0.2l0.7-3l-0.4-1l-0.7,0.1l0.6-0.9l0.6,1
		l0.9-1.9l0.4-2.2l-1.4-0.3l0.1-0.3l1,0.4l0.3-0.9l0.9-0.3l-0.3-0.9l1.2,0.6l0.3-1.6l-0.4-1.7l-1-0.6l2.6,1l0.7-1v-1h0.6l2.3-2.6
		v-1.7l1.4-1.3l-0.1-0.7l0.1,0.4l1.2-0.7v-1.1l-0.4-0.6l2-1.1l-0.3-0.7l1.6-0.6v-0.6l2,0.1l0.1,1l1.4-0.6l0.3-1.2l-0.9,0.2l-0.6-0.6
		l0.3-1.2l-0.6-1.4l0.1,0.4l1.6-1l0.7,0.4v-0.6l0.3,1.4l-0.6,1.1l0.6,0.6l0.9-0.7l0.4-1.6l-0.9,0.2l-0.3-1.9l-0.6,0.4l0.1-0.7h0.6
		l-0.1-1l-0.7,0.3l0.3,0.4H854l0.9-0.3l-0.3-1.2l-1.2-0.7h-1.3l2.6,0.4l2.2-2.3l0.4,0.4l1.3-2.7l-0.3-1.3l1.4-0.4l-0.6-0.3V645
		l-1.4,0.4l-0.1-0.4l0.6-1l1-0.4l0.7,0.3l-0.6,1.3l1.3-1l-0.7-1.3l0.3,0.3l0.3-1.4l0.9-0.7l0.1-1.3l1.9-2.3l4.5-2.9V634l-1.7,0.2
		l0.1-0.9h-0.7l1.2-0.3l-0.1,0.7l0.9-0.3v0.4l0.6-0.7l1.3-0.1v-0.7l-1,0.4l-0.3-0.7l-0.6,1l-0.7-1.2l-1.3,0.3l0.6-0.6l-0.7-0.3
		l0.7-0.3l-0.1,0.4l0.7-0.1l0.4,0.6l0.4-0.3l-0.1,0.6l1-1.9l1.6,2.2l0.7-0.9l0.9-3.5l-0.4,0.9l-1.4-0.6l-0.7,0.3l0.4-0.6l-1,0.4
		l0.4-0.3l-0.3-0.6l0.7,0.1l-0.7-0.4l2.2,1l0.6-0.6l-0.4-0.6l-0.4,0.3l0.3-0.9l-0.6-0.4l0.6,0.1l0.6,1.3l0.1-0.4l0.6,0.6l0.3-0.3
		l-0.4-0.6l0.9-1.2l-0.3-0.7l1.3-2.3v-1l-0.9,2l-0.7-0.6l1.2-1.7l-2.2,0.3v0.9l-0.3-0.6v0.7l-0.4-0.6l-0.7,0.4l1.3-0.7l-0.3-0.4
		l1.2-0.2l-0.7-0.3l0.6-0.6l-0.7-0.2V619l1.2,0.6v1.2l0.3-0.4l0.9,0.1l1.2-0.9l-0.6-1.6l0.6-0.7v0.6l0.6-0.2l-0.7,0.9l0.9,0.4
		l-0.9,0.3l-0.1,1.2l2.4-1.2l-0.3-0.9l2.2-2.6l-0.1-0.4l-0.6,0.7l-0.4-0.3l-0.1-0.7h0.6L877,615l1.3-1l1,0.3l-1.2,1.7l1.6-1l0.1-1.2
		l1.4-1.1l1.4-2.6l-0.4-0.1l4-3.8h-0.9l0.3-0.7l-1-0.7l0.9,0.4l0.1-0.4v0.6l0.3-0.7l-0.7-0.6l0.9,0.4l0.1-0.7l0.7,0.2l-1,2.3l1-1.2
		l1.7-0.7l4.2-0.7l0.9,0.4l1.7-1.2l0.1-0.7h-2.2l-0.4-0.9l-0.3,1.3L890,603l2.3-0.9l-1.2-0.6l-1.7,0.6l0.1-1l0.4,0.7l1-0.7l-1.2-1
		l0.3-0.4l0.4,0.7l1.2-0.9l-0.3,0.7h0.9l0.3,0.6l0.4-0.9l-0.3,0.7l0.7,0.4l0.9-0.6l0.9,0.6l0.3-1v1H895l1.3,0.7v-1.3l2.2-1.2
		l1.3-1.4l5-1.6l-0.4-1l1.2-1.7l-0.4-1.2l1.3-2l-0.7-1l-0.9,0.3l0.7,1l-0.4,0.3l-0.1,2.5l-0.7,0.1l0.1-1l-0.9-1l0.7-0.9l-0.6-0.7
		l-0.3,0.4l-0.6-1l-0.4,1l0.3-1.2l-0.7-0.3l1.3,0.4l0.9,0.3l0.3-1l0.7,0.7l1.6-2.6l0.6-1.6l-0.4-0.1l0.6,0.1l2.7-3l2-0.6l-0.1-1.2
		l3.2-3.7l-0.6-0.2l0.9-1.6l2.4-2.3l-0.3-1.3l1.9-2.7v-2.2l0.7-1.6l2.5-2.6l-0.4-1.6l1.6-1.7l-0.1-1.1l-1.3-0.3l-0.1-1.4l0.1-2.6
		l1-1.9l0.9-4.2l3.6-4.2v-1l1.9-2.3l0.3-2.9l2.3-3l1.3-4.5l1-1.4l0.7-3l0.7-0.7l0.6-2.3l-1.4-1.9l1,0.4l0.4,1l0.4-1.6l-0.6-0.6
		l0.1-1.3l3.3-3.6l-0.4-0.7l0.7-1.7l3.7-3.9l-1.3-0.3l1.3,0.3l0.6-0.7v-1.7l1.6-3.6l-1-0.3l-0.9-2.7l0.4,0.2l1.9-7.1l-0.3-2.3
		l-0.3,1.4l0.1-1.7h-0.6l-1-1l-0.1-1l-0.4,0.2l0.4-0.3l-0.4-5.9l0.6-2.2l-0.9-0.4l-0.1-2.2l-0.9-1.2v-1.7l0.6-0.3l-0.7-1l0.4-0.9
		h-0.7l-0.3-1.4l-0.3,0.4l-1-0.3l-0.1-2l-1,0.6l-1,0.3l1.3-0.6l0.6-1.4l-1.6-1l-0.3-1.4l-0.9,0.2l1-0.3l-0.1-1.2l0.4,0.9l0.7,0.1
		l0.4-1.3v-0.6l-1.7-0.1v-1.9l0.3,0.7l0.7-1l1.9-0.6l-0.7-0.3l-0.4-1.6l-0.4,0.1l0.3-0.7l-0.7-0.1l0.1-0.4l0.6,0.3l-0.4-1l0.9-0.7
		l-0.3,1.9l1.7,3.5l1-0.7l-1.2-5.2l0.4-1.9l-0.7,1.9l-0.9,0.3l0.9-0.3l0.4-1.9h0.7l0.1-3.3l-2-1.7l1.3,0.6l0.3-3l1.3-3.7h-1.9
		l0.9-0.2l0.4-3.9l3.9-7.4l-0.9,0.4l-1-0.7l-0.4-3l-0.7-0.4l0.6,0.6l-0.7,0.6l0.3,1l-0.3,0.6l-0.7-0.3l0.7,0.9l-0.6,0.1l-0.6,1.3
		l-0.4-0.7l1-0.9l-0.3-0.9l-0.9,0.1l1.2-0.1V428l-0.9-0.1l0.7,0.1l0.1-1l-0.7-0.9l-0.9,0.1v0.4l-0.1-0.7l-0.4,0.6l0.4-0.6h1l0.1-0.6
		l-1-0.4l-0.7-1.1l0.4-0.4l-1.2-0.4l0.4-0.6l0.7,0.3l-0.7-3.3l0.7-0.1l-0.4-0.4l0.9,0.1v-0.9l-0.9,0.1l0.6,0.1l0.9-1l-0.9,0.1
		l0.9-0.4l0.3,0.3l0.6-0.9l-2.7,1.3l-2.2-0.1l2.2-0.1l0.9-1.3h0.9l-1-0.6l0.7,0.1l0.6,0.6v-4l-1.4-0.3l-0.3-1l-0.7,0.6l-3-1
		l-0.9-1.9l-1.4-0.3l-0.3,0.6l0.3-0.7l-0.4-0.1l2,0.3l0.4-0.4l-1.7-2.5l-0.4,0.1l0.4-0.1l-1.2-2.9l0.3-1l-0.9,0.3l1-0.6l-0.3-2.7
		l-1.2-1.9h-0.4l-0.3,1h-0.6l0.1,1l-0.3-1h0.6l0.1-1.6l-2-0.6l-1.9-2.3l0.6,0.7l-0.4-0.3l-1.2,0.6l0.6,0.4H927l1.3-1l-1.9-2.6
		l-0.1,1l0.1-1l-0.9-1.9l-0.6,0.3l0.4-0.4l-1.3-2.6l-0.4-4.9l-1.2-2.6l-1,1.7l0.7-1.2h-0.9l-1-1.6l-1-0.3l1,0.1l-0.7-2.3l0.4-0.4
		l-0.6-0.4l-0.7,2l-0.1-1.1l0.7-0.4l-2-1.4l-0.9-0.1l-0.1,0.9l0.7-0.1v0.7l0.9,0.7l0.1,0.4l-0.4-0.1l0.3,1l-1-1.3l-1.4-0.9l-0.6,0.9
		l0.6,0.6L915,376l-0.4,1l-0.6-2l-0.9-0.3l-0.4,0.7l-0.4-1.3l-0.1,1.6l-0.6-1.6l0.4-0.3l-1.2-2.2h-0.4l-0.4-2l-0.9,1l0.3-1.6
		l-2.9-1.6l-0.6-1.1l0.3-1.1l-0.4,0.3l-0.4-1.2l0.4-0.3l-0.7-0.4h0.6l-1.6-1.1l-0.6-2v1.4H903l0.3-1.2l-0.9-0.6l-0.1,1.1l-0.9,0.3
		l0.4,0.4l-0.6-0.4l-0.1,1.7l-0.4-1.7l-1.3-1.7l0.7,0.1v-0.4l-1.9-1.4l1.6,0.3l0.4-0.6l-1.2-2.2l-0.3-2.3l-0.6-0.3v-0.4l0.7,0.4
		l1-1.3l-0.1-1l-1.2-0.6h0.6l0.1-1l-1-0.9l1.2-4.5l-0.4,0.9l0.4-1.4l-0.7,0.6l-0.3-1.2l1.7,0.6l-0.1-1.4l1.7-5l-1.3-1.1l0.3-3.2
		l-0.6-0.1l0.4,0.9l-1,1l0.3,1.1l-1-0.1l-0.4-0.9l0.9,0.7v-2l-1,0.1l0.3-0.4l-0.7-1.9l0.6,0.4l0.1-0.4l0.9,1.3l1-1.7l-1.4-0.7
		l-0.3-2.2l-0.6,0.4l0.4,0.9l-0.3,1.3l-0.1-0.7l-0.7,0.4l0.3-0.6l0.4-0.1l-1-0.7l0.7-0.2l-0.4-0.9l0.4,0.4l0.3-0.6l-2-1l-1,2.2
		l0.6,0.9l-0.6-0.3l0.1,0.4l1.2,0.7l-1.3-0.4l1.6,1.6l-0.7-0.6l-0.4,0.1l2.2,1.4l-0.1,0.6l-0.6-0.4v0.6l-0.3-1.2l-1-0.3l0.7,2.6
		l1,0.3h-0.9l0.4,1l-1.4-2.6l-0.9,0.7l0.3-0.6l-0.6-0.6l0.6,0.1l-1.3-1.1l0.4,1.4l-0.4-1.3l-0.9-0.1l-0.9-1.4l-2.3-1.9v-0.6l-2-0.4
		l-0.9-1l0.4-0.9l-0.7-0.7v-1.1l-1.3-1.3l-0.1-1.7l-0.9-0.9l-2.3,1.3l-1.3,3.5l1.3,0.4l-1.4,0.1l2,7.9l0.6,0.7l-1.3-1l-0.6-2.3
		l-1.7-1.6l-1.6-3.2l-0.7,1.2l-2.6,1.6l0.3,0.3l-0.9-0.2l-1,1.9l0.7-2.2l1.4-0.9l0.3-1.9l-0.3-1.1l-1,0.6l-1-0.6l-0.9,1.1l0.6-0.3
		l-0.3-0.7h1.7l-0.6-1.6l-1.6-0.1l-0.9,1l-0.6-0.3l2.6-1.3l-0.9-2.3l-0.4,0.1l0.6-0.6l-0.9-2.7l0.3-1.2l-1.3-2.9l0.4-2.2H870
		l0.7-0.4l-0.6-0.6l-0.1-1.6l0.7-0.3l-0.3-0.3l0.9,0.7l0.1-0.4l-0.7-0.4l-0.1-2l1.6-2.3l-0.6-0.4l-0.7,1.1l-0.1-0.7h-0.9l-0.4-0.6
		l0.6-1.2l-1.2,0.3l-0.1-0.9l-1.2,0.6l-0.1,0.7v-1.1l-0.6-0.4h0.9l0.1-1.1l0.9,0.3v-0.4l-1.6-0.7h1.3l-0.1-3.2h-0.7l-0.4-0.9
		l-1.9,1.7l0.6-1l-0.7-0.1l1-0.9l-0.6-1l-0.7,0.1l0.6-0.3l0.4,0.4l0.4-1.9l-1.2-0.3h1.3l0.1,0.6l0.4-2h-0.6l-0.7-1.1l-0.3-0.9
		l-0.6-0.3l-0.3,0.9l-0.6-1.6l-1.6,0.1l-0.6,0.6l0.3-1.4l0.4,0.1l-0.4-0.7h1.2l-0.6-0.9l-0.7,0.3l-1.2-1.1l-1,0.3l-0.6-1l-1.4,1
		l0.3-2l-1.2-0.3l0.3-0.6h1l-2.6-2.3v-1l-1,0.1l1.3-1l-2.2-2.7l0.9,0.6l1.2-1.6l-0.7-1.7l2,1.3l1-0.7V271l0.4,2.2l0.7,0.9l1.9,0.4
		l-1-1.3l0.7-0.3l-0.3-0.3h-0.6l-0.9-1.2l0.1-1l-0.4-0.3l0.6-0.7l-1.7-1.9l0.9-0.1l-0.6-0.3v-1l-0.6-0.1l-0.6,1l-1.3-0.1l0.3-1
		L855,266v-0.6l0.6-1.2l-0.9,1l-0.1-1.3l-0.3,1.3l-0.7-0.3l0.6-0.9l-1,0.4l0.4-0.9l-0.7,0.1v-2.9l-0.9,0.7l-1.7-1.1l-0.4,1.4
		l1.2,0.4l-1.4,0.9l1,0.1l-1.3-0.3l-0.1,0.6l-0.3-0.1l-0.1-0.6l-1.6-0.3l0.1-0.3l-1.6-1.6l0.4-0.3l-1.3-1l0.3-0.6l0.7,0.1l-0.1-1.3
		l-0.6,0.1l-0.4-0.9l-1.7-0.4l0.3,0.6l-1.2-0.7l-0.6-1.7l-2.5,0.9l-1.2-0.3l-1-1.2l0.3,0.7l-0.9-1.4l-0.3-3.2l-0.6-0.9l-1.7-0.3
		l-0.3,1.7l0.7,1.7l0.6,0.1l-0.4,0.1l-2.7-0.7l-1.9-2.9l-0.4,0.4l0.3-0.9l-2.2-1.7l1.3,1.3l1.2,0.6l0.1-0.9l-1.6-0.6l1.4-0.1
		l-0.3-1.3l-0.9-0.4l0.9,0.3v-0.6l-0.4-1.3l-0.7,0.3l0.6-0.1l-0.1-0.4l-1.2-1.9l-1.4-4l-0.6-0.4l1.4,2.6l-0.6,0.9l-3.2-0.9l-1.6,0.9
		l-0.1-0.7l-1.4-0.4l-0.4,0.7l0.1-0.9h-0.7l-0.3,1.1l-0.3-1.7L817,236l0.6-1l-1-2l0.1,0.7l-1.6,2.3l-2-0.3l-0.9-0.9l-0.4,0.1
		l0.3-0.7l-1.2-0.4l-0.3-1.4l-3-0.3l-4.6-3.5l-4.5-6l2.3-5.8l-0.7-0.1l0.7-0.6l-0.1-1l-0.3-0.4l0.7,0.1l-0.1-0.9l-0.4-0.3l-0.1,0.4
		l-0.4-0.7l-0.6,0.1l0.4,0.6l-0.7-1.2l-0.9-0.1l-0.6,0.6l0.4-0.9l-0.7-0.3l0.4-0.1l0.2,0l-0.7,0.3l-0.4-2.6v1l-2.9-4.5l-0.3-2.2
		l0.9-2l-0.4-0.3l0.4,0.3l0.7-1.3l-0.7-0.3l0.7,0.1l0.4-1.3l0.1,0.4l0.7-0.3v-1.9l0.7-1.1l-0.7-2l0.7-0.3l-0.3-1.7l1.3-1.4l-0.3-1.3
		l-0.6,0.9l-0.7-0.3l0.6,0.3l0.6-1l-1.4-2.3l0.4-3l-1.6-2L794,177l-1.3-2l0.3-1.7l1.6-2.6l-0.9-0.9l-0.4,0.9l-0.7,0.1l-0.6-1
		l-1.9,1.3l-0.4-0.6l0.4-0.7l-0.6-0.3l-0.7-1.9l-0.9-0.7l-0.3-1l-2.2-1.6l-2.3-3.9l-0.1-1.7l-1.4-0.6l0.3-3.2l0.9-1.4l-0.9-0.3
		l1.9,0.1l-1.2-2.7l1.2-2.4l-1.6-3.9l-1.4-0.3l0.9-2.4l-0.6-0.9l0.4-2.2l-1.2-2.2l0.3-1.9l-2.6-1.6l1.4,0.3l0.3-0.9l-0.6-1h-1.4h1
		l1.6-2.7l-0.3-0.7l1.9-1l-0.4-1.4l-0.7,0.9l-1.2-0.1l-0.4-2.9l-0.7-0.7l0.7,0.4l1-2l2-1.9l-0.1-0.9h-1.7L779,116l0.3-1.1l-3-0.4
		l-0.4-0.7l-0.4,0.6v-0.7l-0.9,0.3l-0.7-1.4l-1.4-0.7v-1.6l-0.7-0.4l-0.3-1.4l-2.7-0.6l-0.4-1.3l-2.4-0.1l-1.6-2.2V103l1-1.7
		l-1.6-0.1l0.4-2.6l-2-2.7h-0.7l-0.9,1.7l-1.3,0.7l0.3,0.3l-0.7-0.1l-1.3,0.7l-1.6-0.3l-1.6-1.4l-0.6,0.1v1.7l-0.7,1.6l-3.5,2.3
		l-2-0.1l-0.4,0.9l-0.3-1l-1.7-0.4l-1.3-1l-1.4-2.3l-1-4l-0.3-5.2l-1.6-1.4l-0.6-2.6l-1.6-2.7l1-4.3l0.9-1.3l-1.2-0.1h1l0.4-3
		L739,73l-1.3-1.3l0.1-3.9l-0.4-1.3v-5.2l1.3-2.3l-1.6,0.4l-0.9-0.4l-1.3,0.9l0.4,1l-0.7,0.6v-0.6l-0.9-0.3l0.6-0.3l-0.7-0.3
		l0.1-1.7l1.9-3.9l-0.6-0.3l1-1.3l-3-1.8l-0.9-1.6l-0.9,0.4l1-0.7l-0.1-2l-0.6-0.7l-1.7-1.2h-1.2l0.3,0.4l-0.7-0.7l-0.4,0.6
		l-0.6-0.6l0.6-4.3l-0.9-1.2l0.9,0.6l2.6-4.2l1,0.1l0.3-0.6l-0.7-0.4l-1,0.6l-0.6-1.6l-1.3-0.7l-1.7,1L725,34l-3-2.7l0.3-5.2
		l-0.7-4.5l1.2-2L722,18l-1.2-1.3v-5.3l-1.7-3.3L718,8.4l-0.6,0.9l0.6-1.4l-0.7-0.4L716,7.6l0.7-1.2l-0.7-1v0.4l-0.9-0.4L714.7,6
		l0.6,1.4l-0.9-0.7L714,7.5l-2,0.7l1.6-0.6l0.6-3l0.7-0.1l1.7-2.2l-1.3-0.6l-0.7-1.2l-0.9,0.7l-1.9-0.1l-1,2.9l-1.9,1.9L706.2,6
		l0.4,0.9l-1.2-0.7l0.4-0.3l-2,1.2l0.4,3.2l0.3-0.9l-0.4,1.4l0.3,0.6l0.3-0.6l-0.1,0.7l-1.3,2.4l0.3,3.8l-1,2.2l-0.9,1.7v0.6h-0.3
		l-0.9,3l-0.1,0.3l-0.6,1.7l0.1,0.4l2.5-0.1l-0.6,0.9l-2.4-0.3l-1.3,4.9l0.1,0.4l0.6-0.3l-0.4,0.4l1,0.4l0.6,1.3l0.7-1.4h1.2h-1
		l-0.6,2.3l-1.9-1l-0.6,1l0.4,1.7l-1.2,0.6l1-0.7l-1.3-4.2l0.6-0.7l-0.9-0.2l-0.7,0.7l-3,6.1l0.7,0.3l0.7-0.7l-0.4,0.4l0.9,0.6
		l-0.9-0.2l-0.3,0.4l0.1-0.4l-1.4-0.1l-3.5,8.3l0.9,0.6l1.7-0.6v-0.6H690l0.7-2.4l-0.3,0.4l0.7,0.6l1.9-0.1l-1.9,1l1.7,0.9l1.4,1.7
		l1.6-0.6l0.4,0.4l1.2-0.7l1,0.9l-1.3-0.1l-0.6,0.6l-0.3-0.4l-1.9,1.3l1.4,0.6l1,1.6l1.4-0.3l-0.4,0.1l0.4,0.3l-1.7,0.4l0.7,4.2
		l-1.3-2l0.1-2.7l-1-1.2l-0.9,0.3v-0.7l-2,4.5l-2.4,1.6l-0.4-0.3l-0.9,1.2l-0.4,1l0.9,1.4v3l1.7,2.6l-1.2,2l0.4,0.3l1-0.9h0.7
		l-1.4,0.9l1.6,1.2l-0.6-0.1l0.3,1l-0.6-0.7l-0.4,0.3l0.3-0.7l-1.2,0.4l-0.6-0.6l-2.6,4l-2.2,8.2l-0.1,2l3,4.2l0.6,2.7l-0.6-0.1
		l0.1,2.3l-2.2,5.5l1.4,9.8l1.2,2l0.7,3l-1.2,1.7l0.3,1.2l-1.3,1.2l-0.1,0.1l-1.2,3.3l-0.1,0.6L683,126l-2.2,9.2l-0.4,0.6l1.3,4.2
		l-2,3.2l-1.6,4.8l-0.3,0.4l0.1,1.9l-1,1.9l-0.9,0.9l-0.7,2.6l-0.1,0.1l-2.7,2.7l-0.3-0.1l-0.7,2.3l-2.6,2.7l-0.3,1.1h0.6l-1,3.5
		l-0.3,0.6l-1.2,4.8l-1.6,2.2l-3.3,1.1l-2.6,1.9l-0.7,0.1l-3,1.4l0.1-0.6l-2.2,0.9l-3.5,0.3h-0.6l-2.9,0.4l-2.3-0.4l-1.2-0.9
		l-0.6-1.4l-2.5-0.9l-0.4-0.7l-1.6,0.1l-0.7-0.7l-1.9-0.4l-0.9-1l-0.3,0.9l-0.1-1.3l-1.2-0.6l-1.7-2l-0.7,0.4l0.1-0.6l-0.7-0.4
		l-3-0.3l-1.6-1.3l-1.9-3.4l-0.4-2.7l0.4-1.4l-1.6-0.7l-1.3-1.6v-1l-7.1-2.2l-3.2-2l-3.7,0.3l-3-1.3h-0.6h-0.1l-4.3-1.9v-0.1
		L597,151l-6.8-6.9l0.3-0.1l-2.3-3.3l-0.3,0.7l-0.1-1.6l-4.6-1.9h-0.3L580,137l-2.9-1.7l-0.7-1.3l-0.4,0.7l-0.3-0.6l0.7-0.4
		l-0.4-0.3l-0.6-0.1l0.6,0.1l-0.4,0.3l-1.7-1.4l-1.9-0.4l-2.2-2.2l0.1,0.4l-0.6-0.1l-0.7-0.3l-1.2,0.6l1,0.9l-0.3,0.4l-1.9-1
		l-0.6,0.6l0.4-0.6l-1-0.4l-1.4,0.6l0.1-0.9l-1,1.3l-0.9-0.6l-0.6,0.3l0.6-0.4l-0.4-0.6l0.6-0.1l0.4-0.4l-1-0.7l0.6,0.3l-0.1-0.6
		l-0.9-0.1l0.3-0.7h-0.9l-1.7-1.4l-1,0.3l0.4-0.6l-2.9-2l-0.4-0.7l-2-0.7l-0.4,0.6v-0.9l-1.3-1.3l-0.6-3.3l-1.2-0.3l0.4-0.4
		l-0.9,0.1l-3.3-2.2l-2-0.7l0.3-0.3l-3.2-2.7l-2.7-1.7l-0.9,0.3l-0.6-1.3l-0.9,1l0.4-1.3l-0.6-0.4l-1.7-0.1l-0.6,0.9l0.4-1l-2.4-1.6
		l-1.2-1.7l-0.6,0.6l0.4-0.9l-0.9-2.4l-0.6-0.1h0.6l-0.3-2l-1.2-0.3l0.9-0.1l1,0.7l0.9-1.3l2.3-0.9l-0.4-0.6l0.4-1.7l1.4-1.9
		l0.4-1.6l1.6-0.1v-1l1.4-2.3l-0.7-0.9l1.2,0.3l3-2.2h1.2l-0.7-0.7l0.9-4.3l0.9-1.2l-0.1-0.7l0.3,0.7l1-1.4l0.7-3.7l1.6-2.6
		l-1.4-0.1l0.3,0.7l-2,1.7h-1l-0.9-0.9v-1l1.2-0.6l-0.3-0.4l-0.9,0.1l-0.3-1.1l-1-0.9l1-0.7l-0.1-3l1-0.4l0.9,1.1v-0.7l0.7,0.1
		l0.3-1l-1.2,0.1l-0.1-1l-1-0.4l0.7-2l1-0.9l0.4,1.1l0.3-1.6l1-0.4l0.7,2.4l0.3-2h0.7l0.4-2l1.2-0.7l-0.3,2.2l1.1,2l-0.4-1.1l1,0.1
		l0.4-1l0.7,0.1l0.1-1l-0.9-0.9l0.7,0.1L551,57l0.7,1.2l0.9-0.3V57l-0.6-0.4l1-1.6l0.9,0.6l-0.3,2.2l0.9,2l-0.6,0.7h-1l0.3,0.6
		l-0.6,0.6l0.6,0.7l1.6-2.2l1.1-0.6v0.7h0.6l0.3-2l0.9-0.7l0.4,0.4l0.9-2.6l-0.7-0.1v-0.9l-0.9-0.7l-0.6,0.6l-0.7-0.9l2,0.3l0.6-0.7
		l0.1,1.3l0.4,0.1l0.9-1.4l0.4,1.4l1-0.4l-0.7-1.4l-2.5-0.9l0.3-0.9l-1-0.1l-0.9-0.9l0.3-1.2l-0.6-0.7l1.9,0.9l-0.3-1.3l0.6-0.4
		l1.3,1.3l-0.4-0.3l-0.1,0.9l1,0.7l-0.3-3l0.6-0.7l1.7,0.4l-0.4-1.2l0.3-0.9l1.3-1.4h0.6l-0.3-0.6l-1,0.3l1-0.9l-0.6-0.1l0.3-0.1
		l-0.3-1.3l1.7-0.4v1l-0.9,0.9l0.3,0.7l0.3-0.9l3.2-3.3l1.6-0.4l0.4-0.7h-1.6l0.6-0.6l-0.3-1l-0.7-0.1l0.1-0.9l-1.3-1h-1l-0.9-1.4
		l-2.6,0.7l-0.1,0.6l0.7-0.4l-0.1,1l0.3-0.9l0.3,0.9l0.7-0.4l0.3,0.6l-0.3,0.9l-0.7-0.2l-0.4,0.6l-1.3-0.3l-0.1-1l-1.3-1l-0.4-1.3
		l0.1-1.7l-0.6-0.1l-0.9-2.3l-1.3,0.3l0.4,0.4l-1-0.7l0.4-0.9l2.7-1l-0.4-1.2l0.3,0.7l-0.4,0.4l-0.7-0.1l-1,1l-1.1-0.4L556,27
		l-0.4-0.3l-2,2.6l-0.4-0.3l-1.4,0.4l-1.4,1.7l0.2,0.6l-1.3,0.3l0.1,0.7l1.3-0.1l0.1,0.7h2.3v-0.4l1.1,1.4l0.9-0.4l-1.4,0.7l0.3,0.3
		l-0.9,0.9l-0.6,2.6l-1.9,1.9l-1.7-0.4l-0.1-0.6l-1.7,0.4l-0.6-0.7l-1.2,1.7v-0.9l-1.1-0.3l1-1.4l-1.4,0.4l1.7-2.4l-0.3-0.7l0.4,0.1
		l0.9-1.4h-1.3l-0.3,0.7l-1,0.1l-0.9-1.4l1.3-1l1.7-3.2l-1.2,0.7v0.7l-1,0.9H543l-0.6,1l-0.1-1l-2.2,1.2l-0.7,0.7v1.4l-0.4-0.7l-1,1
		l-1.7-2.3l0.3-1.4l2-1.6l2.3-2.6l1.4-0.1l0.7-0.9l-6.6,2.3l-2.6,2.3l0.4-0.7l-0.9-1l-0.6-0.1l-1.7,1.4l-1-0.3l0.3-0.4l-1.4-0.1
		l-1.6,1.2v0.9l-2.2,0.7l2.3,1.4l1.1-1l-0.3,1l-1.7,0.4l-0.4-1h-2.6l1.7,1.7l-0.3,0.3l-1.2-0.9l-0.3,0.3l-0.4-1l-2.5,1l-1.9-3
		l-1.3-0.6l-1,0.6l0.4-0.4l-0.6-0.3l-1,0.3l-0.1-1.2v-1.2l-1-0.3l0.1,0.4l-0.7-1.6l-0.6-0.3l0.4-0.9l-0.7-0.3l-1.6,0.4l-0.6,1.2
		l-1.7,1.2l0.3,0.9l-0.7-0.9l-2.2,0.6l-1.9-0.3l-1.9-0.7l-1.6-1.6l-1,0.1l0.3,1.3l-1.6,1l-0.1,1.7l-0.9,0.9l0.7-0.9l-0.6-0.9l0.9-2
		l-0.4-1l-0.7-0.1v-0.6l0.7-0.1l-1.3-1.6l-1.7,1l0.4-0.9l-1.2-1.3l-3.2,2l0.1-0.6h-1.1l-0.9-1l-0.3-0.9L492,21l-0.6-0.7l-1.4,0.3
		l-0.6-0.7h-1.1l0.4,0.3l-1.9,1.3l-1.7-0.3l0.4,0.4l-1.4,1.3h-0.7v-0.7h-1l-1.3,1.9l0.6-3.2l-1.9,1.2l-0.6-0.7l-0.9,0.1l-0.1-1.3
		l-0.9,1.2l-1.3-0.2V20l1-0.1l-0.4-0.7l-2.2,1.2l-2.9-1l-2-3.9l0.1-0.7l-4.2-4.9l-1.3,0.3l1.2,1.2l-0.4,1.2l-1.3-0.9l-2.9,3.3
		l-1.6-0.2l-0.9-1l-0.3-1.6l-2-1.9l-1.2-0.4L455,9l-0.6,0.2l0.4-0.7l-1.4-1.4l-0.7,0.1l-0.7,2L451.4,9l0.3-2.2l-1.3-2.4L450,5.8
		l-1.4,0.1l0.6,2.6l-2.6-3.7l-1.3-0.3l1.7,2.7l-0.7,2.6l0.6-0.6l1,1l-0.3,0.7l-1-0.3l0.4,1.6l-0.6-0.6l-0.1,0.7l-0.7-1l0.3-1.6
		l-0.4-0.6l-0.4,1.3l-0.6-0.6l0.3-3l-0.7,0.4l-0.3-1.3l-0.7,0.6l-1.3-2l-0.7,0.3l0.7,1l-0.9,0.1l0.6,1.2l-0.6,0.1v0.7L440,8l-1.1-2
		l-0.1,1.4l-0.4-0.7l-0.6,0.4l-0.8,0l1.1,1.7l-1.6-0.3l0.1,0.7l-1,0.1v0.4l2-0.2l0.4-0.4l2.3,0.6l-0.7,1.2l1.4-0.4l0.4,0.7l-1.3,0.6
		l0.7,0.4l1.1-0.3l-0.4,0.7l1.1-0.3l0.6,0.4l-0.7,1.2l0.9,1.2l1.1,0.4l0.3-0.7l0.6,0.1l2.3-1.6l1.9,0.1l1.3-0.7l2.6,0.4l0.9,0.6
		l1-1.2L456,13l-0.3,0.4h0.9h-0.7l0.1,0.4l-0.9-0.1l-0.4,0.7l0.6,0.4l1.3-0.9l0.4,0.6l-0.6-0.4l-1,1l2,0.1l-0.3,0.1l0.4,0.6
		l-1.6,0.3l0.6,0.4l1.3-0.1l-2.2-0.1l1.9,1.6l1.7-0.7l0.1-0.7l-0.3,1.3l1.4-0.4V18l0.4-0.1l-0.6,0.1v1.2h-0.4l0.4-0.4h-1.4l-0.4,1.4
		l-1.6,1.7l1.3,0.7l0.4,1.6h1.3l-1.4,0.4l-0.6,4.8l1.4,0.9l0.1-0.7l0.4,1.4l1.7,0.4l-4.2-0.7l-1.3-1l-1.1,1.2l-1.9,0.6l-0.6,1.4
		l0.9,2.4l-0.4,0.9l-1.9-3.5l-1.7,0.6l-0.4,1l-0.3-2.2l-0.6-0.3l-4.5,3.3l0.4,0.6l-3.9-1l-1-1.4l-3.7,1.7l-7.4,0.3l-1.9-0.6
		l-1.7-1.7l-0.1-2.6l-0.9-1.3l-1.4,4.3l0.4,0.4l-0.7,0.3l-1.4-1.7l-1.4,0.7l0.1-1l-1.3,0.3l-0.6-0.6l-1.1,1l0.9,1.3l-0.3,2.4
		l0.3-0.4l0.7,0.6l-0.7,0.1l0.7,0.3l-0.3,1.2l-0.1-0.7l-3.6-0.7l-1.4,1.3V39l-0.7-0.1l0.6,0.6l-0.4,0.9l0.7,0.3l0.6-0.7l1,0.6
		l-0.3,0.6l1.1-0.4v1.3l1.3,0.3L416,43l-0.7-0.6l-0.7,0.4l-0.4-1.2l-0.4,0.9l-0.1-0.7l-1.1-0.1l1.1,1.3l-0.6-0.1l0.1,0.7l1.9,0.4
		l0.6,1.6l-0.3,0.3l-0.9-1.4l-1.3-0.1l0.4,1.7l-0.4-1l-0.4,0.4v-1l-0.4,0.4l0.4-0.7l-0.7-1.2l-0.6,0.2l0.4,0.7h-0.6v-1.3l-0.6,0.3
		l-0.1,1.9l-0.1-1.6l-1.1,0.7l1-1l0.1-1.9l-1.3,1.4l1-2.3l-3.9-1.4l-1,0.6l1.3,1l-1.2,0.4l0.6,1.2l-0.4-0.1l-0.6,1.7l0.1,0.9
		l0.7-0.4l0.4,0.9l-0.6,0.1l-0.1,1.2l-0.1-1l-0.9-0.1v0.4l1,1.3l1-0.4l1.3,0.6v0l0.7-0.6l-0.6,0.7l1.4-0.1l-0.4,0.1l0.4,0.3
		l-0.7-0.3l-0.4,1l-0.1-0.7l-1.6-0.6l0.4,1l-0.4,0.7l0.1-1.2l-0.9-0.1l-0.6,0.6l0.3-0.6h-0.7v-0.4l-1,0.1l0.1,0.7l-0.6-0.3l0.3-1.4
		l-0.7,0.3l0.3-0.4l-0.9-0.6l-0.6-0.1l-0.7,0.9h-0.4l0.1,0.4l0.7,1.3l-1.9-1.6l0.1,3.6l-0.6,2.3l-2.3,1.6l-1-0.1l-0.3-0.9h-0.4
		l-1,0.6l-0.3,0.9L394,55l-0.6,4.5l1.1,0.3l1.9,2.6l1.9,0.9l0.4,1.3l-1.3-0.9l-0.9,0.1l-2,2.9L391,69l-2-0.4l-0.4-1.9l-0.7,1
		l0.3,0.6h-1.7l0.4,1.6l-1,2.7l-0.3,2.7l0.3,0.3l0.4-0.9l0.6,0.6l-0.4-0.4l-0.3,0.9l-2,2l-0.1,0.9l0.9,0.7v1.7l-2.6,1.7l-1.1-0.9
		l0.4,1.3l-0.7,1.4l1.3,0.6l-1.3-0.4l-0.4-1v3l-0.3,0.4v-1.1l-0.6,1.3l0.3-1.1l0.3-0.4l-1-0.6l0.7-1l-0.3-1.2l-0.4,0.4l-1-0.4l1,2
		l-0.6-0.1l-0.7,1.9l-1.3,1.1l0.1,1.3l-1.1,1.3l-0.3,2.4l1.3,0.1l1.3,2l0.6-0.6l-0.4-0.9l0.6,1.1l0.7-0.9l-0.4,1L380,96l1.3,0.3h1
		l1-1.4l-0.9,1.6l1.3,0.1l3.2-1.4l0.3-0.6l0.1,1l-0.9-0.1l-0.9,1l0.1,0.6h0.7l-2.3,1.2l-0.1,0.4h0.6h-1l-1,0.7h1.3l-1.1,0.3l0.6,0.7
		l1.3-0.9l-0.6,0.7l0.9,0.1l0.1,0.9l-0.3-0.9l-1.3,0.6l1.6,1.2l1.1-0.7l0.1,0.6l0.9-1.6l-0.3,0.4l0.3,0.6l-1.4,1.2l0.4,0.6l1.7-0.6
		l1-1l1.7-0.3l-0.9-0.3l-0.4-1h0.6h-0.4l0.1,0.6l0.6-0.1l-0.3,0.3l0.9,0.9l0.7-0.6l0.3-1.1l-0.4-0.1l0.6,0.4l0.1-0.6l-1,2.2l1,0.6
		l-0.9,0.1l-0.6-0.9l-1.9,0.7l1.9,1.6l-0.4,0.1l-1.1-1.3l-0.7,0.3l0.3,0.7l-0.6,2.7l0.3-3l-1.4,0.9l0.1-0.4l-0.7-0.4l-1.4,0.4
		l-0.7-0.1v0.4l-0.7-0.9l-0.4,0.4v1l1.5,0.6l-0.4,1.2l0.7,0.3l-0.4,0.7l0.3-0.7l-0.7-0.3l0.4-1.2l-0.4-0.3l-1.1,0.4l-0.1,1.4
		l0.6,0.3l-0.6-0.1v0.6l0.4,0.9l0.9-0.1l-0.7,0.4v0.9l1.1,1.4l-2.7,0.7l-0.1,0.7l0.9,0.6l-0.9-0.1l-0.4-0.9l1.3-1.1L382,111l0.7-0.3
		l-1.9-2l-0.7,0.1l-0.1,0.9l0.6-1.4l-1.3-1.9l-2.3-0.6v0.7l1.2,0.6l0.9,1.7l-0.6,0.4l0.4-0.4l-0.7-1.4l-1.4-0.9l-0.7-1.6H373
		l0.1,0.7l1,0.6l0.6-0.3l0.3,0.4l-0.3-0.4l-0.9,0.4l-0.9-0.4l-0.3,0.7l0.6,0.7l-1-1.3l0.1,2.4l1.4,0.6l-0.9,0.3l-0.6,0.6l0.4,0.9
		l1.9,0.1l0.4,0.6l-1.2-0.6l-0.9,0.4l-0.6-0.6l-0.3,1.6v-0.7l-0.3,0.6l0.4,0.9l-0.7,1.3l0.3,0.4l-0.4-0.4l0.9-1.3l-0.9-1l-0.7,2
		l-1.3,0.4l0.3,1.2l-0.4-1.2l1.1-0.6l-0.1-0.4l-0.1,0.4l0.3-0.9l1-2l-1.7-2.4l-0.6-0.4l-0.3,0.9l0.3-2.3l-1-1.1l-0.4,0.3l0.9,0.6
		l-0.6-0.4l-0.7,0.4l0.4,0.7l-0.6,0.6l0.3-1.9l-0.4-0.6l-7-0.9l-0.1,1.2l-0.1-1.2l-1.1-1l-2.2-0.1l1,0.7l-2.3-1.1l-0.7,0.4l0.1,0.3
		l-0.7-0.3l-3.3,1.2l3,1.7l-0.7,0.1l0.7,0.6l-0.6,0.4l0.9,1l0.4-0.4l-0.1,1.4l0.6,0.6l-3.5-3.9l0.9,2.4l1.4,0.6l0.3,0.7l-0.3-0.6h-1
		l0.4,0.7l-0.4-0.3v0.4l0.1,0.7l-0.7-0.1l-1.3-1.4l-0.4,0.4l-0.1-0.6l1,2.7l-0.4-0.9l-0.6,1l0.4-0.6l-0.4-0.7l-0.6,0.7l0.1-0.9
		l-1.3-2v1.1l-0.4-0.4l-0.7,0.4l0.7-0.9l-1,0.6L346,111v0.7l1.3,1.6l-0.7-0.6l0.1,0.9l0.9,0.4l-0.1,0.4l-0.7-0.7v0.9l2.3,3.3
		l0.3,3.3l0.4,0.7h1l-0.9,0.6l-0.7-0.4l-0.9-4l-3.9-3.9l-0.7,1.6l0.9,1l0.1,1.3h-0.3l-0.3,2.4l-1,1.7l0.3,0.3l-1.9,0.3l1.1-1l0.9-2
		l-0.7-2.2l-1.4-0.6l1.4,0.3l0.7-0.6v-3l-0.9-2.2l0.9-0.6V108l0.9-1.9h-1.3v0.4v-0.7l2.9-0.6l-0.4-2.4l-1-0.4l1.9,0.4l-0.1-1.1H345
		l-2-1.7l-0.4,0.4v-0.7l-2-1.4l-0.9,1.2l-0.6-1.2l0.4-0.9l-1.7-1.4l-0.7,0.4l0.6-0.7l-0.3-0.9l-1.2,0.7l0.1-1.4l-1-0.3l-0.3-0.9
		l-0.7,0.6l0.7-1l-2.3-2.3l-0.7-1.6l-3-2l-1,0.4l0.3-0.9l-0.7,0.1l0.3-0.6h-0.6l-0.3,0.6l-0.1-0.6l-0.4,0.1l0.1-1.7l-1-0.9v-0.6
		l-0.6,0.7l-1.3-1.6l-0.9,0.3l0.7,0.7l-0.4,0.4l0.7,0.9l0.6-0.3l-0.4,0.3l-1.3-0.4l0.3-0.4l-1.3-0.4l-0.3-1l-0.9,0.1l-0.6,1.7
		l-0.6-0.6l0.1-1.1l-1.1,2.2l-0.7-0.1l0.1-0.7l-0.7-0.6l0.1-1l-1,0.6l0.4-1.9l-0.9,0.4v-1.1l-0.3,0.7l-0.1-0.4l-0.6,0.1l0.4-0.6
		l-0.6-0.1l-0.1-0.7l-0.1,0.4l-0.9-1.1L312,78l0.9,0.6l-0.4,0.3l-1.3-0.6l-0.7,0.3l1,1h-0.9l-0.3,0.6l-0.6-1.1l-1.9,0.6l1.6,3.6
		l0.9-0.1l1.7,1.4l0.6-0.3l-1,0.6l-1.4-0.4l-0.3,0.4l-1.7-0.4l0.1,0.4l-0.9,0.3l-0.6-0.6v1.3l0.6,0.3l0.7-0.7l0.1,1l-0.7,0.4
		l-0.1,1.4l-0.6,0.4l-0.3-1l-1.1-0.4l0.3,2.4l-0.4,0.6l-0.7-0.1l0.3,1.7l-0.6-0.4l-0.7,0.4v-2.7l-1.1,0.4L302,89l0.4-1.4l-1,0.9
		l-0.6-0.3l1-1.3l-0.3-1l2-1.9l0.3,0.3l-1-0.6l-1,0.9l-0.3,1l-1.1,0.1v-0.4l-1.3,0.9v1h-1.4l0.3,1.2l-0.7,0.1l-0.4,1.1l1.7,1.3
		l-1.3,0.3L297.1,92.3L297.1,92.3z"/>
	<path class="st1" d="M819.6,655.5l-0.7-0.6l-7.3,4l-0.1,1.9l-1.4,2.7l0.1,2.5l-0.7,1.6l0.6,0.6l-0.1,0.6"/>
	<path class="st1" d="M809.9,668.7l1,2l0.9-1l-0.4,2.3l1.3,2.5l1.7,0.9l0.6-1"/>
	<path class="st1" d="M814.9,674.4l0.7-0.7l0.9-3.9l-0.1-2.9l1.3,0.3l0.6-2.4"/>
	<path class="st1" d="M818.2,664.7l-0.1-1.2l0.6-1.1"/>
	<path class="st1" d="M818.6,662.4l2.3-1.7l2.2,0.9l1-0.6"/>
	<path class="st1" d="M824.1,661l0.1-0.6l-2.6-1.2l-0.4-1.4l-0.7,0.2l-0.1-1.7l-0.7-0.7"/>
</g>
<path id="NSW" d="M656.4,475.8L648,607.4l0.4,1h2.8v0.7l0.4-0.2l0.3,0.4l0.4-0.7l0.8,0.2v0.6l0.3-0.1l1.3,0.8v0.7l0.9-0.7l1.7,1.7
	l1.2-0.3l0.1,1.6l0.6-0.6l1.3,0.1l0.7-0.9l0.3-0.9l1.6-0.6l0.3,0.6l0.4-0.6l3,1.3l0.6-0.6l0.6,0.7l0.3-0.4l0.6,0.4l0.3-0.6l0.8,0.4
	l0-0.4l0.6-0.2l-0.3,0.7l1,0.2l0.2,1.2l0.7,0.1l0.9-0.3l1.3,0.7l0.4,0.7l-0.3,2.6l1.1-0.1l-0.1,0.7l2.4,0.4l-1.2,1.6l-0.1,1.9
	l0.7,0.3l-0.6,0.5h0.7l-0.4,0.6l0.6,1.1l0.8,2.1l0.6,0.2l-0.3,0.9l1-0.2l-0.6,2l2.6,1.3l0.6-0.4l-0.6-1l1-0.2l0.3,0.6l0.4-0.4
	l-0.3-1.2l0.7-0.2l-0.4-0.6l0.3-1.4l1.2,0.3l0.7-1l1.8,1.7l-0.3,1l0.6,0.4l0.8-0.7l1.8,1.4l1,0.2l0.4-0.6l0.4,0.6l0.4-0.4l-0.1,0.6
	l0.4-0.3l0.4,0.7l0.3-0.4v0.4l1.2,0.4l0.2,0.7h1l-0.6,0.4l0.6,0.6l1.6,0.2v1.4l-0.8,1.8l-0.3,1.5l0.1,3.2l0.8,1.1l0.2,1.4h1.2
	l0.3,0.9l2.4,0.2l-0.4,0.6l0.1,1.9l1.2,2.4l1-0.7l0.4,0.7h1.2l-0.2,0.9l1.2,0.4l0.9,1.2l2.5,1.6l1.1,0.6l1.3,1.3l0.4,1.3l1.6,1.3
	l1,1.9l0.7-0.3l-0.1,0.4l1.1,0.4l0.5,1.2l0.5,1.2l0.8,2l1.1,1.8l1,0.6l0.3,0.7h0.7v1.2l0.4-0.7l0.3,0.7l0.7-0.3l-0.1,0.8l0.7-0.1
	v0.7l1.7,0.2l1.4-1.4l1.7,0.7l0.9-0.2l-0.7-2.7l0.9-2.9l2.3-0.6l1.2-0.1l0.6,0.7l2-0.2l0.3,0.6l4.2,0.1l2.9,1.2l0.6-0.3l-0.1,0.6
	l1,1.2h0.4l0.4,0.9l1.1,0.3l0.6,0.9l2.2-0.5l1.3,1.5l1.3-0.4l1.2,0.9l1-0.4l-0.1,0.4l1,0.1v0.6l1.9-0.4l0.6,0.8l0.9-0.4l0.6,0.7
	l1.6-2.2l1.3,0.8l0.3-0.8l1.1,0.8l1.2-0.2v0.7l1.3,1.3l1-0.3l0.3,1h1.2l0.4,0.8l1.5,0.2l1.1,0.7l0.2-0.9l2,1l1.7-2.6l0.4,1l3,0.4
	l0.4,0.6l1.1-1l1.2-1.8l1,0.4l1-0.3l1,1.7l0.7-0.4l-0.7-0.6l1.2,0.4l4.1,0.2l2.4,1.1l0.3,1.4l1.4,0.2l-0.4,1.5l0.9,0.9l-0.8,4.4
	l0.4,0.3l-0.7,1.7l1.5,2.6l-0.2,2.3l1.4,0.7l0.3,1l-1.4,2.2l-1,0.4l-0.7,1.7h1.9l34,23.1h0.2l0.4-1.2l-0.3-1.9l0.7-1.3l-0.4-1.3
	l1.1-0.9l1.2,0.7l-0.6-1.3l0.1-2l-1.3-1.3l-0.6,0.2l-0.5-0.8h0.9l0.3-0.7l0.3,0.3l0.4-1l-0.4-0.3l0.6-1.4h-1l0.4-0.2l0.3-1.3
	l0.5,0.2l0.9-2.9l-0.7-0.3l1,0.3l0.6-2.2l2.5-3.6l0.7-4l2.2-3.2v-1.4l0.7-3l-0.4-1l-0.7,0.2l0.6-0.9l0.6,1l0.9-1.9l0.4-2.2l-1.4-0.3
	l0.2-0.3l1,0.4l0.3-0.9l0.9-0.3l-0.3-0.8l1.2,0.6l0.3-1.6l-0.4-1.7l-1-0.6l2.6,1l0.7-1v-1h0.6l2.3-2.6v-1.7l1.4-1.3l-0.1-0.8
	l0.1,0.4l1.2-0.7v-1.2l-0.4-0.6l2-1.2l-0.3-0.7l1.6-0.6v-0.6l2,0.2l0.1,1l1.4-0.6l0.3-1.2l-0.9,0.1l-0.6-0.6l0.3-1.2l-0.4-1l1.6-1
	l0.7,0.5v-0.6l0.3,1.4l-0.6,1.2l0.6,0.6l0.8-0.7l0.4-1.6l-0.8,0.2l-0.3-1.9l-0.6,0.4l0.2-0.7h0.6l-0.2-1l-0.7,0.3l0.3,0.4h-1.2
	l0.8-0.3l-0.3-1.2L855,651l0.8,0.2l2.2-2.3l0.4,0.4l1.3-2.8l-0.3-1.3l1.4-0.4l-0.6-0.3v-1.4l-1.5,0.4l-0.1-0.4l0.6-1l1-0.4l0.7,0.3
	l-0.6,1.3l1.3-1l-0.7-1.3l0.3,0.3l0.3-1.4l0.9-0.7l0.1-1.3l1.9-2.3l4.5-2.9v-0.4l-1.7,0.2l0.1-0.9h-0.7l1.2-0.3l-0.1,0.7l0.8-0.3
	v0.4l0.6-0.7l1.3-0.2v-0.7l-1,0.4l-0.3-0.7l-0.6,1l-0.7-1.2l-1.3,0.3l0.6-0.6l-0.7-0.3l0.7-0.3l-0.1,0.4l0.7-0.1l0.4,0.6l0.4-0.3
	l-0.1,0.6l1-1.8l1.6,2.2l0.7-0.9l0.8-3.5l-0.4,0.9l-1.4-0.6l-0.7,0.3l0.4-0.6l-1,0.4l0.4-0.3l-0.3-0.6l0.7,0.1l-0.7-0.4l2.2,1
	l0.6-0.6l-0.4-0.6l-0.4,0.3l0.3-0.9l-0.6-0.4l0.6,0.1l0.6,1.3l0.2-0.4l0.6,0.6l0.3-0.3l-0.4-0.6l0.8-1.2l-0.3-0.7l1.3-2.3v-1l-0.8,2
	l-0.7-0.6l1.2-1.7l-2.2,0.3v0.8l-0.3-0.6v0.7l-0.4-0.6l0.6-0.3l-0.3-0.4l1.2-0.2l-0.8-0.3l0.6-0.6l-0.7-0.2v-0.8l1.2,0.6v1.2
	l0.3-0.4l0.9,0.1l0.9-0.7l-0.1,0.7l2.5-1.2l-0.3-0.9l2.2-2.6l-0.1-0.4l-0.6,0.7l-0.4-0.3l-0.2-0.7h0.6l-0.4-0.6l1.3-1l1,0.3
	l-1.2,1.7l1.6-1l0.2-1.2l1.4-1.2l1.4-2.6l-0.4-0.1l4-3.8h-0.3h-0.6l0.3-0.7l-1-0.7l0.9,0.4l0.2-0.4v0.6l0.3-0.7l-0.7-0.6l0.9,0.4
	l0.1-0.7l0.7,0.1l-1,2.3l1-1.2l1.7-0.7l4.2-0.7l0.9,0.4l1.7-1.2l0.2-0.7h-2.2l-0.4-0.9l-0.3,1.3l-2.6,0.4l2.3-0.8l-1.2-0.6l-1.7,0.6
	l0.2-1l0.4,0.7l1-0.7l-1.2-1l0.3-0.4l0.4,0.7l1.2-0.9l-0.3,0.7h0.8l0.3,0.6l0.4-0.8l-0.3,0.7l0.7,0.4l0.9-0.6l0.8,0.6l0.3-1v1h-0.3
	h-0.4l1.3,0.7v-1.3l2.2-1.2l1.3-1.4l5-1.6l-0.4-1l1.2-1.7l-0.4-1.2l1.3-2l-0.7-1l-0.9,0.3l0.7,1l-0.4,0.3l-0.1,2.4l-0.7,0.2l0.1-1
	l-0.8-1l0.7-0.9l-0.6-0.7l-0.3,0.4l-0.6-1l-0.4,1l0.3-1.2l-0.7-0.3l1.3,0.4l0.9,0.3l0.3-1l0.7,0.8l1.6-2.6l0.6-1.6l-0.4-0.2l0.6,0.2
	l2.7-3l2-0.6l-0.2-1.2l3.2-3.8l-0.6-0.2l0.9-1.6l2.4-2.3l-0.3-1.3l1.9-2.8v-2.2l0.7-1.6l2.4-2.6l-0.4-1.6l1.6-1.7l-0.1-1.2l-1.3-0.3
	l-0.1-1.4l0.1-2.6l1-1.9l0.9-4.2l3.6-4.2v-1.4l1.9-2.3l0.3-2.9l2.3-3l1.3-4.5l1-1.4l0.7-3l0.7-0.7l0.6-2.3l-1.4-1.9l1,0.4l0.4,1
	l0.4-1.6l-0.6-0.6l0.1-1.3l3.3-3.6l-0.4-0.7l0.7-1.7l3.7-3.9l0.6-0.7v-1.7l1.6-3.6l-1-0.3l-0.8-2.8l0.4,0.2l1.9-7.1l-0.3-2.1h-0.1
	l-0.3,1.2l0.1-1.3l-0.4-0.2l-1.2-0.7l-3.2,1.9l-1.7-0.7l-1.2,0.7l-1.3-0.7l-0.3,1.2l-1.2,0.4l-0.6,1l-4-1.5l-2.9,0.2l-1.3,0.2
	L926,488l-0.4-1.3l-1.2,1.7l-1-1.1l0.4-1l-1.2-0.3l-1.1,0.9l-0.6-0.2l-0.2,0.9l-0.9,0.8l-1.7-0.4l-2.4,1.8l-1.3-0.6l-2.2,0.6
	l-1.4,1.3l-0.7-0.1v-0.6l-0.6,0.3l-0.3,0.9l0.7,1v1.7l1.3,1l0.1,0.7l-0.7,0.6l-1.2,2.9l0.4,0.4l-2,1.2l-2.5-0.6l-0.6,1.3l-0.6-0.4
	l-0.7,0.2l-0.9-2.6l-2.2,1.3l-2.3,0.3l-1.3,1.6v1.3l-2.9,2.4l-1.9-0.7l0.3-0.6l-0.7-1.3l0.4-3.1l-0.7-1.9l-2.7-2.3l-1.3,0.3
	l-0.3-2.6l-1.9-0.8l-0.6-1.3h-0.7l-2.6-1.9l-2.9,0.8l-1.2-0.8l-1,0.3v-0.4l-1.8-0.3l-3.4-3.6l-1.9,0.6l-1.3-0.7l-4.8,0.8l-2.1-0.4
	l-3.2-0.3l-2.1-0.3l-3.5-1l-2.4,2.5l-0.6-0.4l-4.7,2.6l-2.3,0.7l-1.2,2.5l-1.6,0.9l-51.8-5.8l-51-5.2L656.4,475.8L656.4,475.8z
	 M875.4,615.9v0.6l0.6-0.2l-0.7,0.9l0.8,0.4l-0.8,0.3l-0.5-1.3L875.4,615.9z M829.1,701.1l0.7,0.2l-0.6,0.5L829.1,701.1z"/>
<g id="NT" transform="translate(0.000000,2400.000000) scale(0.100000,-0.100000)">
	<path d="M4544.7,23950.4c-0.8-1.6-2-4.9-2.7-7.3c-0.8-3.3-2.1-4.6-4.7-4.6c-2,0-5.7-1.1-8.3-2.3c-3.9-2.1-5-2.1-6.2-0.5
		c-0.8,1.1-2.8,4.4-4.6,7.3c-2.6,4.1-5,5.5-11.9,7.3c-7,1.8-9.3,1.6-11.4-0.1c-3.6-2.9-3.3-4.1,5.6-18.2c8.8-14.3,8.8-13.9,6.1-22.5
		c-1.6-5.2-2.4-5.9-5.9-5.2c-3.7,0.7-3.9,1.3-3.3,9.9c0.6,10.1-0.6,13.2-4.9,13.2c-1.6,0-3.7,2-4.9,4.2c-1.5,3.6-2.8,4.1-6.7,3.6
		c-4.4-0.7-5.5,0.2-10,7.4c-4.8,7.5-5.3,8-10.6,7.3c-7.3-1.2-10.4-4-9.9-9c0.2-2.3-0.2-5.2-1-6.3c-0.7-1.1-0.8-4.2-0.3-6.8
		c0.6-2.6,0.3-5.9-0.4-7.3c-1.3-2.1-2.4-1-6.7,5.5c-5.8,9.4-9,10.5-14.3,4c-2.9-3.7-4.6-4.4-10.3-4c-7.6,0.6-9.9-2.2-7.1-8.5
		c1.5-3.3,1.3-4.1-1.3-4.9c-1.8-0.7-3.6-2.6-4.2-4.7c-0.5-2-2.4-4.2-4.4-5c-3.9-1.8-5.5-8.3-3-12c1.8-2.8,23.1-2.8,28.3-0.2
		c1.6,1,5.5,1.3,8.5,0.7c5.2-1,5.4-1.1,3.6-6c-1.6-4.2-1.5-5.4,0.6-6.8c1.5-1.1,3.1-3.7,3.9-5.9c0.7-2.3,3.7-4.9,8.2-6.9
		c3.9-1.8,7.5-4,8.1-5c0.6-1,3.3-1.3,6.5-0.7l5.5,1l-2.8-4.7c-2.6-4.7-2.6-4.9,3-12.7c4.2-5.9,7.7-8.9,13.2-10.8
		c7.3-2.9,12.4-2.5,12.4,0.4c0,0.8,1.8,2.3,4.1,3.1c2.3,0.8,8.5,4.5,13.9,8c8.6,5.8,10.6,6.4,19.5,6.4c6.7,0,11.9,0.9,16.1,3.2
		c5.7,2.8,7.5,2.8,16.6,1.4c10.7-2.1,17.7-5.1,17.6-8.4c0-2.4,10.6-12.8,13.1-12.8c1.3,0,1-1.1-0.7-2.9c-1.6-1.6-2.8-3.7-2.8-4.7
		c0-1.6,17.5-18,22.1-20.7c1-0.7,3.9-0.3,6.3,0.5c2.4,1,4.6,1.5,4.9,1.1c2.1-2-5-15.8-12.4-23.8c-9.7-11-9.9-14.1-1.1-18.4
		c9.3-4.5,9.7-7.9,5.6-40.2l-3.6-28.5l3.4-2.8c5.9-5,1.5-3.3-5,2c-8,6.4-11.2,6.3-17.9-0.7c-3.6-3.7-8.5-6.4-14.6-8.2
		c-11.6-3.2-12-3.6-15.7-14.2l-3-8.6l-3.7,4.2l-3.6,4.2l-8.6-2.7c-9.3-3-11.2-2.7-11.2,2.1c0,3.6-5.8,8.1-10.2,8.2
		c-1.8,0-13.9-7.9-27.1-17.4l-23.9-17.4l-12.7,3.2c-11.7,3-13,3.7-17.5,10.4c-2.9,4.4-6.1,7.2-8,7.3c-1.8,0-11.2-3.5-20.9-7.9
		l-17.8-7.9l-35.5-1.5c-42-1.7-48-0.4-59.3,11.1c-6.6,6.8-6.9,7.6-7.7,19.8c-0.7,10.3-1.9,14.2-5.8,20.8c-3.7,6.2-5.9,8.1-8.8,8.2
		c-3.6,0-4.6-2-11.4-21.4l-7.5-21.5l-6,6c-5,5-6.5,5.7-9.6,4.5c-2.9-1.3-4.4-1-6.5,1.1c-2.3,2.3-3.9,2.6-8.1,1.6
		c-4.1-1.1-6.3-1-9.1,0.9c-5.2,3.4-6.3,3.1-14.5-3.3c-8.2-6.7-8.9-9.7-3.4-18.2c3.7-5.5,3.8-6.8,2.5-17.1c-0.7-6.2-1.9-11.6-2.2-12
		c-0.5-0.3-6.2,0.3-12.5,1.7l-11.7,2.5l-9.7-7.9c-5.2-4.6-9.7-9-9.7-10.2c0-1.3-1.5-2.6-3.3-3.1c-3.4-0.8-4.8-8.3-1.7-10.1
		c2.3-1.3,2.1-2.9-0.8-6.7c-2.3-3.1-2.3-3.1-1.5,0.3c1.1,4.6-0.7,5.7-24.1,14.7l-20.6,7.8l-7.3-4.3c-7.8-4.5-9-7.5-4.8-12.5
		c2.3-2.3,2.3-3.3,0.7-5.4c-1.1-1.3-1.6-4.4-1.2-6.8c0.5-2.3-0.8-8.3-2.5-13.3c-1.6-5-2.9-11.4-2.5-14.2c0.7-3.7,0-5.4-2.5-7
		c-2.4-1.5-3.1-3.3-2.7-6.8c1-5.9-1-6-8.8-0.6c-7.3,5.1-14.3,5.3-18.5,0.8c-3.7-4.2-10.2-6.9-14.8-6.4c-1.8,0.2-4.1-0.7-4.7-1.8
		c-0.7-1.1-1.4-12.2-1.7-24.9c-0.4-29.1-1.5-32.4-13.8-40.1c-5.2-3.4-10.4-6.1-11.4-6.1s-2.8,2-3.9,4.6c-3.1,6.2-9.9,6.6-18.4,0.8
		c-8.3-5.8-11.8-14.5-8.5-21.2c2.1-3.7,2.1-6.8,0-21.5c-1.4-9.3-2.5-20-2.6-23.8c0-6.7,0.1-7,6.4-8.6c5.4-1.5,7.8-3.8,15.2-14.3
		c4.9-7,10.6-13.6,12.6-14.7c2.6-1.3,2.9-2,1.1-2.1c-1.3,0-7.2-6.6-13-14.7c-10-14.1-11.2-15-29.7-25.8c-18.5-11-19.5-11.3-26.1-9.9
		c-6.7,1.3-7.2,1.9-9.5,10c-3.8,13.7-9.5,14.4-16.6,2.1c-3.1-5.4-4.6-6.5-8.8-6.4c-8,0.1-9.6-3.2-7.4-13.4c1.9-8,1.7-9.3-3.3-22.1
		c-4-10.9-5.3-16.9-5.9-30.1l-0.9-16.3l-6.3-6.7c-10.7-10.6-13.2-21.4-6.1-26.2c3.1-2.1,4.1-4.1,4-8.9c0-5.9-0.7-6.7-9.7-12.6
		l-9.4-6.4l-5.7,4.1c-9.3,6.8-14.3,2.4-10.4-9c2.3-6.5,2.3-6.5-1.6-6.5c-2.3,0-4.1,0.7-4.1,1.5s-1.1,2.8-2.6,4.1
		c-2,2-3.3,2.3-5.7,0.8c-2.3-1.1-4.9-1.1-7.8-0.1c-5.2,1.8-9.9-0.1-9.9-4.1c0.2-1.5,1.5-5.2,3-8.3c2.9-5.5,2.9-5.7-1.1-15.5
		c-2.6-6.7-6.4-12.2-11.5-16.7c-6.8-6.4-7.4-7.4-6.4-12.9c1-5,0.5-6.7-4.5-12.5c-4.9-6-6-8.6-7.3-20.2c-0.9-7.3-0.9-14.3-0.3-15.6
		c0.7-1.3,4.2-2.8,7.6-3.5c5.7-1,7.2-2.4,12.6-10.8c5.6-9.1,6.4-9.8,11.1-9c4.6,0.7,5.9-0.2,10.1-5.6c4.2-5,6.3-6.3,12.8-7.3
		c4.2-0.5,13.3-1.9,20-3c10.7-1.6,13-1.6,17.7,0.9c3.6,2,6,2.3,7,1.2c1.1-1.1-0.7-2.9-5.4-5.4c-8-3.8-18.8-11.6-23-16.2
		c-2.6-2.9-2.6-3.7-0.6-7.6c1.1-2.4,3.4-5.4,4.7-6.5c1.5-1.3,2.6-3.4,2.6-5c0-3.1,16.2-16.4,20.1-16.4c1.1,0,2.6-1,3.1-2.3
		c2-4.7-7.2-4.5-14.8,0.4c-3.4,2.3-4.1,2.1-8.5-2c-3.3-3.3-4.9-6.5-5.6-12c-0.3-4.1-1.7-13.2-2.7-20c-1.7-11.4-1.6-13,1.4-19
		c2-3.6,3.3-8.9,3.3-11.9l-0.2-5.4l-8,8.9c-4.6,4.9-11.8,14.3-16.1,20.9c-8.7,13.1-10.5,14.1-26.9,17.4c-8.9,1.7-10.9,2.7-12.9,6.4
		c-2.3,4.4-2.8,4.6-15.9,4.7c-14.3,0.1-18.1-1.7-17-7.5c0.3-1.8-0.8-3.6-2.8-4.6c-2.9-1.6-3.3-3.3-3.2-16.9
		c0.1-12.4,0.6-15.6,2.7-17.2c2.6-1.8,2.6-2.3,0.2-4.2c-1.6-1.3-2.3-3.7-1.9-7l0.7-5l-4.2,5.5c-2.3,2.9-7.2,9.5-11,14.3
		c-5.6,7-6.9,10.2-6.9,15.4c0.1,8.3-9.2,19.6-16,19.6c-2.4,0-5,0.7-6,1.6c-1.6,1.6-20.7,4.9-29.3,5.1c-3.3,0-5.5-1-6.2-2.6
		c-0.5-1.5,18.5-654.7,42.2-1451.4c32.6-1096.4,43.5-1449.4,45.1-1451c1.6-1.6,185.8-3.2,978.3-7.5c536.8-3,1012.3-5.4,1056.4-5.2
		c80.1,0.4,80.1,0.4,80.9,4c0.3,1.8,20.7,557.5,44.9,1234.6l44.2,1231.2l-18.8,20c-10.2,11-18.5,20.8-18.5,21.9
		c0,1.1-5.3,9.4-11.6,18.5c-6.4,9.1-13.1,19-14.4,21.9c-2.4,4.7-5.5,6.5-27.7,15.5c-13.7,5.6-26.1,10.3-27.6,10.3
		c-9.4,0.1-29.8,7.2-42.4,14.8c-11.9,7.4-13.9,9.2-17,16.5c-3.5,8.3-7.7,12-12.9,11.2c-1.6-0.3-6.2,2.1-10.1,5.5
		c-4.6,3.7-10.4,6.8-16,8.1c-7.6,1.9-10.6,3.7-20.7,13.7c-9.8,9.9-12.1,11.5-14.5,10c-1.8-1.3-3.9-1.3-6.2-0.3
		c-2.6,1.3-5.4,0.7-11.9-2.5c-4.6-2.4-8.3-4.9-8.3-5.8c0-0.8-3.4,0-7.6,1.9c-4.6,2-9.6,3-12.2,2.5c-2.6-0.5-5,0-6.2,1.5
		c-3.1,3.7-5.9,2.9-11.1-3.3c-2.6-3.3-5.2-5-5.9-4.2c-0.5,0.8,0.5,2.8,2.3,4.4c3.9,3.6,4.3,7.8,0.9,10.6c-1.3,1.1-2.4,3.1-2.4,4.2
		c0,1.3-1.5,3.1-3.3,4.2c-1.8,1.1-3.3,3.3-3.3,4.6c0,3.9-3.4,6.5-8.1,6.6c-2.4,0-7,2.4-10.7,5.5c-3.4,2.9-13.9,10.5-23.2,16.8
		c-9.3,6.3-18.5,13.8-20.6,16.6c-2.8,3.6-7.2,6.3-15.2,9c-8.3,2.9-13.2,5.8-17.6,10.5c-5.7,6-6.2,7.8-8.6,22.4
		c-2.2,14.3-3,16.4-8.1,21.9c-4.7,4.9-6.5,5.7-10.1,5c-3.4-1-7.2,0.9-20.4,9.8c-8.9,6-19.1,11.5-22.5,12.7c-3.6,1-6.3,2.4-6.3,3.1
		c0,0.8-7.5,8.2-17,16.4c-19.9,17.5-42.8,32.7-49.4,32.8c-3.4,0-4.7,1-5.5,3.7c-1.5,6-13.4,13.6-22.8,14.7
		c-11.6,1.2-30.3,14-38.2,26.2c-5.8,8.9-14.3,31.8-14.2,38.5c0,2.1,2.7,7.2,6,11.4c5,6.5,7.9,8.4,17.7,11.9
		c8.9,3.3,11.7,4.9,12.1,7.7c0.3,2-0.3,4.6-1.3,5.9c-2.9,3.6,1.1,15,9,25.1c3.9,4.9,8.1,11.8,9.4,15.4c2.3,6,2.9,6.5,9.7,7.2
		c7.2,0.7,7.3,0.9,7.9,6.9c0.3,3.7,3.7,11.1,8.4,18.9c6.9,11.3,9.7,14.2,22.7,23.2c11.8,8.4,16,10.5,21.9,10.9
		c6.3,0.5,7.2,0.9,7.6,4.6c0.3,2.4-0.8,5.2-2.5,6.8c-2.9,2.8-2.9,3.3,1,22.6c3.5,18.2,6.1,24.2,11.4,27.6c1.1,0.7,4.4,5,7.4,9.5
		c4.1,6.5,6.3,12.7,9.1,26.7c3,15.6,4.8,20.2,11.3,30.7c4.1,6.8,7.6,13.7,7.6,15.5c0,3.9-5.9,6.3-15.5,6.4c-7.6,0.1-9.3-1.2-9.7-7.9
		c-0.2-2.9-2.4-6.3-6.9-10.3c-7.3-6.4-10.7-7.2-13.7-3.5c-1.6,2-1.3,2.8,2.1,4.2c5.5,2.4,6.5,5.5,3.7,11.2c-1.6,3.1-3.9,4.9-6.8,5.3
		c-3.1,0.3-4.7,1.6-5,3.7c-0.3,1.8-1.8,4.6-3.3,6.2c-2.3,2.4-2.1,3.1,0.5,6c2.4,2.8,2.8,5,1.9,17.1c-1.2,15.1-0.1,16.9,5.6,8.9
		c4.1-5.7,7.2-6.3,10.9-1.7c1.6,1.8,3.7,3.3,4.7,3.3c1.1,0,3.3,3.7,4.8,8.1c3.4,9.9,1.6,13.7-5.9,12.7c-3.6-0.7-4.6-0.2-4.6,2.3
		c0,1.5-1.8,4.1-4.1,5.5c-4.7,3.1-4.9,3.3-1.4,11.2l2.4,6l3.3-3.4c6-6.5,10.1-3.8,12.1,7.9l1.4,7.3l3.3-10.3
		c2-5.7,4.5-10.9,5.8-11.7c4.4-2.8,7.8,1,9,10.5c1.1,7.3,1.9,8.9,4.3,8.9c2,0,3.9,1.8,4.9,4.4l1.6,4.4l3.4-5.5
		c8.4-14.3,11.1-18,13.1-18c2.9,0,6,3.4,6,6.7c0,1.5,1.1,3.1,2.4,3.7c1.3,0.5,3.3,2.8,4.1,5c1,2.4,2.4,3.7,3.7,3.1
		c3.3-1.1,7.6,3.5,7.7,8c0,2.9,1,3.9,3.9,3.9c2.1,0,6.2,1.1,9.1,2.3l5,2.6l2.8-6.8c3.5-8.1,3-9.3-3-9.3c-5.5,0-8.9-3.5-7.9-8
		c0.5-1.6-0.2-3.9-1.5-5c-1.3-1-2.3-2.9-2.3-4.2c0-3.7,8.2-13.6,11.3-13.6c1.8,0,6.3,4.7,11.5,11.3c8.6,11.3,10.4,12.8,12.3,9.7
		c1.5-2.3,11.7-2.1,13.3,0.4c0.7,1,2.1,6.3,3,11.7c1.7,9.1,2.1,9.8,6.1,9.8c2.4,0,5.5,1.1,6.7,2.4c3.1,3.3,11.6,28.7,10.3,30.8
		c-0.5,1,0.2,2.8,1.5,4.2c2.4,2.3,2.8,2.3,5.2,0c3.1-3.3,2.1-3.3,10.9,0.4c3.9,1.6,7.6,4.1,8.1,5.4c1.3,3.4-5.9,18.4-10.4,21.3
		c-2.1,1.5-6.8,3.4-10.6,4.7c-5.9,1.6-6.8,2.6-7.2,7.1c-0.5,4.2-1.5,5.2-6.5,6.7c-3.4,1-7.3,3-8.8,4.5c-7.4,7.6,8.6,7.2,18.9-0.3
		c3.9-2.8,7.6-5.1,8.3-5.1c2.8,0,6.3,5.4,5.8,8.6c-1.4,7-2.6,25.7-1.6,27.2c0.5,0.7,4.4,0.3,8.9-0.9c6.5-1.6,8.5-1.9,10.7-0.1
		c2.6,1.8,2.6,2.9,1.1,8.5c-1.1,3.6-1.9,7.8-1.9,9.3c0,3.7,11.3,15.5,15.1,15.5c2.1,0,4.2,2.6,7.3,8.5c2.4,5.2,9.7,14.4,19.2,24
		c13.1,13.7,15.9,15.8,21.9,16.7c6.8,1,11.2,4.9,14.1,12.4c1.1,3.4-2.7,7.8-6.9,7.9c-2.1,0-3.3,1.6-3.9,5.9c-0.7,3.1-2.5,7-4.3,8.5
		c-1.6,1.5-3.1,3.9-3.1,5.4c0,4.1-15.7,16.2-20.9,16.3c-3.4,0-5.2,1.5-8,6.4c-2,3.4-4.6,6.7-5.6,7.2c-1,0.3-8.9-1-17.4-3.5
		c-14.5-4-15.5-4.5-16.9-9.3c-1.5-5-1.6-5.2-5.7-2.4c-6,3.9-8.2,11.2-7.1,22.7c0.9,9.3,0.8,10.1-3,12.5c-2.6,1.6-5.5,6.5-7.5,12.5
		c-2,5.4-4.8,10.7-6.6,11.9c-2.9,2-2.8,2.3,2.9,4.2c13.5,4.6,16.4,9.2,10.4,16.5c-2.8,3.4-3.6,3.6-6.5,2c-1.8-1.1-5-2.1-7.2-2
		c-2.1,0-5.5-1.8-7.6-4c-3.4-3.6-4.9-4.1-10.6-3c-9.1,1.4-14.8-2.3-25.3-16.1c-4.6-5.9-9-10.3-9.7-10c-0.7,0.5-5.4-0.3-10.4-1.5
		c-8-2.2-9.9-3.8-17.3-12.9c-4.6-5.7-8.4-10.8-8.4-11.6c0-0.7-2.4-2-5.2-2.8c-4.9-1.5-5.4-2.1-5.3-7.6c0.2-7.8,3-11.1,9.3-11.2
		c3.3,0,5.9-1.1,7.2-3.4c1.6-2.8,3.7-3.3,15-3.4l13-0.1l-0.5-4.9c-0.3-2.6-1.8-6.2-3.4-7.8c-1.5-1.6-4-8.5-5.5-15.1
		c-2.4-10.4-3.7-13-10.4-19.8c-6.5-6.8-8.2-7.7-12.4-6.7c-2.6,0.5-6,2.4-7.6,4.5c-2.4,3.4-3.3,3.6-10.9,2.1
		c-7.3-1.4-8.6-1.2-11.1,1.4c-3.7,4.1-8.1,3.8-11.2-1c-1.5-2.3-3.7-4.1-5-4.1c-1.8,0-1.6,1.3,1.1,5.7c3.4,5.4,3.4,6,1.1,8.8
		c-3.4,3.7-3.3,4.6,0.8,9.4c1.8,2.3,3.3,5.2,3.3,6.3c0,1.3,2.3,5.9,5.1,10.4c2.8,4.4,4.8,9.8,4.5,11.7c-0.5,3.4-1.5,3.7-10.6,4.3
		c-9.6,0.6-10.4,0.3-12.2-3.6c-2.3-4.9-3.9-5.2-6.2-0.8c-1.5,2.6-0.7,4.2,4.5,9.4c3.4,3.4,9.9,13.2,14.5,21.7
		c6.9,13.3,7.9,15.8,6,18.2c-3.1,3.6-4.9,3.3-13.7-2.2c-5.9-3.6-7.6-5.8-7.7-8.8c0-5.5-5.8-8.8-16.4-9c-6.2-0.2-11.9-1.7-18.4-4.9
		c-9.8-4.8-22.4-14.8-22.6-18c0-1-2.1-3.4-4.6-5.4l-4.6-3.6l-5.1,7.2c-6.7,9.7-6.6,14.5,1.3,20.8c3.3,2.8,13.1,12.1,21.8,20.8
		c14.3,14.2,16.5,15.8,21.7,15.7c5.7,0,9.8,2.7,15.1,10.6c3.1,4.4,1.4,8.8-3.3,8.8c-2.1,0-18.7-5.1-36.9-11.1
		c-23.4-7.9-34.8-12.6-38.2-15.8c-10.2-9-10.4-9.2-15.1-4.6c-7.5,7.3-11.8,7.1-21.5-0.3c-7.8-6.1-8.6-6.2-10.4-3.6
		c-1.5,2-5,3.1-11.7,3.5c-9.1,0.8-10.1,0.4-18.9-5.9c-6.8-4.8-9.5-7.7-9.5-10.5c0-3.3-1.5-4.2-9.3-6.7c-7-2.2-9.9-4.3-11.7-7.4
		c-1.8-3.6-3.3-4.4-8.5-4.3c-3.6,0-7-0.9-7.6-2c-1.8-3.1-20.1-10-21.6-8.1c-0.8,0.8-4.7,6.7-8.7,13.3c-8,12.8-16,18.5-26.9,19.2
		c-3.3,0.3-7.8,0.6-10.3,0.8c-4.4,0.3-4.6,0.7-4.5,9.1c0.1,9.3-1.2,11.2-8.4,13.1c-2.6,0.5-4.6,2.1-4.6,3.3c0,1.3-1.5,3.9-3.1,6
		c-2.3,2.9-2.8,4.6-1.5,6.8c2.1,3.9-2,8.6-8.7,10.2c-5.5,1.3-18.7-1.7-22.8-5c-1.5-1.3-3.4-4.4-4.4-6.7
		c-2.6-6.2-13.4-12.3-28.9-16.2c-11.2-2.8-14.3-3-22.6-1.4c-13.8,2.7-25,8.3-33.3,17c-6.9,7.3-7.5,7.7-13.8,6.6
		c-9.3-1.4-11.1-3.3-10-10.3c0.5-3.4,0.5-6.5-0.3-7c-1.5-1.6-7.2,12.3-6.4,15.5c0.8,3.1-2.5,8.9-10.6,18.5
		c-5.5,6.2-5.9,6.3-10.7,4.7c-5-1.8-5.4-1.6-11.9,5.5c-3.6,3.9-7.5,7.3-8.7,7.3c-1.3,0-7.5-3.2-14.1-7.2
		c-15.1-9.2-23.7-9.9-28.8-2.4c-2,2.6-3.4,5-3.4,5.5c0,0.3,5.9,4.6,13,9.2c7.2,4.5,13.4,9.2,13.8,10.2c1,2.8-3,10.3-6.9,13.1
		c-2.6,1.8-5,2-9.4,1.1c-5-1.1-6.3-0.8-8.5,2.1c-2.1,2.8-4.1,3.3-12.2,2.9c-8.6-0.4-9.8-0.9-10.3-4c-0.3-2.1-2.6-5.2-5.3-7
		c-4.1-2.9-6.2-3.3-14.5-2.2c-8.1,0.9-9.8,0.8-11.2-1.7c-0.8-1.6-1.1-4.2-0.8-5.9c1.1-4.1-5.1-7.2-7.6-3.8c-1.3,1.5-4.9,2.4-9.1,2.5
		c-6.8,0.1-7.2,0.3-6.8,4.7c0.8,9.6-3.2,10.7-14.5,3.8c-6.8-4.2-8.1-4.5-10.4-2.3c-1.3,1.3-3.6,2.3-5,2.3c-1.3,0-3.1,2.3-4.1,5.4
		c-1.3,4.6-2.1,5.2-6.5,5c-4.2-0.3-5.5,0.5-7.2,4.5c-3.2,8.3-6.2,8.6-18.5,2.2l-10.7-5.6l-11.7,4l-11.7,3.8l-9.2,17.2
		c-6.2,11.7-9,18.7-8.7,22.2c0,3.3-1.1,6.7-3,8.9c-1.8,2.1-10,12-18.3,21.7c-22.7,27.4-22.4,27-31.9,25.1
		c-13.5-2.8-14.8-5.8-6.6-15.5c4.2-5,4.6-5.5,1.1-3.3c-2.1,1.5-5,2.8-6.5,2.8c-1.3,0-9-7.2-17-16.3c-13.8-15.5-14.7-16.3-19.6-15.4
		c-7.2,1.6-10.4,5.6-12.1,14.7c-1.1,6.5-3,9.6-10.6,17.3c-5.2,5.2-11.8,10.8-14.7,12.5c-3.9,2.1-5.2,3.9-4.7,5.9
		c1.5,4.4-3,13-10.9,20.8c-6.9,6.9-7.7,7.3-14.5,6.3l-7.2-0.9l-7.2,13.4C4553,23952.9,4548,23956.6,4544.7,23950.4z M4812.2,23784.1
		c-1.1-0.3-3.1-0.3-4.1,0c-1.1,0.5-0.3,0.8,2,0.8C4812.3,23784.9,4813.1,23784.6,4812.2,23784.1z M5663.4,23638.8
		c1.6-1,1.3-1.5-1.3-1.5c-2.8,0-3.7,1-3.7,3.7c0,2.6,0.5,2.9,1.5,1.3C5660.6,23641.4,5662.2,23639.7,5663.4,23638.8z
		 M4161.7,23586.3c2.4-1.1,4.1-3.1,4.1-5.4c0-1.8,0.8-4.2,2-5.4c1.3-1.3,1.3-2,0.2-2c-1,0-2.6,1.1-3.7,2.4s-3.4,2.4-5,2.4
		c-2.3,0-3.1,1.1-3.1,4.9C4156,23589,4156,23589,4161.7,23586.3z M4091,23537.5c0.7-1.3,0.3-2.8-0.5-3.3c-1-0.7-1.6,0.5-1.6,2.3
		C4088.9,23540.7,4089.9,23540.9,4091,23537.5z M5569.2,23421.7c-1-2.6-1.8-3.3-2.6-1.8c-0.7,1-0.3,3.1,0.8,4.4
		C5570.1,23427.5,5570.8,23426.2,5569.2,23421.7z M3869.4,22895.5c0-0.8-0.7-1.5-1.6-1.5c-0.8,0-1.6,1.1-1.6,2.6
		c0,1.3,0.8,2,1.6,1.5C3868.8,22897.6,3869.4,22896.5,3869.4,22895.5z"/>
</g>
<path id="qld" d="M711.9,0.7L711,1.4l-1.9-0.2l-1,2.9L706.2,6l-2.7,0.2l0.4,0.9l-1.1-0.7l0.4-0.3l-2,1.2l0.4,3.2l-0.2,0.6l0.3,0.6
	l0.3-0.6l-0.1,0.7l-1.3,2.4L701,18l-1,2.2l-0.8,1.8l0,0.6l-0.3,0l-0.9,3l-0.2,0.3l-0.6,1.7l0.1,0.4l2.5-0.1l-0.6,0.8l-2.4-0.3
	l-1.3,4.9l0.1,0.4l0.6-0.3l-0.4,0.4l1,0.4l0.6,1.3l0.8-1.5l0.1,0l-0.6,2.3l-1.9-1l-0.6,1l0.4,1.7l-1.2,0.6l1-0.7l-1.3-4.2l0.6-0.7
	l-0.9-0.2l-0.7,0.7l-3,6.1L691,40l0.3-0.3l0.9,0.6l-0.9-0.2l-0.3,0.4l0.2-0.4l-1.4-0.2l-3.4,8.3l0.9,0.6l1.7-0.6l0-0.6l-1.2,0
	l0.6-1.9l0.6,0.5l1.9-0.2l-1.9,1l1.7,0.8l1.4,1.8l1.6-0.6l0.4,0.4l1.2-0.7l1,0.9l-1.3-0.2l-0.6,0.6l-0.3-0.4l-1.9,1.3l1.4,0.6l1,1.6
	l1.4-0.3l-0.4,0.1l0.4,0.3l-1.7,0.4l0.7,4.2l-1.3-2l0.1-2.8l-1-1.2l-0.9,0.3l0-0.7l-2,4.5l-2.5,1.6l-0.4-0.3l-0.5,1.4l-0.4,1L687,61
	l0,3l1.7,2.6l-1.2,2l0.4,0.3l1-0.8l0.7,0l-1.4,0.8l1.6,1.2l-0.6-0.1l0.3,1l-0.6-0.7l-0.4,0.3l0.3-0.7l-1.2,0.4l-0.6-0.6l-2.6,4.1
	l-2.1,8.2l-0.1,2l3,4.2l0.6,2.8l-0.6-0.2l0.1,2.3l-2.2,5.5l1.5,9.8l1.2,2l0.7,3l-1.2,1.7l0.3,1.2l-1.3,1.2l-0.2,0.1l-1.2,3.3
	l-0.1,0.6l-2.2,4.9l-2.1,9.2l-0.4,0.6l1.3,4.2l-2,3.2l-1.6,4.8l0,0.2l0.2,1.9l-1,1.8l-0.9,0.9l-0.7,2.6l-0.1,0.2l-2.8,2.7l-0.3-0.1
	L670,161l-2.6,2.8l-0.3,1.2l0.6,0l-1,3.4l-0.3,0.6l-1.2,4.8l-1.6,2.2l-3.3,1.2l-2.6,1.9l-0.7,0.1l-3,1.5l0.1-0.6l-2.2,0.9l-3.5,0.3
	l-0.6,0l-2.9,0.4l-2.3-0.4l-1.2-0.9l-0.6-1.4l-2.5-0.9l-0.4-0.7l-1.6,0.2l-0.7-0.7l-1.9-0.4l-0.9-1l-0.3,0.9l-0.1-1.3l-1.2-0.6
	l-1.8-2l-0.7,0.4l0.2-0.6l-0.7-0.4l-3-0.3l-1.6-1.3l-1.9-3.4l-0.4-2.8l0.4-1.4l-1.6-0.7l-1.3-1.6l0-1l-7-2.1l-3.2-2l-3.7,0.3l-3-1.3
	l-0.6,0l-0.1,0l-4.3-1.9l0-0.6l-1.3-0.6l-3.3-3.4l-3.7,248.2l71.1,3l-3.8,78.6l80.5,5.6l51,4.8l51.3,5.8l2.1-1.3l1.2-2.5l1.3,0
	l5.6-3.3l0.6,0.4l2.4-2.5l3.5,1l2.1,0.3l3.2,0.3l3.9,0.1l4.3,0.2l1.9-0.6l3.4,3.6l1.8,0.3l0,0.4l1-0.3l1.2,0.8l2.9-0.8l2.6,1.9
	l0.7,0l0.6,1.3l1.9,0.8l0.3,2.6l1.3-0.3l2.7,2.3l0.7,1.9l-0.4,3.1l0.7,1.3l-0.3,0.6l1.9,0.7l2.9-2.4l0-1.3l1.3-1.6l2.3-0.3l2.2-1.3
	l0.9,2.6l0.7-0.2l0.6,0.4l0.6-1.3l2.5,0.6l2-1.2l-0.4-0.4l1.2-2.9l0.7-0.6l-0.1-0.7l-1.3-1l0-1.7l-0.7-1l0.3-0.9l0.6-0.3l0,0.6
	l0.7,0.1l1.4-1.3l2.2-0.6l1.3,0.6l2.4-1.8l1.7,0.4l0.9-0.8l0.2-0.9l0.6,0.2l0.6-0.9l1-0.2l0.7,0.4l-0.4,1l1,1.1l1.2-1.7l0.4,1.3
	l2.3,1.7l1.3-0.2l4.1,0.2l3.4,0.1l1.2-0.4l0.3-1.2l1.3,0.7l1.2-0.7l1.7,0.7l3.2-1.9l1.2,0.7l0.4-0.3l-0.5,0l-1-1l-0.2-1l-0.4,0.2
	l0.4-0.3l-0.4-5.9l0.6-2.2l-0.9-0.4l-0.1-2.2l-0.9-1.2l0-1.7l0.6-0.3l-0.7-1l0.4-0.9l-0.7,0l-0.3-1.4l-0.3,0.4l-1-0.3l-0.1-2l-1,0.6
	l-1,0.3l1.3-0.6l0.6-1.4l-1.6-1l-0.3-1.4l-0.8,0.2l1-0.3l-0.2-1.2l0.4,0.9l0.7,0.1l0.4-1.3l0-0.6l-1.7-0.1l0-1.9l0.3,0.7l0.7-1
	l1.9-0.6l-0.7-0.3l-0.4-1.6l-0.4,0.2l0.3-0.7l-0.7-0.2l0.2-0.4l0.6,0.3l-0.4-1l0.8-0.7l-0.3,1.9l1.7,3.5l1-0.7l-1.1-5.2l0.4-1.9
	l-0.7,1.9l0.4-1.9l0.3,0l0.4,0l0.2-3.3l-2-1.7l1.3,0.6l0.3-3l1.3-3.7l-1.9,0l0.8-0.2l0.4-3.9l3.8-7.4l-0.8,0.4l-1-0.7l-0.4-3
	l-0.7-0.4l0.6,0.6l-0.7,0.6l0.3,1l-0.3,0.6l-0.7-0.3l0.7,0.9l-0.6,0.1l-0.6,1.3l-0.4-0.7l1-0.9l-0.3-0.8l0.3,0l0-0.8l-0.2,0l0.2-1
	l-0.7-0.8l-0.9,0.1l0,0.4l-0.2-0.7l1,0l0.1-0.6l-1-0.4l-0.7-1.2l0.4-0.4l-1.2-0.4l0.4-0.6l0.7,0.3l-0.7-3.3l0.7-0.1l-0.4-0.4
	l0.9,0.2l0-0.9l-0.1,0l0.7-0.7l-0.9,0.1l0.9-0.4l0.3,0.3l0.6-0.9l-2.8,1.3l-2.2-0.1l2.2-0.2l0.9-1.3l0.8,0l-1-0.6l0.7,0.2l0.6,0.6
	l0-4l-1.4-0.3l-0.3-1l-0.7,0.6l-3-1l-0.9-1.9l-1.4-0.3l-0.3,0.6l0.3-0.7l-0.4-0.1l2,0.3l0.4-0.4l-1.7-2.4l-1.2-2.9l0.3-1l-0.8,0.3
	l1-0.6l-0.3-2.7l-1.2-1.9l-0.4,0l-0.3,1l-0.9,0l0.2-1.6l-2-0.6l-1.3-1.6l-0.6-0.7l0.6,0.7l-0.4-0.3l-0.4,0.2l0.3-0.2l-1.8-2.6
	l-0.9-1.9l-0.7,0.2l0.4-0.4l-1.3-2.6l-0.4-4.9l-1.2-2.6l-0.3,0.6l-0.8,0l-1-1.6l-1-0.3l1,0.2l-0.7-2.3l0.4-0.4l-0.6-0.4l-0.2,0.4
	l-2-1.4l-0.9-0.2l-0.1,0.9l0.7-0.2l0,0.7l0.9,0.7l0.1,0.4l-0.4-0.2l0.3,1l-1-1.3l-1.5-0.9l-0.6,0.9l0.1,0.2l-0.4,1l-0.4-1.7
	l-0.9-0.3l-0.4,0.7l-0.4-1.3l-0.2,1.6l-0.6-1.6l0.4-0.3l-1.2-2.2l-0.4,0l-0.4-2l-0.9,1l0.3-1.6l-2.9-1.6l-0.6-1.2l0.3-1.2l-0.4,0.3
	l-0.4-1.2l0.4-0.3l-0.7-0.5l0.6,0l-1.6-1.1l-0.6-2l0,1.4l-0.4,0l0.3-1.2l-0.9-0.6l-0.1,1.2l-0.9,0.3l0.4,0.4l-0.6-0.4l-0.1,1.7
	l-0.4-1.7l-1.3-1.7l0.7,0.1l0-0.4l-1.9-1.4l1.6,0.3l0.4-0.6l-1.2-2.2l-0.3-2.3l-0.6-0.3l0-0.4l0.8,0.4l1-1.3l-0.2-1l-1.1-0.6l0.6,0
	l0.2-1l-1-0.9l1.2-4.5L899,343l0.4-1.4l-0.7,0.6l-0.3-1.2l1.7,0.6l-0.1-1.4l1.7-5.1l-1.3-1.1l0.3-3.2l-0.6-0.1l0.4,0.8l-1,1l0.3,1.1
	l-1-0.1l-0.4-0.9l0.9,0.7l0-2l-1,0.1l0.3-0.4l-0.8-1.9l0.6,0.4l0.2-0.4l0.8,1.3l1-1.7l-1.4-0.7l-0.3-2.2l-0.6,0.5l0.5,0.8l-0.3,1.3
	l-0.2-0.7l-0.7,0.4l0.3-0.6l0.4-0.2l-1-0.7l0.7-0.2l-0.4-0.8l0.4,0.4l0.3-0.6l-2-1l-1,2.2l0.6,0.9l-0.6-0.3l0.1,0.4l1.2,0.7
	l-1.3-0.4l1.6,1.6l-0.7-0.6l-0.4,0.2l2.2,1.4l-0.2,0.6l-0.6-0.4l0,0.6l-0.3-1.2l-1-0.3l0.7,2.6l1,0.3l-0.8,0l0.4,1l-1.4-2.6
	l-0.9,0.7l0.3-0.6l-0.6-0.6l0.6,0.2l-1.3-1.2l0.4,1.4l-0.4-1.3l-0.9-0.2l-0.9-1.4l-2.3-1.9l0-0.6l-2-0.4l-0.8-1l0.4-0.8l-0.7-0.7
	l0-1.2l-1.3-1.3l-0.2-1.7l-0.8-0.8l-2.3,1.3l-1.2,4l1.3,0.4l-1.4,0.2l2.1,7.9l0.6,0.7l-1.3-1l-0.6-2.3l-1.7-1.6l-1.6-3.2l-0.7,1.2
	l-2.6,1.6l0.3,0.3l-0.9-0.2l-1,1.9l0.7-2.2l1.4-0.9l0.3-1.9l-0.3-1.2l-1,0.6l-0.7-0.4l0.9,0l-0.6-1.6l-1.6-0.2l-0.9,1l-0.6-0.3
	l1.5-0.7l1.1-0.6l-0.8-2.3l-0.4,0.2l0.6-0.6l-0.8-2.7l0.3-1.2l-1.3-2.9l0.4-2.2l-0.8,0l0.7-0.4l-0.6-0.6l-0.1-1.6l0.7-0.3l0.6,0.4
	l0.2-0.4l-0.7-0.4l-0.2-2l1.6-2.3l-0.6-0.4l-0.7,1.1l-0.1-0.7l-0.9,0l-0.4-0.6l0.6-1.2l-1.2,0.3l-0.2-0.8l-1.2,0.6l-0.1,0.7l0-1.2
	l-0.6-0.4l0.9,0l0.2-1.1l0.8,0.3l0-0.4l-1.6-0.7l1.3,0l-0.2-3.2l-0.7,0l-0.4-0.9l-1.9,1.7l0.6-1l-0.7-0.2l1-0.8l-0.6-1l-0.7,0.1
	l0.6-0.3l0.2,0.2l0.3,0.3l0.4-1.9l-1.2-0.3l1.3,0l0.2,0.6l0.4-2l-0.8,0l-0.7-1.1l-0.3-0.9l-0.6-0.3l-0.3,0.8l-0.6-1.6l-1.6,0.1
	l-0.6,0.6l0.3-1.4l0.4,0.1l-0.4-0.7l1.2,0l-0.6-0.8l-0.7,0.3l-1.2-1.2l-1,0.3l-0.6-1l-1.4,1l0.3-2l-1.2-0.3l0.3-0.6l1,0l-2.6-2.3
	l0-1l-1,0.2l1.3-1l-2.2-2.7l0.9,0.6l1.1-1.6l-0.7-1.7l2,1.3l1-0.7l0-0.7l0.4,2.2l0.7,0.9l1.9,0.4l-1-1.3l0.7-0.3l-0.3-0.3l-0.6,0
	l-0.8-1.2l0.1-1l-0.4-0.3l0.6-0.7l-1.7-1.9l0.8-0.2l-0.6-0.3l0-1l-0.6-0.2l-0.6,1l-1.3-0.2l0.3-1l-0.6,0.1l0-0.6l0.6-1.2l-0.8,1
	l-0.2-1.3l-0.3,1.3l-0.7-0.3l0.6-0.9l-1,0.4l0.4-0.8l-0.7,0.1l0-2.9l-0.9,0.7l-1.7-1.2l-0.4,1.4l1.2,0.4l-1.3,0.8l-0.4-0.1l-0.2,0.6
	l-0.3-0.2l-0.2-0.6l-1.6-0.3l0.1-0.3l-1.6-1.6l0.4-0.3l-1.3-1l0.3-0.6l0.7,0.1l-0.1-1.3l-0.6,0.1l-0.4-0.8l-1.7-0.4l0.3,0.6
	l-1.2-0.7l-0.6-1.7l-2.5,0.9l-1.1-0.3l-1-1.2l0.3,0.8l-0.9-1.5l-0.3-3.2l-0.6-0.9l-1.7-0.3l-0.3,1.7l0.7,1.8l0.6,0.2l-0.4,0.1
	l-2.7-0.7l-1.9-2.9l-0.4,0.4l0.3-0.9l0.3,0.2l0.1-0.9l-1.6-0.6l1.4-0.2l-0.3-1.3l-0.8-0.4l0.8,0.3l0,0.1l-0.4-1.3l-0.2,0.1l-0.1-0.3
	l-1.1-1.9l-0.7-1.8l-0.5,0.8l-3.2-0.9l-1.6,0.9l-0.2-0.7l-1.4-0.4l-0.4,0.7l0.2-0.9l-0.7,0l-0.3,1.2l-0.3-1.7l-1.6-2.6l0.6-1l-1-2
	l0.1,0.7l-1.6,2.3l-2-0.3l-0.5-0.9l-0.4,0.2l0.3-0.7l-1.2-0.4l-0.3-1.5l-3-0.3l-4.6-3.4l-4.4-6.1l2.3-5.8l-0.7-0.2l0.7-0.6l-0.1-1
	l-0.3-0.4l0.7,0.2l-0.2-0.9l-0.4-0.3l-0.1,0.4l-0.4-0.7l-0.5,0.1l-0.3-0.6l-0.9-0.1l-0.6,0.6l0.4-0.8l-0.7-0.3l0.4-0.1l-0.3-0.6
	l-0.7,0.3l-0.4-2.6l0,1l-2.9-4.5l-0.3-2.2l0.9-2l0.7-1.3l-0.7-0.3l0.7,0.1l0.4-1.3l0.1,0.4l0.7-0.3l0-1.9l0.7-1.1l-0.7-2l0.7-0.3
	l-0.3-1.7l1.3-1.4l-0.3-1.3l-0.6,0.9l-0.1-0.1l0.6-0.9l-1.4-2.3l0.4-3l-1.6-2l-1.2-5.2l-1.3-2l0.3-1.7l1.6-2.6l-0.8-0.9l-0.4,0.9
	l-0.7,0.2l-0.6-1l-1.9,1.3l-0.4-0.6l0.4-0.7l-0.6-0.3l-0.7-1.9l-0.8-0.7l-0.3-1l-2.2-1.6l-2.3-3.9l-0.1-1.8l-1.4-0.6l0.3-3.2
	l0.9-1.4l-0.9-0.3l1.9,0.2l-1.2-2.8l1.2-2.4l-1.6-3.9l-1.4-0.3l0.9-2.5l-0.6-0.9l0.4-2.2l-1.2-2.2l0.3-1.9l-2.6-1.6l1.4,0.3l0.3-0.9
	l-0.6-1l-0.4,0l1.6-2.7l-0.3-0.7l1.9-1l-0.4-1.4l-0.7,0.9l-1.2-0.2l-0.4-2.9l-0.7-0.7l0.7,0.4l1-2l2-1.9l-0.1-0.8l-1.8,0l-1.4-2.2
	l0.3-1.1l-3-0.4l-0.4-0.7l-0.4,0.6l0-0.7l-0.9,0.3l-0.7-1.4l-1.4-0.7l0-1.6l-0.7-0.4l-0.3-1.4l-2.7-0.6l-0.4-1.3l-2.5-0.2l-1.6-2.2
	l0-1.2l1-1.7l-1.6-0.2l0.4-2.6l-2-2.7l-0.7,0l-0.8,1.7l-1.3,0.7l0.3,0.3l-1.1-0.1l-1.3,0.7l-1.6-0.3l-1.6-1.5l-0.6,0.2l0,1.7
	l-0.7,1.6l-3.5,2.3l-2-0.2l-0.4,0.9l-0.3-1l-1.7-0.4l-1.3-1l-1.4-2.3l-1-4l-0.3-5.2l-1.6-1.4l-0.6-2.6l-1.6-2.8l1-4.3l0.9-1.3
	l-1.2-0.2l1,0l0.4-3l-0.4-1.3l-1.3-1.3l0.1-3.9l-0.4-1.3l0-5.1l1.3-2.3l-1.6,0.4l-0.8-0.4l-1.3,0.8l0.4,1l-0.7,0.6l0-0.6l-0.9-0.3
	l0.6-0.3l-0.7-0.3l0.1-1.6l1.9-3.9l-0.6-0.3l1-1.3l-3.2-1.8l-0.9-1.6l-0.9,0.4l1-0.7l-0.2-2l-0.6-0.7l-1.7-1.2l-1.2,0l0.3,0.4
	l-0.7-0.7l-0.4,0.6l-0.6-0.6l0.6-4.3l-0.9-1.2l0.9,0.6l2.6-4.2l1,0.2l0.3-0.6l-0.7-0.4l-1,0.6l-0.6-1.6l-1.3-0.7l-1.7,1l-1.4-0.2
	l-3-2.7l0.3-5.2l-0.7-4.5l1.2-2l-0.6-1.7l-1.1-1.3l0-5.4l-1.8-3.3l-1.1,0.3l-0.6,0.8l0.6-1.4l-0.7-0.4l-1.3,0.3l0.7-1.2l-0.7-1
	l0,0.4l-0.9-0.4L712,6.1l0.6,1.4l-0.9-0.7l-0.4,0.7l-0.5,0.2l0.6-3l0.7-0.2l1.7-2.2l-1.3-0.6L711.9,0.7L711.9,0.7z M826.6,239.3
	L826.6,239.3l-0.2-0.4L826.6,239.3z M826.5,238.9l-0.6-1.8l-0.6-0.4L826.5,238.9z M872.4,323.2l0.5,0l-0.3,0.4L872.4,323.2z
	 M919.3,373.5l-0.6,1.5l-0.1-1.2L919.3,373.5z M927.6,392.7l0.4,0.3l-0.9,0L927.6,392.7z M931.6,396L931.6,396l0.3,1L931.6,396z"/>
<g id="sa" transform="translate(0.000000,486.000000) scale(0.100000,-0.100000)">
	<path d="M3861.1,271.8l-34.3-752.6l22.5,2.9c82.6,12.1,175.9,17.9,290.4,16.6c104.4-0.7,137.1,1.1,154.4,8.9
		c12.5,5.4,27.6,10.1,33.6,9.7c27.1-1.2,120.8-59.2,165.6-102.5c25.4-25,52.8-47.6,60.8-50.6c8-3,31.9,0.5,56.7,7.4
		c37.1,11.5,46,11.9,71.4,4c16-5.4,41.1-21.1,55.4-35.1l26.7-25.7l69.7-3.2c69.7-3.2,70.4-3.3,90.5-25.3l20.7-21.6l-12.6-24
		c-17.8-32.4-9.3-39.5,31.4-26.7c31.6,9.8,33,9.8,41.9-2.5c16.5-25.3,6.7-46.2-23.4-50.7c-21.9-2.9-19.9-19,7.3-62.8
		c13.9-21.9,25.9-43,27.1-46.4c1.1-4,15.9-6.7,32.9-6.8c25.1,0.2,35.1-3,51.4-18.3c28.7-25.9,39-51,33-79.2
		c-4.4-21.7-2.4-24.4,27-48.3c41.3-31.7,62.1-65.2,60.7-97c-0.6-13.9,2.6-31.3,7-38.9c11.3-19.7,16.2-62.5,7.1-67.4
		c-3.5-1.8-7.4-13.6-7.9-26.2c-0.9-18.5,4.2-26.8,31.6-51.2c18.3-16.1,32.3-34.7,32.1-41.3c-0.8-17.9,10.4-23,16.6-7.4
		c6.2,16.9,31.9,15.8,47.4-2.2c18.6-22.1,24.7-10.4,22.4,45.4l-2.4,51.9l20,9c14.6,6.6,22.5,16.9,29.7,41.1
		c8.6,26.2,20.1,40.2,68.2,81.8c47.3,41.7,66.2,53.4,101.3,64.4c55,16,94.5,48.8,107.1,88.7c14.2,44.5,42,88.4,64.4,102.6
		c18.1,11.1,21.1,16.9,26.5,60.6c3.2,26.4,8.6,53.4,10.9,60c5.2,11,6.6,10.9,17.6-0.2c14.9-14.6,24.1-50.8,22.3-90.7
		c-0.9-19.2,2.5-34,8.3-39.5c15-13.3,11.3-19.1-14.9-28.5c-33.1-11.8-36.3-24.2-16.8-55c8.9-14.3,16.2-30.6,16-35.9
		c-0.2-4.6-22.5-31.5-49.5-58.8c-29.1-29.2-50.8-57.4-54.8-70.5c-3.2-11.1-9.8-66-15-121.5c-4.6-54.9-11.5-102.4-15-105.5
		c-2.8-2.5-24-4.3-47-3.2c-41.3,1.8-42,1.2-53.9-21.4c-7.3-12.2-17.5-26.4-23.8-30.8c-6.4-5-11.6-16.1-11.9-24.7
		c-0.7-14.6,1.3-16,15-12.6c8.3,2.3,24.7,4.9,35.6,6.3c11.6,1.5,36.3,8.9,55.8,18.1c33.9,14.4,37.3,14.9,63.4,5.1
		c34-12.9,39-8.5,50,38.2c4.3,19.7,13.9,51.8,20.3,71.4c6.3,19.6,12.1,42,12.5,50.6c0.4,7.9,3.5,16.4,7.6,18.2
		c3.5,1.8,12.5,20,19.4,40.3c14.8,42.5,22.8,38.8,39.2-18.4c5.2-18.9,18.9-47.4,30.4-61.8c16.7-20.7,22-37.6,27.1-74.9
		c10.8-90.8-6-130.5-69.4-166.8c-16.7-9.2-26.7-20.1-27.1-28.7c-0.6-13.2,1.4-14,55.8-11.8c48.3,1.8,57.9,4,70.7,18.6l15,15.9
		l28.6-12.6c97.1-42.9,180.7-157.7,207.5-284.3c10.7-48.3,6.6-62.8-16.8-72.3c-19.4-7.7-22.8-24.8-8.8-44.8
		c5.1-6.9,9.1-22.3,8.7-32.9c-1.2-27.2,28.5-75.6,51.1-84.7c11.3-4.5,24.8-21,39.7-51c23.7-45.6,57.9-82.9,86.5-95.6
		c8.6-3.7,31.5-7.4,49.9-8.3l33.2-1.5l71.9,1576.9l72,1576.9l-1357.4,62l-1357.4,62L3861.1,271.8z"/>
	<path d="M3810.4,178.4l11-753.3l22.3,4.3c81.7,17.1,174.5,28.4,288.9,34c104.3,5.5,136.8,9.3,153.6,18.1c12.1,6.1,27,11.7,33,11.7
		c27.1,0.4,124.1-51.9,171.5-92.3c26.8-23.5,55.6-44.3,63.7-46.9s31.8,2.4,56.1,10.7c36.4,13.7,45.2,14.6,71,8.3
		c16.3-4.4,42.3-18.6,57.4-31.7l28.2-24.1l69.8,1c69.8,1,70.5,1,91.8-19.9l22-20.3l-11.2-24.7c-15.8-33.4-6.9-39.9,32.9-24.8
		c31,11.7,32.4,11.8,42,0c17.9-24.3,9.4-45.7-20.3-52.1c-21.7-4.2-18.7-20.2,11-62.2c15.2-21,28.4-41.4,29.8-44.7
		c1.4-3.9,16.3-5.7,33.3-4.8c25,1.7,35.2-0.9,52.4-15.2c30.2-24.2,42-48.5,37.7-77.1c-3.1-22-1-24.5,29.9-46.6
		c43.1-29.2,65.9-61.4,66.4-93.2c0.2-13.9,4.5-31.1,9.4-38.4c12.5-19,19.9-61.4,11.2-66.8c-3.4-2-6.6-14.1-6.4-26.6
		c0.2-18.5,5.8-26.5,34.6-49.2c19.2-15,34.3-32.7,34.5-39.3c0.3-17.9,11.8-22.4,17.1-6.4c5.2,17.3,30.9,17.7,47.5,0.6
		c19.9-20.9,25.2-8.9,19.6,46.7l-5.5,51.6l19.5,10.2c14.1,7.5,21.4,18.3,27.2,42.8c7,26.6,17.7,41.4,63.2,85.8
		c44.7,44.5,62.8,57.3,97.2,70.4c53.9,19.3,91.4,54.4,101.6,94.9c11.5,45.3,36.7,90.7,58.1,106.3c17.4,12.2,20,18.2,22.8,62.1
		c1.6,26.6,5.3,53.8,7.3,60.5c4.6,11.3,6,11.3,17.6,0.9c15.7-13.7,27.1-49.3,27.7-89.2c0.3-19.2,4.5-33.8,10.7-39
		c15.8-12.4,12.4-18.4-13.2-29.3c-32.4-13.8-34.8-26.4-13.4-55.9c9.7-13.8,18-29.6,18.2-34.9c0.1-4.6-20.6-32.8-45.9-61.7
		c-27.3-30.9-47.3-60.4-50.4-73.7c-2.6-11.3-5.8-66.4-7.7-122.2c-1.2-55.1-5.3-102.9-8.7-106.2c-2.6-2.7-23.7-5.7-46.7-6
		c-41.3-0.6-42-1.3-52.5-24.6c-6.6-12.7-15.9-27.4-21.9-32.1c-6.1-5.4-10.6-16.7-10.4-25.3c0.2-14.6,2.3-15.9,15.7-11.7
		c8.1,2.7,24.3,6.3,35.1,8.4c11.5,2.2,35.7,11.1,54.6,21.4c33,16.4,36.3,17.1,62.9,8.9c34.7-10.8,39.4-6.1,47.6,41.1
		c3.1,19.9,10.7,52.5,15.9,72.5c5.1,20,9.6,42.6,9.4,51.2c-0.1,7.9,2.5,16.6,6.5,18.7c3.4,2,11.3,20.7,17,41.4
		c12.3,43.3,20.4,40.1,40.2-16c6.3-18.5,21.7-46.2,34-59.9c17.9-19.7,24.3-36.2,31.5-73.2c16.2-90,1.9-130.7-59.2-170.7
		c-16.2-10.2-25.4-21.6-25.3-30.2c0.2-13.2,2.2-13.9,56.4-8.5c48.1,4.7,57.5,7.4,69.4,22.9l14,16.8l29.3-10.9
		c99.5-37,189.8-146.5,224.2-271.3c13.6-47.6,10.4-62.3-12.5-73.2c-18.9-8.9-21.3-26.2-6.1-45.2c5.5-6.5,10.5-21.8,10.7-32.4
		c0.4-27.2,33-73.8,56.1-81.5c11.6-3.8,26.1-19.5,42.7-48.5c26.4-44,62.8-79.3,92.1-90.2c8.8-3.2,31.9-5.5,50.3-5.3l33.2,0.5
		l-22.9,1578.4l-22.8,1578.4l-1358.7-19.6l-1358.7-19.6L3810.4,178.4z"/>
	<path d="M5699.5-1597.5c-8.2-3.1-43.7-10-78.4-14.2c-62.6-8.8-90.8-19.2-98.8-37.5c-6.6-15.7,10.7-49.4,31.4-60.6
		c18-9.8,23.4-10,66.5,1.4c35.5,9.6,51.2,11,64.6,5.3c28.9-11.5,55.3-9.6,82.9,8.1c20.7,12.7,31,15,46.4,10.5
		c11.5-2.3,27.6-5.5,37-6.4c23.7-1.4,26.4,21.1,4.7,42.3c-14.5,14.4-19.2,15.9-31,8.2c-16.5-8.8-17.2-8.8-31.2,21.5
		c-10.2,20.2-13.6,22.3-44.7,24.5C5730.8-1593.1,5708.4-1594.4,5699.5-1597.5z"/>
</g>
<path id="tas" d="M723.2,796l1.3-0.6l0.6,1.7l3.5,1.2l-0.1,1l1.7,1.6l2.7,1l3.7,2.7l1.6,0.3v0.6l0.1-0.7l1.9,0.4l0.1,0.9l0.1-0.6
	h1.9l1.6-1l0.4,2l-0.4,1.3l0.6-0.9l0.3,1.4l0.1-1.3l-0.4-0.4l0.6-1l-0.7,0.1v-0.4l1.2-0.3l0.9-1l0.6,0.2l0.7-0.7l1.4,1l0.3,1.2
	l-1,0.6l1-0.3l0.1,1.3h0.4l-0.3-0.9l0.4,0.3l0.4-0.6l0.9,0.7l-0.6,1.2l0.6-0.9h0.6l-1.3-1.4h-1l-0.6-2.2l2-0.7l1.4,0.3l1.4-1l2,0.6
	l0.7,0.6l-0.4,0.6l3.2-2.2l0.3,0.4l0.9-0.3l0.9,2l0.9-0.1l1.7-1.1l1.9-2.6l1.6-0.6l0.6,1.3l1-0.2l0.3,0.7l1.3,0.3l1-0.6l-0.3,0.6
	h0.6l-0.4-0.3l2-2.5l-0.4-0.9l1.4,0.3l0.4,0.9h0.9l0.7,1.6l0.9,0.3l-0.4,0.2l0.6-0.4l0.7,0.7l1.3,3.7l0.7,0.4l-1.4,1.4l0.1-0.7
	l-0.9,0.6l0.7,0.3l-1.6,3.4l0.6,0.6l-0.1,1.1l1,0.1l-0.7,1l-0.4-0.6l-0.3,0.9l-1.2,0.1l1,0.4l1.4-1.3l0.4,0.1l-1.9,2.2l-0.6,2.2
	l-0.6-0.1l0.6,0.3l-0.1,0.9l-0.3-0.4l0.9,2.5l-1,2.6v2l-1.2,2l0.9,2.3l-1.6,3l1.3,1.9l-1.2,1.6l1,0.4l-0.3,1l-1.4,1.4l-0.6-1.3l1-1
	l-0.6-0.9l1-0.7l-1-0.4l-0.3-1.3l-1.3-0.3l2-1.6l-0.7-0.9l0.1-0.4l-0.4,0.6l0.3,0.9l-0.4,0.4l-0.6-0.7l-0.6,1.3l0.1-0.4l0.3,0.4
	l-1.3,0.7l2.4,0.7l-3-0.1l-0.1,1.6l-1.6,1.7l-0.6,1.7l-1.6,0.7l0.6,0.4l0.7-1.2l0.6,0.1v1l-1,1.3l-0.1,0.9l0.4,0.4l-0.3,1.6
	l-1.4,0.9l-0.4-1.2l-0.1,0.9l-0.7,0.3l1.2,1.4l-0.4,0.6l0.4,0.7l-0.6-0.3l0.4,0.9l-0.4,1.3l-1.6,1.2l-0.1,1.7l-0.3-0.7l-1.3,1.7
	l1.7,0.6v-0.6l-0.7-0.3l0.7-0.7h0.6l0.1,0.9l0.7-0.1l0.1,2.6l-1.7,1.4l0.7,2.3l-0.6,0.9h1l-1.2,1.3l0.7,0.9l-2-1l-0.3-2.3l-0.4,1.2
	h0.4l-0.1,1.3l-1-0.3l-0.6,1.3l-1.7-2.2l-0.1-0.9l1.3-1l-1.7-0.3l-0.3-2.2l1.3-0.4l0.3-1.4l0.9,0.4l-0.6,1.4l0.3,0.6l0.3-0.3v0.7
	l1.6,0.7l0.3-0.7l0.1,0.7l0.4-0.9l1-0.1l-1.6-0.4l0.4-0.6l-0.7-0.6h0.7l0.3-0.6l-0.9-0.1v-1.2l-0.7,0.3l-0.9-0.6l-0.9,0.3l-0.6-0.3
	l0.7-0.7h-1.4l0.1-2.3l-0.9,0.3l-0.1-0.7l-0.1,0.9l-0.3-0.6l-0.7,0.4L755,849l0.1,0.6l-0.4,0.1l0.7,1.2l0.7-0.3v0.4l1.7,0.6
	l-0.9-0.3l-1.3,0.6l-0.4,1.3l0.6,1.3l-0.4,0.1l0.3,0.4l0.3-0.6l0.1,0.7l-0.7,0.9l-2.2,0.4l-0.1-1.9l0.3-0.3l0.1,1.6l0.9,0.1l0.3-1.2
	l-0.6-0.6l0.6-1l0.4,0.2l-0.1-0.4l-0.9-0.2l-0.6,0.7l0.1-1.3l-1-0.4l0.3-0.7l-1.3-1.3v-1.3l-1.3-0.9l-0.7,0.6l0.9-0.3l0.7,0.9
	l0.4,0.6l-0.4,0.7l1,0.4l0.4,2.7l-0.9,1.3l-0.1,2H751l-0.3-1.4l-0.4,0.4l-0.3,1.2l0.7,0.4l-1,0.9l-0.3,2.9l-1.2,1.3l-2.3-1.4
	l0.7-0.9l-0.3-1l-0.7,1.4l-1.4-1l0.4-1.9l-0.7,0.9v1.3l1.6,1.3l0.4,1.3l-0.7,0.9l-0.4-0.6l-1.3,0.3l1.4,0.7l-0.9,1.3v1h-1.6
	l-0.3-0.9l-0.3,0.9l1.2,0.3l0.3,0.7l-1.2-0.1v0.9l0.7-0.6l-0.6,1.2l-0.9,0.3l-0.1-0.9l-0.4,1v0.7l0.6-0.3v0.7l-2.2,1l0.3-0.6
	l-0.6-0.6l-2,0.7l-0.1-1l-0.6,0.1V869l-1-0.7l-0.3-2.5l-0.4,1l0.6,0.9l-1.3-0.7l-0.6,0.4l-1.4-0.1l-1.2-0.7l-1,0.6l-0.3-1.2
	l-0.7-0.3l-0.7,1.2l-0.9-1.2l-0.9,1.3l-0.6-0.4l-1,0.9l0.3-2.9l-0.9-2.2l-0.9-0.1l1.2-0.6l0.1,1V861l1.7,1.3l-0.3-0.7l1.3,0.3
	l0.1,1.3v-0.6l0.3,0.4l0.4-0.9l0.7,0.3v0.6l0.4-1.6h-1v-0.9l-1.3,1.3l-0.6-0.4l-0.1-1l-0.3,0.9h-1l-0.7-1.3l0.3-1.4l-0.9-0.7
	l0.4-0.6l-0.4,0.1l0.1,1.4l-1.3,0.6l0.3,0.4l0.9-0.6v1l-1.2,0.4l-0.6-0.3l0.3-0.6l-0.6-0.4l-0.1-1.9l-0.7-0.3l-0.3-2.3l-0.6,0.2
	l-0.6-0.7l0.4-1l-0.7-0.4l-0.7-1.9l-1.9,0.3l0.1-1.2l-0.6-1.1l-1-3.6l0.4-1.3l-0.4-1.7l-0.6-0.2l-0.4-1.1l-0.9-0.1l1-1l-0.9-1.4
	l0.4-2.3l-0.6-2.7l0.4-1.3l-0.7-2.2l1,0.4l0.4,2h1.3l-0.1,1l2.2,1.9l0.1,3.7l0.3-2.2l-0.4-0.1l0.9-0.4l0.6,0.9l-0.3-0.6l1.1-1.7
	l-0.9,0.3l0.3-0.3l-0.6-1l-0.3,1l-0.3-1.2l-1.6-2l-0.4-2.7l-0.4-0.1l0.1,0.7l-1,0.6l0.3,0.7l-1.2-0.3l1.2-3l-0.4-2.6l-4.2-7.8
	L709,817v-1l1-0.9l-1,0.1l-0.7-3.3l-1.7-3l0.9-1.2l-1.4-3.6l0.3-5.2h-0.7l-0.4-1.2l0.7-1l-0.4-0.9l1-0.9l0.6,0.3l0.7-1.4l0.3-2.3
	l-0.6-1.3l0.3-1.1l0.9-0.7l0.6,2.6l0.4-0.7l1,0.4l0.1,1l0.1-0.6l1.4,0.9l1.2-0.4l0.6,1.3l0.6-0.1l0.7,1.2l0.3-0.3l0.1,0.7l1-0.4
	l-0.7-0.9l1.4,0.6l1.3-0.4l-0.9,0.6h0.9l0.3-2.5l0.9,1.4l-1,0.9l0.1,0.9l0.1-1.1l0.3,1.6L723.2,796L723.2,796z"/>
<path id="vic" d="M645.2,594.4l-10.4,114.5l0,0.1l3.7,2.8l3.2,3.3l1.2,2.4l-0.8,1.4l0.8,0.6l0.8-1l1.9,1l0.3,1.2l1-1.2l1.1,0.7
	l0.6-0.4l-0.9-2l1.9-1.4l1.7-0.3l4,1.2l4.2,3.5l2.1,0.4l0.8-1l2.3-0.1l2,1.7l1-0.1l7,6.7l0.6-0.1l0.1,0.2l2.9,0.6l1.9,1.3l2.6,3.2
	l2.8-0.1l1.4,0.9l1.5,2.4l1.1,0l2.7-1.8l0.5-1.2l4.3-1.5l4.8-5l1.3,0l0.8-0.9l2.7-1l2-1.9l2.4-1l1.6,0.4l0-0.1l0.9-0.3l1.5,0.8
	l1.1-0.3l0.6-0.5l-1.2-0.2l1.5-1.3l0.3,0.6l0.6-1.2l-0.4-1.7l-1.2-0.4l-1.9,1.1l-1.7,0.1l-1.1-1.3l-0.4,1l-1.1-0.5l0-1.1l1.4-1.2
	l-0.1,0.8l1.3-0.1l0.7,0.5l0.4-1.2l6.8-2.7l0.7-1.4l1.2-0.3l0.7,0.5l0-0.8l0.5-0.2l1.1,0.7l0.8,4l0.7-0.1l0.5,0.9l0.3,3.5l-2.4,1.9
	l-1.2,2.7l-1.7,1l-2.4,0.4l-3.5-2.4l3.6,4.1l1,2l3.2,0.1l0.5-1.3l1.9-1.1l2.3,0.8l-1-1.1l0.8,0l-0.3-2.2l0.6,0.1l1.2-2.3l1.6,0
	l-0.7,0.3l0.4,0.3l0.5-0.4l2.1,0.3l1,0.6l0.6,1.9l-0.4,1.1l0.8,0.5l-0.4,1.1l-0.8,0.8l-2.2-0.7l0.2,2.7l-1.7,0.4l0.2,0.5l2.3,0.8
	l2.3,4.1l3.1-1.1l1.9,0.5l0.3,1.3l-0.8-1.1l-1.6-0.6l2.4,4.1l0.7,3.9l1.7-0.5l0.2-1.1l0.9-0.8l3,1.7l-1-1.6l0-0.6l0.8,0.4l1.6,5.4
	l-0.5,0.5l1.5,1.4l0.3,0.8l-0.7,0.8l1,1.5l1.2-0.2l0.4-1.7l1.1,0l0-1.1l-1-0.4l1.7-2.8l0.3-3.2l-0.8-0.6l-0.8,2l-2.8,1.2l-0.2-2.9
	l-1,0l-0.7-1.9l1.1-1.2l1.1-0.2l0,0.7l1.9-0.7l1,1.4l2-0.7l1.3,0.6l0-0.6l0.7,0l0,0.6l0.1-0.6l1.5-0.2l0.1-0.6l0.3,0.5l-0.5,0.3
	l1.1,0.2l0.5-0.7l1.3,0.5l0-1l1.1-0.4l1.7,0.4l0.7-0.4l-1.1,1.1l18.7-14l4.9-2.6l4-1l-3.1-0.3l-0.7,0.8l-0.9,0.2l0,0.3l-0.7,0.2
	l-1.4,1.1l0.6-1.2l-3.6,2.3l-2.7,0.3l0.5-1.3l1.3-0.4l-0.6,0.5l1.2,0.2l2.5-1.9l0.8,0.1l-0.3-0.5l1-0.3l-0.8-0.1l1.1,0.1l0-0.9
	l-0.8-0.2l1.4-0.8l-1.6,0.5l-0.3-1.1l0.3,0.7l1.1-0.6l1.6,0.5l1.2,1.6l0.5-0.5l1.9,0.5l3.1-0.3L794,720l0.5,0.8l0.7-0.9l0.4,0.5
	l-1.2,0.9l5.8-0.7l8.6,1.6l1.9-0.6l6.8,0.8l2.7,0.4l0.9,1l1.9-0.6l2.9,0.5l0.8-0.8l3.9-1.2l2.7-2.7l-0.2-1l-0.4-0.8l-0.8,0.2
	l0.8-0.3l-1-0.8l1.3,0.4l-0.1,1l0.6-0.2l0.2-0.8l0.9,0l-0.8,1l0.3,0.3l-1,0.8l4.7-0.6l0-0.1l-38.5-26.4l0.8-1.9l1.1-0.4l1.6-2.3
	l-0.3-1.1L801,685l0.3-2.5l-1.6-2.8l0.8-1.9l-0.4-0.3l0.9-4.8l-1-1l0.5-1.7l-1.6-0.3l-0.3-1.6l-2.5-1.3l-4.5-0.3l-1.2-0.5l0.8,0.7
	l-0.8,0.4l-1.1-1.9l-1.1,0.3l-1.1-0.5l-1.4,1.9l-1.1,1.1l-0.4-0.6l-3.2-0.5l-0.4-1.1l-2,2.8l-2.1-1.2l-0.2,1l-1.2-0.8l-1.7-0.3
	l-0.4-0.9l-0.4,0l-0.3-1.1l-1.1,0.3l-1.4-1.4l0-0.8l-1.3,0.2l-1.2-0.9l-0.4,0.9l-1.3-0.9l-1.7,2.3l-0.5-0.8l-1,0.4l-0.5-0.9l-2,0.4
	l0-0.7l-1.1-0.1l0.1-0.4l-1.1,0.4l-1.2-1l-1.5,0.4l-1.3-1.7l-2.4,0.5l-0.7-1l-1.2-0.4l-0.4-1l-0.4,0l-1.1-1.3l0.1-0.6l-0.6,0.3
	l-0.6-1.9l-3.2,0.4l-3.8-0.1l-0.3-0.7l-2.2,0.2l-0.5-0.8l-1.2,0.1l-2.5,0.6l-1.1,3.2l0.6,2.9l-1,0.2l-1.9-0.8l-1.6,1.4l-1.9-0.3
	l0-0.8l-0.8,0.1l0.1-0.9l-0.8,0.3l-0.3-0.8l-0.5,0.8l0-1.2l-0.8,0l-0.3-0.8l-1.1-0.6l-1.2-1.9l-0.9-2.1l-0.5-1.4l-0.5-1.4l-1.2-0.5
	l0.1-0.4l-0.8,0.3l-1.1-2l-1.6-1.4l-0.4-1.5l-1.3-1.4l-1.2-0.7l-2.6-1.7l-1-1.2l-1.2-0.5l0.2-1l-1,0l-0.4-0.8l-1.1,0.8l-1.3-2.6
	l-0.1-2.1l0.5-0.5l-2.7-0.3l-0.3-1l-1.1,0l-0.2-1.6l-0.9-1.2l0-3.5l0.4-1.7l0.9-2l0-1.6l-1.7-0.3l-0.5-0.6l0.6-0.4l-1.1,0l-0.2-0.8
	l-1.2-0.5l0-0.4l-0.3,0.4l-0.4-0.8l-0.5,0.3l0.1-0.6l-0.5,0.4l-0.4-0.7l-0.5,0.3l-0.3-0.5l0,0.4l-1.2-1l-0.5,0.7l-1.1-1.5l-0.9,0.8
	l-0.7-0.5l0.4-1.1l-1.2-2.1l-1.1,0.4l-0.4,1l-1.2-0.4l-0.4,1.6l0.4,0.6l-0.8,0.2l0.3,1.2l-0.5,0.4l-0.3-0.7l-1.1,0.2l0.5,1.1
	l-0.6,0.4l-2.8-1.5l0.6-2.1l-1.1,0.2l0.4-1l-0.6-0.2l-0.4-2.4l-0.6-1.7l-0.8,0l0.7-0.5l-0.8-0.2l0.2-2.1l1.3-1.7l-2.7-0.5l0.1-0.8
	l-1.2,0.1l0.4-2.8l-0.4-0.8l-1.3-0.7l-1,0.3l-0.8-0.1l-0.2-1.2l-1.1-0.2l0.4-0.8l-0.6,0.2l0.1,0.6L668,599l-0.3,0.7l-0.7-0.5
	l-0.3,0.4l-0.5-0.8l-0.7,0.5l-3.2-1.4l-0.5,0.5l-0.3-0.6l-1.7,0.5l-0.4,1l-0.9-0.2l0.2,1.2l-1.4-0.1l-0.7,0.5l-0.1-1.7l-1.2,0.3
	l-1.9-1.9l-1,0.8l0-0.8l-1.4-0.9l-0.3,0.1l0-0.6l-0.9-0.2l-0.5,0.8l-0.3-0.5l-0.5,0.2l0-0.8l-2.5,0.2L645.2,594.4L645.2,594.4z"/>
<g id="wa" transform="translate(0.000000,800.000000) scale(0.100000,-0.100000)">
	<path d="M3138.9,7181.6c-23.3-10.2-23.3-10.2-12.4-31.9c10.9-21,10.9-21.8-3.6-21.8c-9.5,0-14.5-5.1-14.5-14.5
		c0-8-2.9-14.5-7.3-14.5c-3.6,0-7.3-6.5-7.3-14.5c0-8.7-3.6-12.3-10.2-10.2c-14.5,5.8-18.9,29.7-7.3,39.9c6.5,5.8,8,11.6,3.6,16
		c-12.4,12.3-73.4-36.3-73.4-58.8c0-6.5-2.2-8.7-5.1-6.5c-2.2,2.9-4.4,14.5-3.6,26.1c0.7,37-38.5,55.1-63.2,29
		c-13.8-14.5-13.8-18.1-5.1-31.2c5.8-8.7,15.3-14.5,21.8-13.1c16.7,2.9,24-20.3,9.4-29c-7.3-3.6-12.4-13.1-12.4-20.3
		s-5.8-17.4-12.4-21.8c-9.4-5.8-10.2-9.4-3.6-11.6c4.4-2.2,8.7-9.4,8.7-15.2c0-6.5-2.2-9.4-5.1-7.3c-2.2,2.9-10.9-0.7-18.9-7.3
		c-13.8-12.3-13.8-12.3-9.4,2.2c3.6,11.6,0,16.7-14.5,23.2c-10.2,5.1-21.8,7.3-25.4,5.1c-3.6-2.9-6.5-0.7-6.5,2.9c0,4.4,3.6,8,7.3,8
		c13.8,0,7.3,19.6-10.2,28.3c-25.4,13.8-33.4,5.1-29.1-30.5c3.6-28.3,2.2-31.2-16-39.9c-13.8-5.8-22.5-6.5-27.6-1.5
		c-8,8-40.7-18.1-40.7-32.6c0-5.1-6.5-14.5-13.8-21c-12.4-10.9-13.1-16-5.8-29c5.1-8,11.6-17.4,15.3-19.6c2.9-2.9,2.2-7.3-2.2-9.4
		c-14.5-9.4-8-17.4,18.2-21.8c30.5-5.8,29.8-20.3-1.5-22.5c-16.7-1.5-24,2.2-29.1,13.8c-9.4,22.5-35.6,20.3-35.6-2.9
		c0-10.9-4.4-18.1-10.9-18.1c-5.8,0-17.4-3.6-25.4-8.7c-11.6-6.5-12.4-10.2-4.4-19.6c13.8-16.7,3.6-26.8-17.4-17.4
		c-24.7,10.9-26.9,7.3-32-51.5c-0.7-5.8-5.8-8-15.3-5.8c-16,4.4-36.3-8.7-38.5-23.9c-1.5-5.8-4.4-15.2-7.3-19.6
		c-8.7-13.8,2.2-62.4,16.7-76.2c7.3-6.5,14.5-16.7,16.7-21.8c2.9-7.3,5.8-7.3,11.6,1.5c6.5,8.7,8,7.3,8-8.7
		c0-10.9-2.9-21.8-7.3-23.9c-3.6-2.2-7.3,0.7-7.3,6.5c0,6.5-5.1,11.6-10.9,11.6s-10.9-6.5-10.9-13.8c0-8-3.6-16.7-7.3-18.9
		c-4.4-2.9-5.8-10.9-3.6-18.9c6.5-20.3-2.9-42.8-18.2-42.8c-7.3,0-15.3,5.8-18.2,13.8c-2.2,8-13.8,15.2-27.6,17.4
		c-12.4,2.9-31.3,6.5-40.7,9.4c-14.5,4.4-16.7,2.9-13.1-6.5c2.2-6.5,0-13.1-6.5-15.2c-7.3-2.9-10.2,1.5-10.2,13.1
		c0,18.1-32,38.4-40,26.1c-2.9-4.4-10.9-7.3-18.9-7.3c-10.2,0-13.8-5.1-13.8-21.8c0-11.6,5.1-23.9,11.6-27.6
		c10.2-5.8,9.4-7.3-5.8-10.9c-23.3-5.8-38.5-37-23.3-48.6c5.8-5.1,10.2-15.2,10.2-22.5c0-9.4,5.1-13.8,16.7-13.8
		c18.9,0,48.7-24.7,48.7-39.9c0-5.8,2.9-10.9,6.5-10.9s6.5-9.4,6.5-21l-0.7-21l-21.1,15.2c-18.2,13.1-21.8,13.8-27.6,5.1
		c-9.4-14.5-8.7-34.1,0-39.9c9.5-5.8,9.5-37-0.7-55.1c-3.6-8-10.2-12.3-13.8-10.2c-10.2,6.5-58.2,79.8-58.2,89.2
		c0,4.4-6.5,11.6-14.5,16c-7.3,4.4-12.4,11.6-10.2,17.4c2.2,5.1-1.5,13.1-7.3,18.1c-5.1,4.4-8.7,13.8-7.3,21
		c2.2,8.7-3.6,15.2-18.2,21.8c-15.3,6.5-20.4,13.1-17.4,23.2c2.2,8,6.5,14.5,10.2,14.5c8,0,8,15.2,0,27.6
		c-9.4,15.2-43.6,2.9-48.7-16.7c-2.2-9.4-10.2-22.5-18.2-29.7s-13.8-21.8-13.8-37c0-13.8-3.6-23.9-8.7-24.7c-5.1-0.7-16-1.5-24-2.2
		c-10.9-0.7-14.5-5.8-14.5-20.3c0.7-10.2-2.2-17.4-5.1-16c-8.7,5.8-54.5-45.7-71.2-79.8c-16-33.4-19.6-97.2-7.3-121.2
		c4.4-7.3,8.7-32.6,10.2-55.1c2.2-38.4,11.6-55.9,21.8-39.2c6.5,10.2,26.2,1.5,26.2-11.6c0-14.5-102.5-111-117.8-111
		s-38.5-40.6-26.9-47.2c9.5-5.8-5.8-25.4-19.6-25.4c-5.8,0-9.4-8-9.4-19.6c1.5-50.8-56-158.9-108.3-206
		c-46.5-42.1-207.2-124.1-277-141.5c-31.3-8-59.6-19.6-68.3-29c-12.4-13.1-18.9-14.5-29.1-8.7c-8,3.6-34.2,8-58.9,8
		c-48,1.5-83.6-15.2-84.3-39.9c0-23.9-38.5-56.6-80-68.2c-51.6-13.8-72.7-18.9-93.8-19.6c-11.6-0.7-32.7-18.9-64-53.7
		c-26.2-29-49.4-51.5-52.3-50.1c-2.2,1.5-17.4-2.9-33.4-10.2c-40-18.9-80.7-18.9-85.8,0c-3.6,13.8-3.6,13.8-32.7,0
		c-16.7-8-32-17.4-34.2-21.8c-2.2-3.6-9.5-7.3-15.3-7.3c-8.7,0-9.5,5.8-5.8,25.4c6.5,34.8-5.8,32.6-31.3-5.1
		c-11.6-17.4-27.6-34.1-37.1-38.4c-8.7-3.6-16-10.9-16-16s-5.8-9.4-13.8-9.4c-7.3,0-17.4-4.4-21.8-10.2c-5.1-5.8-15.3-8.7-22.5-6.5
		c-11.6,2.9-14.5,0-14.5-14.5c0-13.8-8-23.2-32.7-39.2c-21.1-13.1-35.6-28.3-40.7-43.5c-3.6-13.1-13.8-25.4-21.1-27.6
		s-25.4-21.8-40-43.5c-24.7-35.5-70.5-68.2-129.4-92.1c-29.1-12.3-75.6-57.3-82.1-80.5c-4.4-12.3-11.6-23.2-17.4-23.2
		c-5.8-0.7-10.2-5.1-8.7-10.2c1.5-5.8-2.2-32.6-7.3-59.5c-7.3-39.2-11.6-50.1-21.8-50.1c-6.5,0-17.4-7.3-24-16
		c-12.4-16.7-12.4-16-8,10.2c3.6,21.8,2.2,29.7-10.2,42.1c-16,16-18.9,47.2-7.3,87.1c8.7,29.7,0.7,40.6-21.1,29.7
		c-24-13.1-37.1-38.4-47.3-95.8c-9.5-50.1-21.1-89.2-33.4-116.1c-8.7-17.4,0.7-51.5,14.5-55.1c23.3-5.8,46.5-74.7,29.1-85.6
		c-3.6-2.2-4.4-10.9-0.7-20.3c3.6-8.7,8-31.2,10.9-49.3c4.4-29,2.2-37-11.6-54.4c-37.1-45.7-56-146.5-40.7-221.3
		c5.1-24.7,14.5-41.4,38.5-64.6c18.2-18.1,32.7-37.7,32.7-44.3c0-7.3,3.6-15.2,7.3-17.4c4.4-2.2,7.3-10.9,7.3-18.1
		c0-8,16.7-31.2,36.3-51.5c20.4-20.3,36.3-39.9,36.3-42.8c0-5.1,26.9-41.4,64-84.9c10.9-13.1,23.3-23.9,27.6-23.9
		c5.8,0,8.7-17.4,8.7-48.6c0-27.6,2.2-55.9,4.4-63.8c2.9-8.7,0.7-20.3-5.8-29c-10.2-13.8-10.9-13.8-25.4-0.7
		c-8,7.3-16.7,23.2-19.6,35.5c-2.2,12.3-7.3,27.6-10.9,34.1c-2.9,5.8-7.3,16.7-9.5,23.9c-6.5,21.8-18.2,13.1-17.4-13.1
		c0.7-29.7-12.4-50.1-20.4-29.7c-2.2,6.5-2.9,21.8-0.7,32.6c4.4,20.3-8,58.8-18.2,58.8c-8.7,0-46.5,39.2-51.6,53.7
		c-8,20.3-19.6,5.1-24.7-29c-2.2-21,0-31.9,10.2-42.8c7.3-8,19.6-27.6,27.6-42.8c18.9-36.3,42.9-60.9,66.2-66.7
		c30.5-8,42.9-49.3,20.4-71.1c-16-16-32-14.5-32,3.6c0,10.9-3.6,13.8-10.9,10.9c-8-2.9-10.9,0.7-10.9,12.3
		c0,9.4-11.6,29.7-25.4,45.7c-13.8,15.2-25.4,29.7-25.4,31.9s-2.9,8-5.8,13.1c-10.2,15.2-30.5,2.2-30.5-20.3
		c0-16.7-2.9-19.6-14.5-16.7c-20.4,5.1-18.2-2.9,7.3-31.9c12.4-13.1,21.8-26.8,21.8-30.5c0-2.9,20.4-19.6,45.1-37.7
		c48-34.8,139.6-139.3,180.3-206.8c19.6-32.6,24.7-49.3,24-73.3c-1.5-39.9,21.1-92.1,47.3-109.5c25.4-16,74.1-65.3,90.9-91.4
		c8-10.9,11.6-26.8,10.2-34.8c-2.9-10.9,6.5-24.7,40-55.9c61.1-56.6,74.9-90,90.1-222c3.6-34.8,28.4-108.1,40.7-122.6
		c2.9-4.4,5.8-13.1,5.8-20.3c0-15.2,37.8-79.1,66.9-113.2c10.9-13.1,26.9-36.3,34.2-51.5c8-15.2,35.6-55.9,61.8-90
		c31.3-42.1,48.7-71.8,51.6-90c2.2-15.2,7.3-39.9,11.6-55.1c5.1-19.6,5.1-30.5-0.7-37.7c-5.1-5.8-5.1-11.6-1.5-13.8
		c15.3-8.7,16.7-42.8,4.4-66.7c-12.4-23.2-12.4-25.4,5.8-80.5c10.9-31.2,21.1-66.7,23.3-78.3c3.6-23.9-13.8-84.9-32.7-111
		c-15.3-21-51.6-28.3-64-13.1c-5.8,6.5-14.5,11.6-19.6,11.6c-14.5,0-7.3-85.6,12.4-146.5c18.2-58,36.3-78.3,57.4-65.3
		c8,5.1,20.4,8.7,28.4,8.7c37.8,0,148.3-66.7,157-94.3c3.6-11.6,11.6-14.5,34.9-14.5c16.7,0,45.1-7.3,63.2-15.2s44.3-14.5,58.2-14.5
		c13.8,0.7,33.4,1.5,43.6,1.5s21.8,3.6,26.9,8c5.1,3.6,16,6.5,25.4,5.1c9.4-0.7,22.5,0.7,29.8,4.4c12.4,5.1,47.3,1.5,82.9-8
		c12.4-3.6,16.7-1.5,16.7,7.3c0,13.1,16,15.2,37.1,3.6c18.2-9.4,45.1-1.5,40,11.6c-5.1,13.8,13.1,26.8,28.4,20.3
		c10.9-3.6,12.4-1.5,8.7,11.6c-2.9,13.1,0,16.7,17.4,20.3c17.4,2.9,21.1,8,21.1,24.7c0,16,5.8,23.2,31.3,37
		c21.8,12.3,31.3,22.5,32.7,35.5c1.5,13.8,8.7,21,28.3,29c15.3,5.8,28.4,9.4,30.5,9.4c41.4-10.9,51.6-10.9,51.6,0.7
		c0,6.5,3.6,9.4,8,7.3c4.4-2.9,9.4,1.5,11.6,9.4s7.3,13.8,11.6,11.6c5.1-1.5,13.8,0,19.6,4.4c9.4,5.8,8.7,8-2.2,16.7
		c-12.4,8.7-13.1,11.6-2.9,34.8c12.4,27.6,49.4,64.6,64.7,64.6c5.8,0,13.8,3.6,18.2,8c4.4,4.4,29.1,8,54.5,8
		c32.7,0,52.3,3.6,68.3,13.8c12.4,7.3,29.1,13.8,37.1,13.8c7.3,0,16.7,2.9,20.4,6.5c4.4,4.4,24,8.7,43.6,10.2
		c20.4,1.5,44.3,6.5,53.8,11.6c9.4,5.8,26.2,7.3,40,5.1c58.2-12.3,79.2-11.6,93.8,0.7c13.1,12.3,14.5,12.3,26.9-3.6
		c7.3-8.7,14.5-19.6,16-23.9c4.4-13.1,47.3-0.7,51.6,15.2c2.9,11.6,7.3,12.3,29.8,7.3c18.9-4.4,27.6-2.9,32,3.6
		c2.9,4.4,19.6,10.9,37.8,13.1s38.5,6.5,45.8,9.4c8.7,2.9,14.5-1.5,20.4-14.5c10.2-21.8,31.3-20.3,50.9,5.1
		c8,10.2,16.7,13.1,28.4,10.2c18.9-5.1,65.4,32.6,65.4,53c0,6.5,9.4,21,20.4,33.4c16,15.2,21.8,30.5,25.4,58.8
		c7.3,63.1,28.4,101.6,64.7,118.2c17.4,8,37.8,14.5,46.5,14.5c13.8,0,40.7,15.2,115.6,68.2c20.4,14.5,46.5,29.7,58.2,34.8
		c12.4,4.4,38.5,23.9,59.6,42.8c50.9,45.7,89.4,58,160.7,52.2c72.7-5.1,175.9,8.7,230.4,31.9c24,9.4,61.8,23.9,83.6,31.2
		c58.9,19.6,150.5,62.4,198.5,92.9l41.4,26.8l-3.6,79.8c-5.1,99.4-141.8,4222.9-141.8,4278v39.9l-30.5,4.4
		c-17.4,2.2-42.9,7.3-56.7,10.9c-14.5,3.6-35.6,3.6-48.7,0c-22.5-5.8-23.3-8-19.6-32.6c3.6-24.7,3.6-25.4-14.5-21
		c-22.5,5.8-42.2-18.9-36.3-44.3c3.6-13.1,2.2-16-7.3-12.3c-8.7,3.6-10.2,11.6-6.5,37.7c2.2,18.9,8,37.7,12.4,41.4
		c5.1,4.4,10.9,14.5,13.1,23.2c3.6,12.3-2.9,20.3-34.2,42.1c-21.1,13.8-52.3,42.8-69.8,63.8c-17.4,20.3-40,44.3-49.4,52.2
		c-9.5,8-29.1,26.1-45.1,40.6c-27.6,26.1-49.4,30.5-80.7,17.4c-9.4-3.6-13.1-2.2-13.1,5.8c0,12.3-33.4,41.4-46.5,40.6
		C3166.6,7192.5,3152,7187.4,3138.9,7181.6z M2708.6,6720.9c0-13.1-1.5-13.8-10.9-6.5c-10.9,8.7-8.7,21.8,4.4,21.8
		C2705.7,6736.2,2708.6,6728.9,2708.6,6720.9z M2601.7,6455.4c-5.1-1.5-13.8-1.5-18.2,0c-5.1,2.2-1.5,3.6,8.7,3.6
		C2602.5,6459,2606.1,6457.6,2601.7,6455.4z"/>
</g>
</svg>
